<?xml version="1.0" encoding="iso-8859-1"?>
<!-- Generator: Adobe Illustrator 19.0.0, SVG Export Plug-In . SVG Version: 6.00 Build 0)  -->
<svg version="1.1" id="Capa_1" xmlns="http://www.w3.org/2000/svg" xmlns:xlink="http://www.w3.org/1999/xlink" x="0px" y="0px"
	 viewBox="0 0 512 512" style="enable-background:new 0 0 512 512;" xml:space="preserve">
<path style="fill:#3BBC56;" d="M271.208,99.725c10.646-10.454,60.866-54.019,128.678-20.419c3.225,1.598,4.188,5.745,1.979,8.588
	c-13.727,17.66-62.403,68.859-131.793,14.742C270.461,101.663,270.836,100.693,271.208,99.725z"/>
<path style="fill:#30AA44;" d="M399.887,79.306c-2.02-1.001-4.022-1.928-6.01-2.795c-18.707,19.493-58.404,47.705-111.841,13.952
	c-5.048,3.815-8.718,7.189-10.828,9.261c-0.372,0.968-0.747,1.938-1.135,2.911c69.39,54.117,118.066,2.918,131.793-14.742
	C404.074,85.051,403.112,80.904,399.887,79.306z"/>
<path style="fill:#93603E;" d="M322.762,22.101l-22.3-20.069c-3.567-3.211-9.153-2.534-11.825,1.452
	c-12.12,18.079-40.959,71.407-41.354,140.446h10.943c7.471-35.239,24.643-83.281,64.024-111.811
	C325.573,29.712,325.812,24.846,322.762,22.101z"/>
<path style="fill:#7F573C;" d="M305.379,13.528c1.08-1.611,2.638-2.671,4.344-3.163l-9.26-8.334
	c-3.567-3.21-9.153-2.534-11.825,1.452c-12.12,18.08-40.959,71.407-41.354,140.446h10.943c2.333-11.006,5.614-23.262,10.221-35.782
	C277.071,61.82,296.109,27.357,305.379,13.528z"/>
<path style="fill:#F7E9A9;" d="M324.588,213.48v-21.038c0-28.382-23.222-51.604-51.604-51.604h-43.556
	c-28.382,0-51.604,23.222-51.604,51.604v22.418c0,18.698-7.841,36.584-21.741,49.09c-29.105,26.187-47.347,64.211-47.141,106.494
	c0.383,78.466,65.249,142.33,143.712,141.548c77.904-0.777,140.817-64.17,140.817-142.258c0-41.379-17.667-78.629-45.869-104.624
	C333.121,251.762,324.588,233.176,324.588,213.48z"/>
<path style="fill:#EAD992;" d="M129.548,370.445c-0.206-42.283,18.036-80.307,47.141-106.494
	c13.9-12.506,21.741-30.393,21.741-49.091v-22.418c0-28.382,23.222-51.603,51.604-51.603h-20.605
	c-28.382,0-51.604,23.222-51.604,51.603v22.418c0,18.698-7.842,36.584-21.741,49.091c-29.105,26.187-47.347,64.211-47.141,106.494
	c0.383,78.466,65.249,142.33,143.712,141.548c2.985-0.03,5.945-0.162,8.883-0.374C188.44,506.31,129.912,444.967,129.548,370.445z"
	/>
<g>
</g>
<g>
</g>
<g>
</g>
<g>
</g>
<g>
</g>
<g>
</g>
<g>
</g>
<g>
</g>
<g>
</g>
<g>
</g>
<g>
</g>
<g>
</g>
<g>
</g>
<g>
</g>
<g>
</g>
</svg>
