<?xml version="1.0" encoding="iso-8859-1"?>
<!-- Generator: Adobe Illustrator 19.0.0, SVG Export Plug-In . SVG Version: 6.00 Build 0)  -->
<svg version="1.1" id="Capa_1" xmlns="http://www.w3.org/2000/svg" xmlns:xlink="http://www.w3.org/1999/xlink" x="0px" y="0px"
	 viewBox="0 0 512.001 512.001" style="enable-background:new 0 0 512.001 512.001;" xml:space="preserve">
<path style="fill:#93603E;" d="M341.967,20.113L315.376,1.85c-4.253-2.922-10.914-2.306-14.101,1.321
	c-14.943,17.01-51.195,68.395-49.237,134.537h11.308c7.899-32.851,27.834-80.738,78.012-108.479
	C345.319,27.039,345.604,22.611,341.967,20.113z"/>
<path style="fill:#7F573C;" d="M319.819,13.13c1.743-1.984,4.527-3.06,7.386-3.156l-11.829-8.125
	c-4.254-2.922-10.914-2.306-14.101,1.322c-14.943,17.01-51.195,68.395-49.237,134.537h11.308
	c2.463-10.242,6.097-21.947,11.451-34.046C284.535,59.243,308.396,26.135,319.819,13.13z"/>
<path style="fill:#EA473B;" d="M359.492,151.477h-4.171c-12.432,0-24.092,3.447-34.097,9.412c6.054,9.171,9.596,20.128,9.596,31.877
	v8.839v243.409c0,10.431,1.082,24.542-9.596,40.716c13.262,7.907,24.715,9.412,38.268,9.412c36.843,0,66.987-30.144,66.987-66.988
	v-209.69C426.479,181.621,396.335,151.477,359.492,151.477z"/>
<path style="fill:#DD332F;" d="M337.463,492.712c9.306-10.319,14.992-23.956,14.992-38.861V192.766
	c0-14.899-5.683-28.532-14.983-38.85c-5.76,1.608-11.214,3.971-16.248,6.972c6.054,9.171,9.596,20.128,9.596,31.878v8.839v243.409
	c0,10.43,1.082,24.542-9.596,40.716C326.864,489.092,332.177,491.289,337.463,492.712z"/>
<path style="fill:#EA473B;" d="M181.181,445.013c0-2.836,0-245.955,0-252.247c0-11.749,3.542-22.707,9.596-31.877
	c-13.262-7.907-24.715-9.412-38.268-9.412c-36.843,0-66.987,30.144-66.987,66.987v209.69c0,36.843,30.144,66.988,66.987,66.988
	c11.712,0,23.815-0.795,38.268-9.412C180.124,469.591,181.181,455.486,181.181,445.013z"/>
<path style="fill:#DD332F;" d="M106.128,428.154v-209.69c0-33.935,25.58-62.167,58.407-66.415
	c-3.886-0.428-7.856-0.572-12.025-0.572c-36.843,0-66.987,30.144-66.987,66.987v209.69c0,36.843,30.144,66.988,66.987,66.988
	c3.974,0,7.995-0.101,12.135-0.558C131.765,490.385,106.128,462.128,106.128,428.154z"/>
<path style="fill:#EA473B;" d="M273.702,134.617H238.3c-31.981,0-58.149,26.167-58.149,58.149v261.086
	c0,31.982,26.167,58.149,58.149,58.149h35.402c31.982,0,58.149-26.167,58.149-58.149V192.766
	C331.851,160.784,305.684,134.617,273.702,134.617z"/>
<path style="fill:#DD332F;" d="M201.08,453.852V192.766c0-31.982,26.167-58.149,58.149-58.149H238.3
	c-31.982,0-58.149,26.167-58.149,58.149v261.086c0,31.982,26.167,58.149,58.149,58.149h20.929
	C227.247,512.001,201.08,485.834,201.08,453.852z"/>
<path style="fill:#7F573C;" d="M223.422,127.02c-4.747,0-9.522-0.662-14.213-2c-10.989-3.134-20.099-10.36-25.653-20.346
	c-5.554-9.987-6.887-21.538-3.752-32.526c2.62-9.188,8.662-16.805,17.012-21.449s18.009-5.757,27.196-3.137
	c4.104,1.171,6.482,5.447,5.311,9.55c-1.171,4.104-5.447,6.478-9.55,5.311c-5.219-1.488-10.704-0.856-15.446,1.782
	c-4.742,2.637-8.174,6.964-9.662,12.182c-2.002,7.019-1.151,14.397,2.397,20.776s9.367,10.994,16.386,12.996
	c9.27,2.644,19.015,1.52,27.439-3.165c8.425-4.685,14.52-12.37,17.164-21.64c1.171-4.104,5.446-6.482,9.55-5.311
	c4.104,1.171,6.482,5.446,5.311,9.55c-3.776,13.239-12.482,24.216-24.514,30.907C240.629,124.82,232.073,127.02,223.422,127.02z"/>
<g>
</g>
<g>
</g>
<g>
</g>
<g>
</g>
<g>
</g>
<g>
</g>
<g>
</g>
<g>
</g>
<g>
</g>
<g>
</g>
<g>
</g>
<g>
</g>
<g>
</g>
<g>
</g>
<g>
</g>
</svg>
