<?xml version="1.0" encoding="iso-8859-1"?>
<!-- Generator: Adobe Illustrator 19.0.0, SVG Export Plug-In . SVG Version: 6.00 Build 0)  -->
<svg version="1.1" id="Capa_1" xmlns="http://www.w3.org/2000/svg" xmlns:xlink="http://www.w3.org/1999/xlink" x="0px" y="0px"
	 viewBox="0 0 512 512" style="enable-background:new 0 0 512 512;" xml:space="preserve">
<circle style="fill:#FFA92C;" cx="256" cy="256" r="256"/>
<g>
	<path style="fill:#F7991E;" d="M20.605,255.999c0-137.932,109.091-250.366,245.697-255.776C262.883,0.089,259.452,0,256,0
		C114.615,0,0,114.615,0,255.999s114.615,256,256,256c3.452,0,6.883-0.089,10.302-0.224
		C129.696,506.366,20.605,393.932,20.605,255.999z"/>
	<path style="fill:#F7991E;" d="M417.935,94.064c-89.292-89.292-234.58-89.291-323.871,0S4.773,328.643,94.065,417.935
		c89.291,89.292,234.579,89.292,323.87,0C507.226,328.644,507.227,183.356,417.935,94.064z"/>
</g>
<path style="fill:#EA8B18;" d="M118.35,417.935c-89.292-89.292-89.292-234.579-0.001-323.871
	c41.563-41.563,95.259-63.769,149.793-66.638c-62.623-3.295-126.35,18.91-174.078,66.638
	C4.772,183.355,4.773,328.643,94.065,417.935c47.728,47.729,111.455,69.934,174.078,66.639
	C213.609,481.703,159.913,459.498,118.35,417.935z"/>
<path style="fill:#FFA92C;" d="M421.787,363.125c-7.091,10.94-20.113,16.623-32.907,14.116c-7.963-1.561-16.527-4.886-23.231-11.591
	c6.647,6.647,9.973,15.121,11.55,23.026c2.564,12.85-3.172,25.949-14.193,33.037c-5.614,3.61-11.372,6.907-17.25,9.89
	c-11.712,5.944-25.92,4.176-35.735-4.55c-5.953-5.292-11.492-12.329-13.887-21.268c2.367,8.835,1.147,17.595-1.303,25.094
	c-4.1,12.548-15.694,21.158-28.88,21.788c-6.691,0.319-13.395,0.301-20.085-0.056c-13.162-0.702-24.69-9.347-28.749-21.887
	c-2.416-7.464-3.603-16.165-1.252-24.938c-2.325,8.679-7.613,15.564-13.365,20.8c-9.816,8.935-24.22,10.739-36.037,4.694
	c-5.957-3.047-11.79-6.417-17.474-10.109c-11.148-7.24-16.804-20.619-13.957-33.603c1.663-7.582,4.981-15.58,11.318-21.917
	c-6.337,6.337-14.334,9.655-21.916,11.318c-12.984,2.847-26.363-2.809-33.603-13.957c-3.692-5.684-7.061-11.517-10.109-17.474
	c-6.045-11.817-4.241-26.22,4.694-36.036c5.236-5.752,12.121-11.04,20.8-13.365c-19.006,5.093-45.475-4.679-46.825-30.001
	c-0.357-6.69-0.376-13.394-0.056-20.085c0.629-13.186,9.24-24.78,21.788-28.88c7.499-2.45,16.259-3.67,25.094-1.303
	c-8.938-2.395-15.976-7.935-21.268-13.887c-8.726-9.816-10.494-24.023-4.55-35.735c2.983-5.878,6.28-11.637,9.89-17.25
	c7.088-11.02,20.187-16.757,33.036-14.193c7.905,1.577,16.379,4.903,23.025,11.55c-14.245-14.245-18.591-42.452,2.525-56.138
	c5.566-3.608,11.276-6.906,17.105-9.895c11.645-5.971,25.81-4.294,35.656,4.327c6.081,5.324,11.788,12.46,14.23,21.572
	c-5.246-19.577,5.225-46.058,30.263-47.298c6.58-0.326,13.174-0.325,19.755,0.004c13.034,0.65,24.487,9.106,28.7,21.458
	c2.613,7.66,3.997,16.708,1.551,25.836c2.441-9.111,8.147-16.246,14.227-21.57c9.841-8.618,23.996-10.301,35.64-4.341
	c5.826,2.982,11.533,6.272,17.098,9.87c10.947,7.078,16.647,20.093,14.152,32.887c-1.556,7.979-4.881,16.568-11.602,23.288
	c6.721-6.721,15.309-10.046,23.289-11.602c12.795-2.495,25.81,3.205,32.887,14.152c3.598,5.565,6.888,11.272,9.87,17.098
	c5.96,11.644,4.277,25.799-4.341,35.64c-5.324,6.08-12.459,11.786-21.57,14.228c9.128-2.446,18.176-1.062,25.836,1.551
	c12.352,4.213,20.807,15.666,21.458,28.7c0.328,6.581,0.33,13.175,0.004,19.755c-0.645,13.035-9.099,24.493-21.451,28.708
	c-7.662,2.615-16.715,4.001-25.847,1.554c9.112,2.442,16.247,8.149,21.572,14.23c8.621,9.846,10.298,24.01,4.327,35.656
	C428.694,351.849,425.395,357.558,421.787,363.125z"/>
<g>
	<path style="fill:#F7991E;" d="M216.974,105.737c5.331,4.668,10.335,10.924,12.476,18.913
		c-4.599-17.164,4.581-40.381,26.533-41.468c5.769-0.286,11.55-0.284,17.32,0.003c10.401,0.519,19.638,6.718,24.001,15.991
		c0.474-6.673-0.783-13.117-2.72-18.797c-4.213-12.352-15.666-20.807-28.7-21.458c-6.581-0.328-13.175-0.33-19.755-0.004
		c-24.317,1.204-34.89,26.215-30.674,45.588C215.971,104.898,216.48,105.305,216.974,105.737z"/>
	<path style="fill:#F7991E;" d="M186.136,409.648c-5.223-2.672-10.337-5.626-15.32-8.863c-9.774-6.348-14.733-18.078-12.237-29.462
		c1.458-6.648,4.367-13.66,9.923-19.215c-5.556,5.556-12.568,8.465-19.215,9.923c-11.384,2.496-23.114-2.463-29.462-12.237
		c-3.237-4.983-6.191-10.098-8.863-15.32c-5.3-10.361-3.719-22.989,4.115-31.595c4.59-5.043,10.627-9.679,18.236-11.718
		c-16.663,4.465-39.87-4.102-41.054-26.303c-0.313-5.865-0.329-11.743-0.049-17.609c0.552-11.561,8.101-21.726,19.102-25.32
		c6.575-2.148,14.255-3.218,22.001-1.143c-7.837-2.1-14.007-6.957-18.647-12.176c-7.651-8.606-9.2-21.062-3.989-31.331
		c2.616-5.154,5.506-10.202,8.672-15.124c6.214-9.662,17.699-14.691,28.965-12.443c6.93,1.383,14.36,4.299,20.188,10.127
		c-12.489-12.489-16.3-37.219,2.213-49.219c4.88-3.163,9.886-6.055,14.997-8.676c9.577-4.91,21.096-3.921,29.612,2.458
		c-2.675-8.25-8.019-14.792-13.69-19.758c-9.846-8.621-24.01-10.298-35.656-4.327c-5.829,2.989-11.539,6.287-17.105,9.895
		c-21.115,13.686-16.769,41.893-2.525,56.138c-6.647-6.647-15.121-9.973-23.025-11.55c-12.85-2.564-25.949,3.172-33.036,14.193
		c-3.611,5.614-6.907,11.372-9.89,17.25c-5.944,11.712-4.176,25.92,4.55,35.735c5.292,5.953,12.329,11.492,21.268,13.887
		c-8.835-2.367-17.595-1.147-25.094,1.303c-12.548,4.1-21.158,15.694-21.788,28.88c-0.319,6.691-0.301,13.395,0.056,20.085
		c1.351,25.322,27.82,35.094,46.826,30.001c-8.679,2.325-15.564,7.614-20.8,13.365c-8.935,9.816-10.739,24.219-4.694,36.037
		c3.047,5.957,6.417,11.79,10.109,17.474c7.24,11.148,20.619,16.804,33.603,13.957c7.582-1.662,15.58-4.981,21.916-11.318
		c-6.337,6.337-9.655,14.335-11.318,21.917c-2.847,12.984,2.809,26.363,13.957,33.603c5.684,3.692,11.517,7.061,17.474,10.109
		c11.817,6.045,26.221,4.241,36.037-4.694c5.385-4.902,10.364-11.251,12.885-19.164
		C206.932,413.572,195.594,414.486,186.136,409.648z"/>
	<path style="fill:#F7991E;" d="M273.362,428.399c-5.866,0.28-11.744,0.264-17.609-0.049c-11.54-0.615-21.646-8.195-25.205-19.19
		c-2.118-6.544-3.159-14.172-1.098-21.865c-2.039,7.609-6.675,13.646-11.718,18.236c-0.719,0.655-1.475,1.249-2.247,1.816
		c-1.823,8.24-0.639,16.353,1.633,23.374c4.059,12.54,15.586,21.185,28.749,21.887c6.69,0.357,13.394,0.376,20.085,0.056
		c13.186-0.63,24.78-9.24,28.88-21.788c1.807-5.532,2.94-11.75,2.463-18.178C292.88,421.827,283.685,427.907,273.362,428.399z"/>
</g>
<circle style="fill:#FFA92C;" cx="256" cy="256" r="33.12"/>
<path style="fill:#F7991E;" d="M261.425,279.42c-12.935-12.935-12.935-33.907,0-46.842c2.697-2.697,5.747-4.824,8.998-6.396
	c-12.337-5.968-27.607-3.842-37.844,6.396c-12.935,12.935-12.935,33.907,0,46.842c10.238,10.238,25.507,12.364,37.844,6.396
	C267.172,284.244,264.123,282.118,261.425,279.42z"/>
<path style="fill:#FCB960;" d="M460.794,245.732c-0.817-16.394-11.29-30.38-26.68-35.63c-1.052-0.358-2.099-0.687-3.141-0.987
	c0.741-0.768,1.472-1.564,2.193-2.387c10.756-12.283,12.878-29.653,5.407-44.25c-3.106-6.068-6.557-12.048-10.26-17.774
	c-8.896-13.759-24.931-20.647-40.856-17.54c-1.144,0.223-2.267,0.472-3.369,0.747c0.274-1.103,0.523-2.225,0.746-3.369
	c3.105-15.924-3.78-31.96-17.54-40.855c-5.725-3.702-11.705-7.154-17.773-10.259c-14.598-7.474-31.969-5.35-44.251,5.406
	c-0.823,0.72-1.619,1.452-2.388,2.193c-5.445-18.961-20.547-29.02-36.615-29.821c-6.807-0.34-13.711-0.342-20.523-0.005
	c-16.397,0.812-30.386,11.28-35.639,26.673c-0.36,1.055-0.691,2.107-0.991,3.153c-0.769-0.743-1.565-1.474-2.389-2.195
	c-12.291-10.762-29.669-12.878-44.272-5.39c-6.075,3.116-12.058,6.577-17.782,10.286c-13.607,8.82-21.502,25.134-16.762,44.183
	c-18.856-4.691-35.51,3.516-44.121,16.902c-3.715,5.776-7.174,11.81-10.282,17.934c-7.216,14.22-5.708,32.661,7.521,46.369
	c-18.068,5.196-28.64,20.394-29.412,36.565c-0.331,6.925-0.311,13.945,0.059,20.864c0.853,16.002,11.377,31.174,29.353,36.339
	c-12.876,13.341-14.546,31.782-7.185,46.171c3.17,6.198,6.705,12.309,10.508,18.164c8.633,13.292,25.316,21.419,43.561,16.869
	c-4.5,18.062,3.417,34.824,16.869,43.562c5.847,3.797,11.958,7.332,18.163,10.507c14.674,7.509,32.661,5.153,44.758-5.858
	c0.481-0.438,0.953-0.88,1.415-1.325c0.203,0.707,0.42,1.417,0.65,2.129c4.988,15.411,19.331,26.352,35.688,27.223
	c3.656,0.195,7.338,0.293,11.018,0.293c3.291,0,6.58-0.077,9.847-0.234c16.405-0.782,30.815-11.675,35.857-27.105
	c0.252-0.772,0.488-1.54,0.708-2.307c0.648,0.626,1.316,1.245,2.004,1.856c12.07,10.73,29.899,13.007,44.365,5.665
	c6.12-3.106,12.154-6.565,17.934-10.282c13.666-8.789,20.735-25.285,17.59-41.048c-0.208-1.042-0.437-2.067-0.688-3.073
	c1.082,0.269,2.183,0.513,3.305,0.733c15.921,3.118,31.967-3.747,40.877-17.496h0.001c3.713-5.73,7.174-11.713,10.287-17.783
	c7.487-14.604,5.372-31.981-5.39-44.27c-0.721-0.824-1.453-1.621-2.196-2.391c1.046-0.301,2.098-0.631,3.154-0.992
	c15.391-5.253,25.86-19.242,26.672-35.638C461.136,259.447,461.135,252.543,460.794,245.732z M390.416,142.332
	c9.689-1.891,19.47,2.334,24.92,10.763c3.421,5.291,6.611,10.817,9.48,16.424c4.499,8.791,3.183,19.653-3.276,27.029
	c-5.387,6.152-11.361,10.14-17.756,11.855l-111.027,29.75c-0.85-1.747-1.826-3.436-2.927-5.055l81.282-81.283
	C375.826,147.102,382.32,143.911,390.416,142.332z M255.999,281.395c-6.783,0-13.161-2.642-17.957-7.439
	c-4.797-4.796-7.438-11.173-7.438-17.957c0-6.783,2.642-13.161,7.438-17.957c4.951-4.951,11.454-7.426,17.957-7.426
	c6.503,0,13.006,2.475,17.957,7.425c4.797,4.797,7.438,11.175,7.438,17.958c0,6.784-2.642,13.161-7.438,17.958
	C269.16,278.753,262.782,281.395,255.999,281.395z M342.481,87.183c5.607,2.869,11.132,6.059,16.423,9.48
	c8.428,5.448,12.652,15.229,10.763,24.919c-1.579,8.096-4.769,14.59-9.482,19.303l0,0l-81.29,81.291
	c-1.627-1.102-3.316-2.072-5.052-2.914c0.597-2.228,30.691-114.542,29.755-111.047C307.382,94.089,324.342,77.897,342.481,87.183z
	 M246.51,66.636c6.303-0.313,12.691-0.311,18.988,0.003c9.878,0.493,18.628,7.018,21.772,16.234
	c2.645,7.754,3.116,14.932,1.402,21.335L258.91,215.284c-1.938-0.137-3.882-0.137-5.82,0l-29.762-111.076
	C219.558,90.129,226.047,67.647,246.51,66.636z M153.077,96.696c5.289-3.428,10.816-6.625,16.428-9.504
	c8.794-4.508,19.661-3.196,27.041,3.265c6.153,5.388,10.142,11.363,11.855,17.758c0,0,29.638,110.612,29.755,111.049
	c-1.737,0.842-3.426,1.811-5.052,2.913c-1.631-1.631-83.849-83.849-81.29-81.291c-4.704-4.702-7.89-11.181-9.472-19.254
	C140.442,111.941,144.656,102.153,153.077,96.696z M87.287,169.74c2.871-5.657,6.067-11.232,9.499-16.567
	c11.167-17.363,33.883-11.571,44.094-1.364l81.288,81.288c-1.101,1.619-2.077,3.308-2.927,5.055
	c-0.152-0.041-111.026-29.75-111.026-29.75C92.367,203.874,78.614,186.831,87.287,169.74z M83.657,287.531
	c-9.366-3.031-16.018-11.797-16.551-21.809c-0.342-6.403-0.36-12.898-0.054-19.305c0.479-10.039,7.098-18.841,16.469-21.904
	c7.507-2.452,14.469-2.85,20.691-1.185l111.053,29.756c-0.068,0.967-0.114,1.937-0.114,2.916s0.046,1.95,0.114,2.917
	l-111.033,29.751c-0.005,0.001-0.011,0.002-0.016,0.004C98.03,290.328,91.113,289.945,83.657,287.531z M122.778,369.419
	c-9.726,2.135-19.958-2.135-25.468-10.617c-3.514-5.411-6.781-11.058-9.709-16.785c-4.592-8.975-3.174-19.953,3.528-27.316
	c5.205-5.718,10.944-9.451,17.058-11.096l111.055-29.757c0.85,1.747,1.826,3.436,2.927,5.055l-81.283,81.283
	C136.413,364.659,130.321,367.766,122.778,369.419z M197.298,420.871c-7.363,6.702-18.341,8.118-27.316,3.528
	c-5.734-2.934-11.381-6.201-16.784-9.71c-8.483-5.509-12.75-15.745-10.619-25.468c1.653-7.535,4.756-13.623,9.223-18.096
	l81.294-81.294c1.618,1.101,3.307,2.076,5.054,2.926L208.4,403.784l0,0c-0.001,0.004-0.002,0.007-0.002,0.007l-0.001,0.004
	C206.755,409.915,203.021,415.661,197.298,420.871z M287.486,428.479c-3.062,9.372-11.864,15.99-21.905,16.469
	c-6.401,0.306-12.896,0.288-19.304-0.054c-10.013-0.533-18.777-7.185-21.808-16.55c-2.41-7.445-2.796-14.352-1.148-20.528
	l29.764-111.08c0.966,0.068,1.937,0.114,2.915,0.114c0.978,0,1.949-0.046,2.915-0.114l29.758,111.06
	C290.337,414.015,289.937,420.974,287.486,428.479z M358.827,415.212c-5.339,3.434-10.914,6.63-16.567,9.499
	c-8.85,4.492-19.743,3.112-27.105-3.434c-5.984-5.32-9.873-11.206-11.558-17.493l-0.001-0.003l-29.749-111.024
	c1.747-0.85,3.436-1.826,5.054-2.926l81.283,81.282c4.667,4.667,7.843,11.084,9.437,19.074
	C371.534,399.773,367.197,409.83,358.827,415.212z M424.807,342.494c-2.875,5.607-6.073,11.134-9.504,16.429l0,0
	c-5.458,8.42-15.246,12.638-24.937,10.735c-8.07-1.581-14.545-4.767-19.247-9.466l-0.007-0.007l0,0l0,0l-81.282-81.282
	c1.101-1.619,2.077-3.308,2.927-5.055l111.025,29.748h0.001l0,0h0.001c6.396,1.715,12.37,5.704,17.758,11.856
	C428.004,322.834,429.316,333.699,424.807,342.494z M445.364,265.489c-0.489,9.88-7.011,18.632-16.23,21.778
	c-7.744,2.643-14.914,3.119-21.314,1.413c-0.012-0.003-0.024-0.006-0.036-0.009c-0.002,0-0.004-0.001-0.006-0.001l-111.043-29.753
	c0.068-0.967,0.114-1.938,0.114-2.917c0-0.978-0.046-1.949-0.114-2.915l111.046-29.755c0.001,0,0.002-0.001,0.003-0.001
	c6.407-1.716,13.586-1.246,21.342,1.4c9.218,3.144,15.742,11.894,16.235,21.773C445.674,252.803,445.676,259.192,445.364,265.489z"
	/>
<g>
</g>
<g>
</g>
<g>
</g>
<g>
</g>
<g>
</g>
<g>
</g>
<g>
</g>
<g>
</g>
<g>
</g>
<g>
</g>
<g>
</g>
<g>
</g>
<g>
</g>
<g>
</g>
<g>
</g>
</svg>
