<?xml version="1.0" encoding="iso-8859-1"?>
<!-- Generator: Adobe Illustrator 19.0.0, SVG Export Plug-In . SVG Version: 6.00 Build 0)  -->
<svg version="1.1" id="Capa_1" xmlns="http://www.w3.org/2000/svg" xmlns:xlink="http://www.w3.org/1999/xlink" x="0px" y="0px"
	 viewBox="0 0 512.001 512.001" style="enable-background:new 0 0 512.001 512.001;" xml:space="preserve">
<path style="fill:#9AB748;" d="M343.571,247.638V163.73l39.878-33.484C383.449,130.246,385.242,164.419,343.571,247.638z"/>
<path style="fill:#EA8B18;" d="M257.644,7.612c-49.464,0-89.935,54.64-89.935,121.423c0,15.904,0,96.316,0,112.212
	c62.985,85.352,82.635,168.607,81.12,163.292c12.703-53.941,69.795-111.073,98.749-159.132c0-26.001,0-92.256,0-116.372
	C347.579,62.252,307.109,7.612,257.644,7.612z"/>
<g>
	<path style="fill:#DB7B12;" d="M248.83,404.54c0.099,0.346,0.105,0.308,0.018-0.073C248.842,404.491,248.835,404.515,248.83,404.54
		z"/>
	<path style="fill:#DB7B12;" d="M202.41,241.247c0-15.896,0-96.309,0-112.212c0-58.775,31.348-108.136,72.584-119.131
		c-5.618-1.498-11.419-2.292-17.35-2.292c-49.464,0-89.935,54.64-89.935,121.423c0,15.903,0,96.316,0,112.212
		c58.883,79.793,79.889,157.744,81.139,163.219c3.528-14.932,10.456-30.109,19.243-45.269
		C255.592,328.194,234.696,284.999,202.41,241.247z"/>
</g>
<path style="fill:#FFA92C;" d="M354.929,119.607C351.256,52.83,309.028,0,257.644,0l0,0l0,0c-36.018,0-65.079,25.504-81.314,57.844
	c-0.008,0.016-0.02,0.031-0.028,0.047c-0.045,0.09-0.086,0.182-0.131,0.272c-1.242,2.49-2.421,5.04-3.533,7.646
	c-0.055,0.129-0.11,0.259-0.164,0.388c-1.104,2.608-2.142,5.271-3.11,7.986c-0.047,0.131-0.093,0.263-0.139,0.394
	c-0.953,2.698-1.839,5.447-2.652,8.242c-0.04,0.137-0.079,0.275-0.118,0.412c-0.801,2.779-1.531,5.603-2.187,8.47
	c-0.031,0.137-0.062,0.274-0.093,0.411c-0.645,2.851-1.218,5.742-1.715,8.671c-0.024,0.142-0.047,0.285-0.071,0.428
	c-0.228,1.367-0.441,2.741-0.635,4.123c-0.014,0.101-0.03,0.202-0.044,0.303c-0.202,1.454-0.386,2.917-0.551,4.388
	c-0.019,0.165-0.035,0.331-0.053,0.497c-0.14,1.284-0.265,2.573-0.376,3.869c-0.021,0.247-0.044,0.494-0.064,0.742
	c-0.076,0.934-0.142,1.871-0.203,2.81c0,0,0,0.005,0,0.007c-0.032,0.493-0.066,0.985-0.094,1.479
	c-0.01,0.175-0.016,0.35-0.025,0.525c-0.027,0.514-0.052,1.028-0.074,1.543c-0.003,0.075-0.008,0.149-0.011,0.224
	c-0.028,0.655-0.05,1.312-0.07,1.97c-0.011,0.362-0.022,0.724-0.031,1.087c-0.002,0.073-0.005,0.147-0.006,0.22
	c-0.003,0.145-0.009,0.292-0.013,0.437c-0.025,1.195-0.04,2.394-0.04,3.597v28.908v42.451v24.277v22.967
	c0,4.204,3.408,7.612,7.612,7.612s7.612-3.407,7.612-7.612v-4.127c3.956-0.543,4.168-3.206,17.467-9.665v22.996
	c-3.014,0.983-5.874,2.046-8.517,3.195c-3.855,1.675-5.622,6.159-3.946,10.014s6.16,5.624,10.015,3.946
	c0.779-0.339,1.602-0.671,2.448-1v24.573c0,4.094,3.234,7.423,7.286,7.595c1.261,3.754,5.198,5.97,9.115,4.947
	c5.29-1.383,12.576-2.515,20.285-3.345v69.422c0,4.204,3.408,7.612,7.612,7.612s7.612-3.407,7.612-7.612V305.54
	c8.81-0.476,15.918-0.502,25.894,0.062v42.843c0,4.204,3.408,7.612,7.612,7.612s7.612-3.407,7.612-7.612v-41.586
	c6.003,0.665,11.561,1.512,15.758,2.513c4.543,1.085,9.074-2.157,9.359-6.958c5.064,3.095,11.571-0.56,11.571-6.492v-21.874
	c2.16,0.909,3.176,1.579,5.189,1.579c2.883,0,5.64-1.646,6.922-4.437c1.755-3.82,0.08-8.339-3.74-10.093
	c-2.554-1.173-5.364-2.288-8.371-3.341V234.2c11.14,5.487,15.794,10.079,17.467,10.982v2.455c0,4.204,3.408,7.612,7.612,7.612
	s7.612-3.407,7.612-7.612V228.83v-27.025v-42.452v-30.319C355.19,125.977,355.076,122.295,354.929,119.607z M244.697,205.475
	v-27.186c8.636-0.651,17.223-0.611,25.894,0.11v27.118C262.176,204.931,253.446,204.89,244.697,205.475z M270.591,220.802v27.163
	c-9.392-0.611-17.286-0.582-25.894-0.074v-27.146C253.294,220.125,261.636,220.105,270.591,220.802z M179.7,92.583
	c2.245-9.057,5.335-17.741,9.231-25.871c4.23-2.411,8.771-4.558,13.549-6.456c-2.76,8.868-4.991,18.484-6.613,28.689
	c-6.184,2.505-11.986,5.392-17.302,8.643c0.35-1.662,0.718-3.316,1.123-4.954C179.692,92.617,179.696,92.6,179.7,92.583z
	 M339.967,143.087c-5.278-3.616-11.145-6.858-17.467-9.693c0-5.532,0.096-14.133-0.88-26.058
	c6.925,3.588,13.028,7.772,18.053,12.464C340.052,126.273,339.967,128.289,339.967,143.087z M285.783,122.528
	c-0.083-9.28-0.346-18.373-0.771-27.162c7.214,1.279,14.136,3.043,20.635,5.242c1.024,8.742,1.564,17.801,1.615,27.031
	C300.418,125.493,293.224,123.772,285.783,122.528z M208.033,127.1c0.07-9.199,0.626-18.225,1.664-26.933
	c6.509-2.12,13.416-3.813,20.59-5.025c-0.428,8.771-0.693,17.847-0.779,27.11C222.062,123.411,214.873,125.039,208.033,127.1z
	 M256.947,135.376c4.602,0,9.158,0.198,13.643,0.571v27.191c-8.516-0.658-16.927-0.718-25.894-0.114v-27.186
	C248.736,135.533,252.827,135.376,256.947,135.376z M256.947,120.153c-4.108,0-8.176,0.145-12.197,0.415
	c0.111-9.729,0.409-18.814,0.855-27.241c7.792-0.546,15.744-0.555,24.082,0.095c0.445,8.434,0.742,17.524,0.851,27.261
	C266.055,120.337,261.519,120.153,256.947,120.153z M265.607,50.717c1.172,7.875,2.229,17.006,3.066,27.364
	c-7.426-0.475-14.672-0.503-22.052-0.083c0.838-10.355,1.898-19.48,3.071-27.351C254.953,50.419,259.491,50.392,265.607,50.717z
	 M252.424,35.318c1.771-8.314,3.606-14.214,5.22-17.612c1.615,3.403,3.453,9.312,5.226,17.644
	C258.009,35.193,254.967,35.255,252.424,35.318z M326.882,67.837c4.474,9.582,7.833,19.922,10.032,30.71
	c-5.322-3.397-11.158-6.416-17.402-9.036c-1.588-10.151-3.778-19.725-6.49-28.567C317.96,62.977,322.615,65.273,326.882,67.837z
	 M303.012,83.796c-6.077-1.697-12.418-3.055-18.958-4.055c-0.729-9.752-1.676-18.968-2.828-27.44
	c4.638,0.706,9.182,1.61,13.591,2.705C298.223,63.785,300.97,73.475,303.012,83.796z M278.689,36.558
	c-0.902-4.737-1.858-8.965-2.878-12.725c3.748,3.591,7.354,8.245,10.706,13.871C283.935,37.268,281.329,36.878,278.689,36.558z
	 M239.476,23.834c-1.008,3.718-1.954,7.897-2.848,12.572c-2.595,0.295-5.165,0.647-7.709,1.054
	C232.229,31.945,235.783,27.371,239.476,23.834z M234.094,52.058c-1.16,8.483-2.112,17.719-2.846,27.492
	c-6.503,0.947-12.824,2.246-18.896,3.881c2.068-10.355,4.85-20.067,8.295-28.858C225.012,53.544,229.503,52.704,234.094,52.058z
	 M175.321,129.035c0-1.701,0.037-3.395,0.092-5.084c0.009-0.285,0.023-0.568,0.034-0.852c0.046-1.2,0.111-2.403,0.185-3.605
	c0.014-0.234,0.023-0.468,0.038-0.702c0.007-0.106,0.014-0.211,0.021-0.317c5.082-4.457,11.176-8.43,18.034-11.839
	c-0.614,7.259-0.937,14.74-0.937,22.399v3.634c-6.292,2.74-12.151,5.889-17.467,9.424L175.321,129.035L175.321,129.035z
	 M192.788,149.547v25.573c-6.292,2.74-12.151,5.889-17.467,9.424v-23.302C180.249,156.855,186.15,152.934,192.788,149.547z
	 M208.011,143.155c6.748-2.298,13.957-4.123,21.463-5.428v26.982c-7.442,1.16-14.627,2.789-21.463,4.85V143.155z M229.474,180.179
	v26.953c-7.416,1.127-14.601,2.705-21.463,4.697v-26.222C214.758,183.308,221.968,181.484,229.474,180.179z M285.814,180.407
	c7.532,1.373,14.741,3.269,21.464,5.644v25.94c-6.845-2.021-14.029-3.62-21.464-4.771V180.407z M285.814,164.985v-27.031
	c7.532,1.373,14.741,3.269,21.464,5.644v26.497C300.439,167.951,293.249,166.23,285.814,164.985z M322.501,150.238
	c6.694,3.556,12.597,7.674,17.467,12.282v23.02c-5.278-3.616-11.145-6.858-17.467-9.693V150.238z M312.369,44.356
	c-2.082-0.74-4.19-1.446-6.34-2.099c-1.517-3.358-3.124-6.551-4.814-9.567C305.126,36.109,308.857,40.005,312.369,44.356z
	 M214.073,32.691c-1.613,2.879-3.152,5.916-4.609,9.107c-2.036,0.593-4.036,1.234-6.013,1.904
	C206.806,39.614,210.358,35.937,214.073,32.691z M175.321,226.113c0-13.176,0-9.316,0-22.418
	c4.928-4.388,10.829-8.309,17.467-11.696v25.158C186.531,219.759,180.679,222.756,175.321,226.113z M208.011,227.731
	c6.773-2.207,13.966-3.959,21.463-5.201v26.723c-7.157,0.854-14.469,2.026-21.463,3.537V227.731z M208.011,294.735v-26.318
	c6.618-1.568,13.94-2.878,21.463-3.844v26.892C221.698,292.259,214.11,293.353,208.011,294.735z M244.697,290.3v-27.175
	c8.675-0.536,16.685-0.546,25.894,0.101v27.135C260.785,289.835,253.646,289.842,244.697,290.3z M307.278,295.459
	c-3.042-1.839-17.886-3.53-21.464-3.904v-26.717c7.541,1.064,14.846,2.494,21.464,4.212V295.459z M307.278,253.366
	c-6.771-1.604-14.031-2.923-21.464-3.902v-26.772c7.496,1.289,14.699,3.079,21.464,5.323V253.366z M322.501,217.419V192.69
	c6.694,3.556,12.597,7.674,17.467,12.282v21.588C334.614,223.13,328.762,220.074,322.501,217.419z"/>
<path style="fill:#9AB748;" d="M167.709,224.671l-23.366-29.168c-3.549-4.043-10.169-2.499-11.562,2.697
	c-49.933,186.224,39.28,243.532,90.414,300.869c12.648,14.182,28.037,12.902,36.025,12.902
	C289.864,360.713,167.709,224.671,167.709,224.671z"/>
<path style="fill:#8CA532;" d="M243.492,499.068C192.931,442.375,105.162,385.69,151.47,204.4l-7.127-8.897
	c-3.549-4.043-10.169-2.499-11.562,2.697c-49.933,186.224,39.28,243.532,90.414,300.869c12.648,14.182,28.037,12.902,36.025,12.902
	c0.145-0.714,0.263-1.426,0.401-2.139C254.247,508.053,248.643,504.843,243.492,499.068z"/>
<path style="fill:#9AB748;" d="M341.848,237.713c-45.763,66.058-82.01,104.136-92.93,149.876c-0.059,0.245-0.028,0.501,0.018,0.748
	c4.884,26.047,17.99,62.654,10.578,121.937c-0.111,0.888,0.515,1.696,1.41,1.696c11.549,0,20.602-4.391,27.14-11.663
	c48.751-54.224,131.37-115.121,98.213-369.943c-0.209-1.603-2.501-1.7-2.829-0.118C379.265,150.435,366.778,201.727,341.848,237.713
	z"/>
<g>
	<path style="fill:#8CA532;" d="M271.108,388.337c-0.047-0.248-0.077-0.503-0.019-0.748c10.92-45.74,47.167-83.818,92.93-149.876
		c11.854-17.111,20.89-37.68,27.563-56.724c-1.237-15.972-2.987-32.824-5.304-50.625c-0.209-1.603-2.501-1.7-2.829-0.118
		c-4.184,20.189-16.672,71.481-41.601,107.466c-45.763,66.058-82.01,104.136-92.93,149.876c-0.058,0.245-0.028,0.501,0.018,0.748
		c4.884,26.047,17.99,62.654,10.578,121.937c-0.111,0.888,0.515,1.696,1.41,1.696c8.442,0,15.544-2.355,21.312-6.457
		C288.386,449.023,275.859,413.679,271.108,388.337z"/>
	<path style="fill:#8CA532;" d="M271.323,489.686c-3.648,0-6.87-2.629-7.497-6.346c-0.246-1.462-5.501-36.477,41.09-96.585
		c13.465-17.373,25.237-35.1,34.989-52.692c2.038-3.676,6.67-5.006,10.347-2.967c3.676,2.038,5.005,6.671,2.967,10.347
		c-10.127,18.271-22.331,36.653-36.271,54.638c-41.866,54.013-38.16,84.434-38.111,84.726c0.699,4.146-2.094,8.072-6.239,8.772
		C272.17,489.651,271.743,489.686,271.323,489.686z"/>
</g>
<g>
</g>
<g>
</g>
<g>
</g>
<g>
</g>
<g>
</g>
<g>
</g>
<g>
</g>
<g>
</g>
<g>
</g>
<g>
</g>
<g>
</g>
<g>
</g>
<g>
</g>
<g>
</g>
<g>
</g>
</svg>
