<?xml version="1.0" encoding="iso-8859-1"?>
<!-- Generator: Adobe Illustrator 19.0.0, SVG Export Plug-In . SVG Version: 6.00 Build 0)  -->
<svg version="1.1" id="Capa_1" xmlns="http://www.w3.org/2000/svg" xmlns:xlink="http://www.w3.org/1999/xlink" x="0px" y="0px"
	 viewBox="0 0 512 512" style="enable-background:new 0 0 512 512;" xml:space="preserve">
<path style="fill:#30AA44;" d="M448.418,144.324c-18.595-57.743-47.72-91.915-48.012-92.254c-2.746-3.183-2.393-7.99,0.79-10.736
	c3.183-2.747,7.989-2.394,10.736,0.791c1.275,1.477,31.445,36.879,50.978,97.533c1.288,4.001-0.911,8.29-4.913,9.578
	C453.997,150.525,449.707,148.327,448.418,144.324z"/>
<path style="fill:#3BBC56;" d="M24.339,343.751c-11.95-1.788-18.289,13.761-8.333,20.609
	c39.833,27.397,88.081,43.439,140.081,43.439c139.781,0,252.496-115.857,247.351-256.752
	C337.728,282.772,172.514,365.92,24.339,343.751z"/>
<path style="fill:#30AA44;" d="M36.096,361.196c138.726,20.756,292.384-50.806,365.341-168.117
	c1.812-13.692,2.524-27.731,2.002-42.033c-65.711,131.726-230.925,214.874-379.1,192.705c-11.95-1.788-18.289,13.761-8.333,20.609
	c2.424,1.667,4.881,3.291,7.366,4.873C24.916,364.249,29.7,360.24,36.096,361.196z"/>
<path style="fill:#3BBC56;" d="M268.833,490.757c-10.347,6.24-5.319,22.261,6.717,21.19c48.155-4.283,95.555-22.68,135.62-55.829
	c107.698-89.106,120.688-250.223,26.907-355.499C471.421,244,397.132,413.382,268.833,490.757z"/>
<path style="fill:#30AA44;" d="M289.791,496.219c119.485-72.061,192.108-223.92,174.591-360.259
	c-7.574-12.308-16.329-24.142-26.304-35.34C471.421,244,397.13,413.382,268.833,490.758c-10.347,6.24-5.319,22.261,6.717,21.19
	c3.245-0.289,6.486-0.647,9.722-1.064C283.073,506.01,284.113,499.644,289.791,496.219z"/>
<g>
	<circle style="fill:#9BE0A3;" cx="121.66" cy="374.219" r="12.939"/>
	<circle style="fill:#9BE0A3;" cx="187.37" cy="367.649" r="18.445"/>
</g>
<path style="fill:#30AA44;" d="M71.828,371.509c0-9.837,4.529-18.614,11.612-24.368c-20.219,0.61-40.02-0.536-59.101-3.391
	c-11.95-1.788-18.289,13.761-8.333,20.609c21.17,14.561,44.718,25.915,69.943,33.357C77.444,392.102,71.828,382.464,71.828,371.509z
	"/>
<path style="fill:#269E35;" d="M16.006,364.359c1.252,0.861,2.514,1.709,3.782,2.547c0.638,0.421,1.282,0.833,1.924,1.248
	c0.554,0.359,1.106,0.719,1.662,1.073c1.545-4.981,6.328-8.988,12.722-8.032c12.079,1.807,24.273,2.899,36.516,3.337
	c1.581-6.958,5.471-13.038,10.826-17.39c-14.799,0.448-29.58-0.04-44.235-1.535c-0.158-0.016-0.317-0.028-0.475-0.045
	c-2.124-0.22-4.245-0.466-6.363-0.728c-0.298-0.037-0.598-0.066-0.896-0.104c-2.37-0.3-4.736-0.625-7.097-0.978
	c-0.011-0.002-0.021-0.003-0.032-0.004c-0.747-0.112-1.472-0.156-2.172-0.139c-6.654,0.165-11.095,5.868-11.085,11.659
	c0.001,0.61,0.051,1.22,0.153,1.825s0.256,1.205,0.465,1.793c0.104,0.294,0.222,0.585,0.354,0.872
	C12.846,361.486,14.14,363.075,16.006,364.359z"/>
<g>
	<circle style="fill:#9BE0A3;" cx="249.41" cy="345.259" r="18.901"/>
	<circle style="fill:#9BE0A3;" cx="304.58" cy="311.769" r="16.652"/>
</g>
<path style="fill:#30AA44;" d="M390.234,240.751c9.853-28.668,14.333-58.816,13.205-89.705
	c-12.027,24.11-27.838,47.331-46.989,68.884C371.76,216.032,386.944,225.713,390.234,240.751z"/>
<path style="fill:#269E35;" d="M403.592,159.69c-0.002-1.044,0.001-2.087-0.014-3.134c-0.027-1.801-0.071-3.604-0.136-5.409
	c-0.001-0.033-0.001-0.066-0.003-0.099c-0.905,1.815-1.839,3.623-2.787,5.427c-0.327,0.623-0.66,1.243-0.992,1.864
	c-0.619,1.158-1.247,2.313-1.883,3.467c-0.419,0.761-0.837,1.522-1.263,2.279c-0.528,0.937-1.069,1.871-1.608,2.805
	c-1.119,1.941-2.26,3.87-3.423,5.787c-0.172,0.283-0.34,0.567-0.513,0.849c-0.85,1.391-1.713,2.773-2.585,4.151
	c-0.035,0.055-0.07,0.111-0.105,0.166c-9.375,14.795-20.023,28.857-31.778,42.078c8.271-2.09,16.498-0.214,22.832,4.321
	c7.999-9.977,15.395-20.373,22.104-31.16c0.906-6.844,1.536-13.774,1.876-20.781c0-0.009,0.001-0.018,0.001-0.028
	c0.082-1.693,0.145-3.392,0.193-5.094c0.008-0.315,0.012-0.631,0.019-0.946c0.034-1.431,0.062-2.864,0.072-4.3
	C403.602,161.185,403.594,160.437,403.592,159.69z"/>
<g>
	<circle style="fill:#83CC8E;" cx="343.12" cy="274.269" r="11.217"/>
	<path style="fill:#83CC8E;" d="M129.017,374.218c0-3.028,1.048-5.806,2.79-8.01c-2.37-2.998-6.031-4.929-10.149-4.929
		c-7.146,0-12.939,5.793-12.939,12.939s5.793,12.939,12.939,12.939c4.119,0,7.78-1.931,10.149-4.929
		C130.064,380.024,129.017,377.246,129.017,374.218z"/>
	<path style="fill:#83CC8E;" d="M189.223,367.648c0-6.435,3.3-12.094,8.296-15.394c-2.912-1.924-6.398-3.051-10.149-3.051
		c-10.187,0-18.445,8.258-18.445,18.445s8.258,18.445,18.445,18.445c3.751,0,7.237-1.127,10.149-3.051
		C192.524,379.742,189.223,374.083,189.223,367.648z"/>
	<path style="fill:#83CC8E;" d="M250.807,345.257c0-6.699,3.495-12.571,8.752-15.927c-2.934-1.874-6.41-2.974-10.149-2.974
		c-10.439,0-18.901,8.462-18.901,18.901s8.462,18.901,18.901,18.901c3.739,0,7.215-1.1,10.149-2.974
		C254.303,357.828,250.807,351.957,250.807,345.257z"/>
	<path style="fill:#83CC8E;" d="M308.231,311.771c0-5.372,2.554-10.136,6.502-13.18c-2.811-2.168-6.324-3.471-10.149-3.471
		c-9.197,0-16.652,7.455-16.652,16.652c0,9.197,7.455,16.652,16.652,16.652c3.825,0,7.338-1.303,10.149-3.471
		C310.785,321.906,308.231,317.142,308.231,311.771z"/>
</g>
<path style="fill:#9BE0A3;" d="M457.007,258.168c8.844,0,10.522-12.718,1.93-14.976l-19.306-5.074
	c-0.946,4.963-2.001,9.935-3.161,14.911C456.667,258.337,455.665,258.168,457.007,258.168z"/>
<path style="fill:#83CC8E;" d="M439.63,238.118c-0.946,4.963-2.001,9.935-3.161,14.911c20.198,5.309,19.196,5.14,20.537,5.14
	c0.16,0,0.312-0.013,0.467-0.021c1.109-4.776,2.118-9.567,3.038-14.37c-0.481-0.236-1.004-0.435-1.575-0.585L439.63,238.118z"/>
<g>
	<path style="fill:#9BE0A3;" d="M471.392,327.397c-4.022-1.222-8.275,1.049-9.495,5.073c-1.222,4.022,1.049,8.273,5.072,9.495
		l19.789,6.009c1.691-4.794,3.229-9.632,4.619-14.508L471.392,327.397z"/>
	<path style="fill:#9BE0A3;" d="M411.8,367.771l-16.259-10.212c-2.509,4.446-5.09,8.818-7.739,13.117l15.901,9.987
		c3.559,2.235,8.258,1.162,10.494-2.398C416.434,374.706,415.36,370.007,411.8,367.771z"/>
</g>
<path style="fill:#83CC8E;" d="M411.8,367.771l-16.245-10.203c-2.498,4.421-5.074,8.797-7.738,13.118l15.886,9.978
	c0.553,0.348,1.136,0.606,1.731,0.796c2.65-4.15,5.223-8.351,7.718-12.6C412.751,368.457,412.303,368.087,411.8,367.771z"/>
<path style="fill:#9BE0A3;" d="M386.923,444.911c-3.243-2.677-8.041-2.215-10.716,1.027c-2.676,3.243-2.216,8.041,1.027,10.716
	l15.86,13.086c4.292-2.941,8.516-6.037,12.669-9.284L386.923,444.911z"/>
<path style="fill:#269E35;" d="M387.15,209.993c-5.7,0-9.405-6.092-6.725-11.168c15.664-30.104,30.697-102.219,11.671-189.593
	c-0.895-4.107,1.71-8.163,5.818-9.057c4.106-0.893,8.163,1.71,9.057,5.818c20.008,91.883,3.704,168.274-13.087,199.948
	C392.518,208.52,389.879,209.993,387.15,209.993z"/>
<g>
</g>
<g>
</g>
<g>
</g>
<g>
</g>
<g>
</g>
<g>
</g>
<g>
</g>
<g>
</g>
<g>
</g>
<g>
</g>
<g>
</g>
<g>
</g>
<g>
</g>
<g>
</g>
<g>
</g>
</svg>
