<?xml version="1.0" encoding="iso-8859-1"?>
<!-- Generator: Adobe Illustrator 19.0.0, SVG Export Plug-In . SVG Version: 6.00 Build 0)  -->
<svg version="1.1" id="Capa_1" xmlns="http://www.w3.org/2000/svg" xmlns:xlink="http://www.w3.org/1999/xlink" x="0px" y="0px"
	 viewBox="0 0 512 512" style="enable-background:new 0 0 512 512;" xml:space="preserve">
<path style="fill:#93603E;" d="M474.193,287.898c-2.494,0-4.942-1.205-6.431-3.435C394.059,174.171,395.109,95.77,395.19,92.486
	c0.105-4.266,3.645-7.61,7.914-7.535c4.262,0.106,7.633,3.642,7.535,7.903c-0.018,0.971-0.651,77.339,69.971,183.023
	c2.371,3.548,1.417,8.347-2.131,10.718C477.16,287.475,475.668,287.898,474.193,287.898z"/>
<path style="fill:#30AA44;" d="M417.13,255.489c-3.13-6.834-7.878-12.411-13.573-16.507c-6.564-24.095-6.401-53.952,5.528-90.797
	c0.458-1.416,1.808-2.361,3.295-2.314c0.016,0.001,0.032,0.001,0.048,0.002c1.524,0.048,3.011,0.424,4.368,1.118
	c23.978,12.259,107.35,63.367,93.705,175.755c-0.669,5.515-6.212,9.046-11.483,7.291c-17.608-5.865-54.501-21.463-78.164-54.633
	C421.258,268.773,420.09,261.951,417.13,255.489z"/>
<path style="fill:#269E35;" d="M441.459,275.404c-10.488-12.754-17.297-36.421-17.297-36.421
	c-6.254-22.959-6.393-51.155,3.927-85.637c-4.471-2.736-8.335-4.842-11.293-6.355c-1.357-0.694-2.844-1.069-4.368-1.118
	c-0.016-0.001-0.032-0.001-0.048-0.002c-1.487-0.047-2.836,0.898-3.295,2.314c-11.929,36.845-12.092,66.702-5.528,90.797
	c5.695,4.096,10.443,9.673,13.573,16.507c2.959,6.461,4.128,13.284,3.724,19.914c23.663,33.17,60.556,48.768,78.164,54.633
	c4.045,1.347,8.239-0.424,10.28-3.81C490.02,318.447,461.159,303.019,441.459,275.404z"/>
<path style="fill:#3BBC56;" d="M420.137,148.755c-1.044-0.567-2.02-1.081-2.919-1.545c-0.023-0.012-0.046-0.024-0.069-0.036
	c-0.137-0.071-0.26-0.132-0.394-0.2c-1.346-0.681-2.818-1.052-4.327-1.1c-0.016-0.001-0.032-0.001-0.048-0.002
	c-1.41-0.045-2.686,0.808-3.206,2.102c-1.028,3.172-1.99,6.304-2.849,9.374c9.684,32.959,27.748,76.702,61.436,127.115
	c1.49,2.229,3.937,3.435,6.431,3.435c1.475,0,2.967-0.423,4.286-1.303c3.548-2.371,4.502-7.169,2.131-10.718
	C446.605,224.989,429.124,180.904,420.137,148.755z"/>
<path style="fill:#30AA44;" d="M411.615,145.947c-0.093,0.019-0.187,0.034-0.277,0.06c-0.105,0.031-0.206,0.073-0.308,0.115
	c-0.055,0.022-0.112,0.04-0.166,0.065c-0.122,0.057-0.238,0.125-0.352,0.196c-0.027,0.017-0.056,0.031-0.082,0.049
	c-0.128,0.085-0.25,0.18-0.365,0.282c-0.008,0.007-0.017,0.014-0.026,0.021c-0.372,0.336-0.672,0.758-0.867,1.241
	c-1.028,3.172-1.99,6.304-2.849,9.374c3.433,11.685,7.927,24.731,13.789,38.943c0.598-9.845,2.175-20.359,4.898-31.582
	c-1.854-5.597-3.469-10.922-4.876-15.954c-1.044-0.567-2.02-1.081-2.919-1.545c-0.023-0.012-0.046-0.024-0.069-0.036
	c-0.137-0.071-0.26-0.132-0.394-0.2c-1.009-0.51-2.089-0.846-3.202-1.003c-0.372-0.052-0.748-0.085-1.125-0.097
	c-0.016-0.001-0.032-0.001-0.048-0.002c-0.181-0.006-0.359,0.004-0.534,0.027C411.768,145.909,411.692,145.931,411.615,145.947z"/>
<path style="fill:#93603E;" d="M396.686,138.97c18.042-42.445,17.373-76.01,17.336-77.417c-0.113-4.267-3.673-7.657-7.929-7.52
	c-4.266,0.113-7.632,3.662-7.52,7.928c0.009,0.312,0.631,31.579-16.11,70.964c-5.525,12.998-13.4,27.8-24.589,43.029
	c-24.71,12.837-43.768,7.686-44.663,7.43c-4.076-1.194-8.357,1.121-9.579,5.193c-1.226,4.088,1.093,8.395,5.18,9.621
	c0.5,0.15,6.328,1.832,15.608,1.832c4.123,0,8.935-0.341,14.255-1.287c-19.33,20.115-45.212,39.787-79.844,55.89
	c-21.583,10.036-40.918,19.584-58.354,28.833c-0.224,0.105-0.444,0.223-0.66,0.351c-27.913,14.836-50.938,28.909-70.449,42.993
	c-0.089,0.064-0.174,0.129-0.262,0.193c-8.179,4.425-31.898,15.612-58.854,13.238c-4.247-0.369-8,2.771-8.373,7.023
	c-0.373,4.251,2.771,7.999,7.022,8.373c3.033,0.266,6.017,0.388,8.952,0.388c6.048,0,11.857-0.53,17.343-1.395
	c-17.804,16.507-32.499,34.005-45.006,53.466c-2.307,3.59-1.267,8.371,2.323,10.678c1.293,0.831,2.74,1.227,4.17,1.227
	c2.541,0,5.031-1.254,6.507-3.551c18.097-28.16,40.973-52.295,73.439-75.931c2.24-1.227,3.579-2.069,3.828-2.229
	c0.858-0.549,1.566-1.243,2.123-2.024c9.213-6.461,19.164-12.9,29.96-19.391c-14.26,21.157-30.126,51.641-35.482,87.957
	c-0.622,4.223,2.295,8.149,6.517,8.772c0.382,0.056,0.762,0.083,1.137,0.083c3.768,0,7.068-2.761,7.635-6.6
	c8.853-60.027,50.187-104.317,56.096-110.383c17.146-9.062,36.03-18.355,56.902-28.06c34.594-16.086,63.944-36.926,87.233-61.944
	c1.254-1.347,2.488-2.708,3.706-4.079c-0.734,20.346,5.682,32.603,6.085,33.347c1.403,2.592,4.079,4.072,6.836,4.072
	c1.237,0,2.49-0.298,3.651-0.926c3.753-2.031,5.164-6.694,3.133-10.446c-0.449-0.862-10.755-21.372,1.989-54.515
	C385.221,162.981,391.475,151.229,396.686,138.97z"/>
<circle style="fill:#EA473B;" cx="379.12" cy="272.62" r="41.808"/>
<circle style="fill:#EA4E4E;" cx="304.09" cy="290.33" r="33.785"/>
<circle style="fill:#EA473B;" cx="236.78" cy="327.75" r="39.525"/>
<circle style="fill:#F76A66;" cx="277.34" cy="193.11" r="33.785"/>
<circle style="fill:#EA4E4E;" cx="179.69" cy="375.56" r="26.03"/>
<circle style="fill:#EA473B;" cx="144.28" cy="431.94" r="26.03"/>
<circle style="fill:#F76A66;" cx="133.25" cy="366.31" r="20.475"/>
<circle style="fill:#EA473B;" cx="138.49" cy="298.86" r="24.04"/>
<circle style="fill:#EA4E4E;" cx="41.725" cy="431.94" r="24.04"/>
<circle style="fill:#F76A66;" cx="90.07" cy="407.31" r="24.04"/>
<circle style="fill:#EA473B;" cx="33.793" cy="346.88" r="33.785"/>
<path style="fill:#DD332F;" d="M361.713,290.032c-9.615-20.993-0.391-45.805,20.601-55.42c2.329-1.067,4.707-1.889,7.104-2.501
	c-8.934-2.277-18.674-1.637-27.709,2.501c-20.992,9.615-30.216,34.427-20.601,55.42c8.548,18.664,29.107,28.011,48.316,23.103
	C377.6,310.121,367.19,301.99,361.713,290.032z"/>
<path style="fill:#DD4747;" d="M293.975,304.403c-7.77-16.964-0.316-37.016,16.648-44.785c1.243-0.569,2.504-1.047,3.774-1.455
	c-7.744-2.484-16.402-2.198-24.379,1.455c-16.964,7.77-24.418,27.821-16.648,44.785c7.2,15.721,24.947,23.265,41.011,18.103
	C305.656,319.708,298.091,313.391,293.975,304.403z"/>
<path style="fill:#DD332F;" d="M221.447,344.211c-9.09-19.847-0.37-43.304,19.477-52.394c2.021-0.926,4.081-1.657,6.158-2.22
	c-8.599-2.327-18.031-1.779-26.763,2.22c-19.847,9.09-28.567,32.548-19.477,52.394c8.164,17.825,27.917,26.665,46.236,21.697
	C236.134,362.947,226.537,355.325,221.447,344.211z"/>
<path style="fill:#EA4E4E;" d="M267.229,207.182c-7.77-16.964-0.316-37.016,16.648-44.786c1.243-0.569,2.504-1.047,3.774-1.455
	c-7.744-2.484-16.402-2.198-24.379,1.455c-16.964,7.77-24.418,27.821-16.648,44.786c7.2,15.721,24.947,23.265,41.011,18.103
	C278.909,222.486,271.345,216.169,267.229,207.182z"/>
<path style="fill:#DD4747;" d="M176.625,386.401c-5.986-13.07-0.243-28.518,12.827-34.504c0.181-0.083,0.363-0.155,0.545-0.233
	c-6.528-2.814-14.177-2.96-21.149,0.233c-13.07,5.986-18.813,21.434-12.827,34.504c5.904,12.889,21.008,18.644,33.96,13.059
	C184.271,396.999,179.418,392.498,176.625,386.401z"/>
<path style="fill:#DD332F;" d="M141.222,442.774c-5.986-13.07-0.244-28.518,12.826-34.504c0.181-0.083,0.363-0.155,0.545-0.233
	c-6.529-2.814-14.177-2.96-21.15,0.233c-13.07,5.986-18.813,21.434-12.826,34.504c5.903,12.889,21.008,18.644,33.96,13.059
	C148.867,453.372,144.015,448.871,141.222,442.774z"/>
<path style="fill:#EA4E4E;" d="M135.239,374.833c-4.426-9.663-0.699-20.975,8.301-26.21c-5.555-3.226-12.532-3.809-18.817-0.931
	c-10.281,4.709-14.798,16.86-10.089,27.141c4.709,10.281,16.86,14.798,27.141,10.089c0.618-0.283,1.213-0.596,1.789-0.931
	C140.031,381.94,137.069,378.828,135.239,374.833z"/>
<path style="fill:#DD332F;" d="M137.24,308.87c-5.484-11.974-0.307-26.104,11.558-31.728c-6.195-2.936-13.595-3.219-20.316-0.141
	c-12.072,5.529-17.376,19.797-11.847,31.869s19.797,17.376,31.869,11.847c0.098-0.045,0.191-0.095,0.288-0.141
	C143.86,318.238,139.69,314.221,137.24,308.87z"/>
<path style="fill:#DD4747;" d="M40.471,441.946c-5.484-11.974-0.307-26.104,11.558-31.728c-6.195-2.936-13.595-3.219-20.316-0.141
	c-12.072,5.529-17.376,19.798-11.847,31.869s19.797,17.376,31.869,11.847c0.098-0.045,0.191-0.095,0.288-0.141
	C47.092,451.315,42.922,447.297,40.471,441.946z"/>
<path style="fill:#EA4E4E;" d="M88.818,417.323c-5.484-11.974-0.307-26.104,11.558-31.728c-6.195-2.936-13.596-3.219-20.316-0.141
	c-12.072,5.529-17.376,19.798-11.847,31.869c5.529,12.072,19.798,17.376,31.869,11.847c0.098-0.045,0.191-0.095,0.288-0.141
	C95.438,426.691,91.269,422.674,88.818,417.323z"/>
<path style="fill:#DD332F;" d="M23.682,360.954c-7.77-16.964-0.316-37.015,16.648-44.785c1.243-0.569,2.504-1.047,3.774-1.455
	c-7.744-2.484-16.402-2.198-24.379,1.455c-16.964,7.77-24.418,27.821-16.648,44.785c7.201,15.721,24.947,23.265,41.011,18.103
	C35.362,376.258,27.798,369.942,23.682,360.954z"/>
<g>
</g>
<g>
</g>
<g>
</g>
<g>
</g>
<g>
</g>
<g>
</g>
<g>
</g>
<g>
</g>
<g>
</g>
<g>
</g>
<g>
</g>
<g>
</g>
<g>
</g>
<g>
</g>
<g>
</g>
</svg>
