<?xml version="1.0" encoding="iso-8859-1"?>
<!-- Generator: Adobe Illustrator 19.0.0, SVG Export Plug-In . SVG Version: 6.00 Build 0)  -->
<svg version="1.1" id="Capa_1" xmlns="http://www.w3.org/2000/svg" xmlns:xlink="http://www.w3.org/1999/xlink" x="0px" y="0px"
	 viewBox="0 0 512 512" style="enable-background:new 0 0 512 512;" xml:space="preserve">
<path style="fill:#CC9A5E;" d="M145.352,144.356c8.635-1.203,17.482-1.83,26.491-1.83s17.855,0.627,26.49,1.83
	c2.665-14.835,8.518-44,19.086-62.006c1.233-2.101-1.115-4.491-3.259-3.334l-14.936,8.058c-5.384,2.905-12.103,0.898-15.013-4.484
	l-9.628-17.812c-1.178-2.179-4.303-2.179-5.481,0l-9.628,17.812c-2.91,5.382-9.629,7.389-15.013,4.484l-14.936-8.058
	c-2.145-1.157-4.492,1.233-3.259,3.334C136.834,100.356,142.687,129.521,145.352,144.356z"/>
<path style="fill:#B78855;" d="M146.378,87.881c-0.651-0.207-1.293-0.47-1.916-0.806l-14.936-8.058
	c-2.145-1.157-4.492,1.233-3.259,3.334c10.568,18.006,16.421,47.17,19.085,62.005c5.544-0.772,11.177-1.304,16.883-1.588
	C159.728,129.051,154.776,105.191,146.378,87.881z"/>
<ellipse style="fill:#EA473B;" cx="171.84" cy="294.146" rx="171.84" ry="154.71"/>
<path style="fill:#DD332F;" d="M21.764,294.142c0-82.15,71.126-149.333,160.961-154.389c-3.6-0.202-7.226-0.318-10.882-0.318
	C76.937,139.435,0,208.7,0,294.142s76.937,154.706,171.843,154.706c3.656,0,7.282-0.115,10.882-0.318
	C92.891,443.475,21.764,376.292,21.764,294.142z"/>
<ellipse style="fill:#F7E9A9;" cx="340.16" cy="294.146" rx="171.84" ry="154.71"/>
<path style="fill:#EAD992;" d="M188.986,294.142c0-82.317,71.414-149.607,161.507-154.42c-3.42-0.183-6.865-0.286-10.336-0.286
	c-94.906,0-171.843,69.264-171.843,154.706s76.937,154.706,171.843,154.706c3.472,0,6.916-0.104,10.336-0.286
	C260.401,443.748,188.986,376.458,188.986,294.142z"/>
<path style="fill:#EA473B;" d="M313.706,225.522c0-20.928-22.783-34.144-40.787-23.474c-73.569,43.597-73.525,140.616,0,184.186
	c18.005,10.67,40.787-2.546,40.787-23.474V225.522z"/>
<path style="fill:#DD332F;" d="M293.526,386.235c-73.524-43.571-73.569-140.589,0-184.186c1.099-0.651,2.216-1.21,3.344-1.687
	c-7.374-3.073-16.115-2.957-23.951,1.687c-73.569,43.597-73.525,140.615,0,184.186c7.837,4.644,16.577,4.76,23.951,1.687
	C295.742,387.445,294.624,386.886,293.526,386.235z"/>
<path style="fill:#EA473B;" d="M366.61,225.522c0-20.928,22.783-34.144,40.787-23.474c73.569,43.597,73.525,140.616,0,184.186
	c-18.005,10.67-40.787-2.546-40.787-23.474V225.522z"/>
<path style="fill:#DD332F;" d="M387.561,362.761V225.522c0-11.745,7.176-21.058,16.655-25.087
	c-17.394-7.487-37.605,5.374-37.605,25.087V362.76c0,19.713,20.212,32.574,37.605,25.087
	C394.736,383.819,387.561,374.505,387.561,362.761z"/>
<g>
	<path style="fill:#F76A66;" d="M396.852,255.265c-0.422-0.279-0.814-0.598-1.174-0.959c-0.351-0.35-0.68-0.752-0.958-1.174
		s-0.515-0.865-0.711-1.329c-0.196-0.474-0.34-0.958-0.443-1.453c-0.103-0.494-0.144-0.999-0.144-1.504s0.041-1.02,0.144-1.514
		c0.103-0.495,0.247-0.979,0.443-1.443c0.196-0.474,0.433-0.917,0.711-1.339s0.608-0.814,0.958-1.174
		c0.36-0.35,0.752-0.68,1.174-0.959c0.423-0.278,0.866-0.515,1.34-0.71c0.463-0.196,0.948-0.34,1.442-0.443
		c0.999-0.196,2.019-0.196,3.019,0c0.494,0.103,0.978,0.246,1.442,0.443c0.474,0.195,0.917,0.433,1.339,0.71
		c0.423,0.279,0.814,0.609,1.175,0.959c0.361,0.36,0.68,0.752,0.958,1.174c0.278,0.423,0.515,0.865,0.711,1.339
		c0.196,0.464,0.34,0.948,0.443,1.443c0.103,0.494,0.154,1.009,0.154,1.514C408.875,254.915,402.099,258.713,396.852,255.265z"/>
	<path style="fill:#F76A66;" d="M394.008,293.497c2.675-6.327,11.59-6.335,14.269,0c1.648,3.99-0.259,8.473-4.183,10.097
		c-0.464,0.195-0.948,0.339-1.442,0.443C396.417,305.204,391.703,299.078,394.008,293.497z"/>
	<path style="fill:#F76A66;" d="M393.421,344.072c0-3.77,2.734-6.922,6.213-7.573c4.695-0.969,9.241,2.652,9.241,7.573
		c0,3.824-2.809,6.933-6.222,7.572C397.997,352.61,393.421,349.007,393.421,344.072z"/>
	<path style="fill:#F76A66;" d="M421.392,278.116c-0.763-0.784-1.297-1.61-1.669-2.514c-0.404-1.006-0.587-1.998-0.587-2.956
		c0-0.937,0.181-1.932,0.587-2.947c0.374-0.907,0.906-1.729,1.669-2.514c2.052-2.039,5.353-2.941,8.427-1.668
		c0.983,0.414,1.823,0.988,2.504,1.668c0.767,0.768,1.353,1.708,1.669,2.514c0.41,0.973,0.598,2.002,0.598,2.947
		c0,0.968-0.191,1.993-0.598,2.956c-0.316,0.809-0.905,1.751-1.669,2.514c-0.694,0.694-1.532,1.258-2.504,1.669
		c-0.474,0.195-0.958,0.34-1.452,0.443C425.654,280.735,423.111,279.821,421.392,278.116z"/>
	<path style="fill:#F76A66;" d="M419.723,317.306c1.955-4.633,7.508-6.102,11.425-3.462c4.009,2.644,4.655,8.424,1.175,11.879
		C426.511,331.578,416.578,325.336,419.723,317.306z"/>
	<path style="fill:#F76A66;" d="M274.005,254.306c-0.668-0.649-1.262-1.515-1.679-2.503c-0.407-1.039-0.588-2.012-0.588-2.957
		c0-0.978,0.192-1.967,0.588-2.957c0.386-0.936,0.941-1.776,1.679-2.513c2.055-2.056,5.366-2.932,8.417-1.669
		c0.914,0.385,1.771,0.938,2.504,1.669c0.769,0.769,1.357,1.715,1.669,2.513c0.366,0.868,0.598,1.905,0.598,2.957
		c0,1.03-0.224,2.053-0.598,2.957c-0.328,0.823-0.959,1.813-1.669,2.503c-0.691,0.712-1.683,1.341-2.504,1.669
		c-0.474,0.196-0.958,0.34-1.453,0.444C278.479,256.936,275.815,256.129,274.005,254.306z"/>
	<path style="fill:#F76A66;" d="M273.995,301.925c-0.768-0.792-1.297-1.614-1.669-2.514c-0.396-0.936-0.588-1.949-0.588-2.957
		c0-1.031,0.204-2.032,0.588-2.957c0.383-0.906,0.909-1.722,1.669-2.503c3.045-3.045,7.963-2.99,10.931,0
		c0.761,0.761,1.347,1.699,1.669,2.503c0.375,0.908,0.598,1.928,0.598,2.957c0,1.049-0.229,2.083-0.598,2.957
		c-0.311,0.797-0.897,1.741-1.669,2.514C281.947,304.903,277.045,304.951,273.995,301.925z"/>
	<path style="fill:#F76A66;" d="M277.951,351.644c-0.855-0.16-1.883-0.553-2.771-1.154c-0.91-0.583-1.569-1.292-2.143-2.133
		c-0.547-0.809-0.938-1.748-1.154-2.781c-0.509-2.72,0.417-5.269,2.112-6.965c0.68-0.679,1.508-1.253,2.514-1.679
		c1.531-0.611,3.047-0.727,4.461-0.433c0.927,0.174,1.942,0.576,2.782,1.144c0.903,0.615,1.599,1.323,2.132,2.132
		c0.548,0.833,0.934,1.73,1.154,2.782c0.209,1.025,0.203,2.046,0,3.019c-0.206,0.986-0.575,1.925-1.154,2.781
		c-0.547,0.831-1.235,1.543-2.132,2.133c-0.905,0.612-1.939,0.996-2.782,1.154C279.973,351.851,278.966,351.851,277.951,351.644z"/>
	<path style="fill:#F76A66;" d="M252.236,280.227c-0.943-0.196-1.882-0.561-2.782-1.154c-0.788-0.518-1.568-1.275-2.132-2.132
		c-0.559-0.849-0.942-1.766-1.154-2.782c-0.188-1.003-0.196-1.971,0-3.018c0.202-0.971,0.569-1.893,1.154-2.782
		c0.533-0.81,1.288-1.576,2.132-2.133c0.926-0.609,1.859-0.961,2.782-1.154c1.545-0.319,3.112-0.128,4.461,0.444
		c1.025,0.422,1.802,0.976,2.514,1.668c0.695,0.717,1.246,1.491,1.669,2.514c0.361,0.857,0.598,1.897,0.598,2.947
		c0,1.044-0.228,2.082-0.598,2.956c-0.423,1.026-0.977,1.802-1.669,2.514c-0.711,0.69-1.484,1.243-2.514,1.669
		c-0.463,0.195-0.948,0.34-1.442,0.443C254.189,280.427,253.228,280.413,252.236,280.227z"/>
	<path style="fill:#F76A66;" d="M252.236,327.835c-0.902-0.169-1.868-0.542-2.782-1.143c-0.939-0.642-1.657-1.403-2.132-2.143
		c-0.595-0.883-0.95-1.815-1.154-2.772c-0.189-1.032-0.195-1.976,0-3.018c0.205-0.986,0.574-1.921,1.154-2.782
		c0.549-0.833,1.275-1.567,2.132-2.133c0.924-0.607,1.916-0.99,2.782-1.154c1.523-0.313,3.084-0.139,4.461,0.444
		c0.805,0.314,1.749,0.902,2.514,1.669c0.682,0.682,1.253,1.518,1.669,2.503c0.373,0.904,0.598,1.927,0.598,2.957
		c0,2.039-0.824,4.028-2.266,5.46C257.383,327.551,254.717,328.355,252.236,327.835z"/>
</g>
<g>
</g>
<g>
</g>
<g>
</g>
<g>
</g>
<g>
</g>
<g>
</g>
<g>
</g>
<g>
</g>
<g>
</g>
<g>
</g>
<g>
</g>
<g>
</g>
<g>
</g>
<g>
</g>
<g>
</g>
</svg>
