<?xml version="1.0" encoding="iso-8859-1"?>
<!-- Generator: Adobe Illustrator 19.0.0, SVG Export Plug-In . SVG Version: 6.00 Build 0)  -->
<svg version="1.1" id="Capa_1" xmlns="http://www.w3.org/2000/svg" xmlns:xlink="http://www.w3.org/1999/xlink" x="0px" y="0px"
	 viewBox="0 0 512 512" style="enable-background:new 0 0 512 512;" xml:space="preserve">
<path style="fill:#3BBC56;" d="M265.516,2.769c-5.994-3.692-13.151-3.692-19.144,0c-31.775,19.58-56.573,54.048-65.749,97.197
	c16.034,7.654,29.5,18.411,40.873,31.664c7.702-7.82,15.892-14.554,25.415-20.422c5.657-3.486,12.411-3.485,18.066,0
	c9.517,5.865,17.708,12.597,25.415,20.422c12.311-14.346,26.068-24.596,40.873-31.664C322.09,56.821,297.293,22.351,265.516,2.769z"
	/>
<path style="fill:#30AA44;" d="M206.306,102.564c-3.045-1.637-4.593-5.163-3.753-8.516c10.031-40.063,33.7-72.088,63.671-90.829
	c-0.237-0.148-0.47-0.303-0.708-0.45c-5.994-3.692-13.151-3.692-19.144,0c-31.774,19.58-56.572,54.048-65.749,97.197
	c16.034,7.654,29.5,18.411,40.873,31.664c3.528-3.582,7.166-6.925,10.98-10.072C224.655,114.143,215.973,107.76,206.306,102.564z"/>
<path style="fill:#3BBC56;" d="M369.195,96.197c-3.65-4.505-9.211-6.458-14.874-5.219c-23.004,5.017-46.079,18.248-64.654,39.918
	c16.882,17.137,29.154,38.131,36.419,60.983l0.036,0.092l0.48-0.195l0.226,0.41c20.53-11.324,43.804-16.547,67.316-15.079
	l0.526,0.033l0.019-0.527C395.803,146.417,386.749,117.857,369.195,96.197z"/>
<path style="fill:#30AA44;" d="M313.225,127.234c15.6-16.925,34.032-28.215,52.799-33.995c-3.352-2.337-7.498-3.181-11.702-2.261
	c-23.004,5.017-46.079,18.248-64.654,39.918c16.882,17.137,29.154,38.131,36.419,60.983l0.036,0.092l0.48-0.195l0.226,0.41
	c5.48-3.023,11.161-5.596,16.984-7.739c-6.892-18.491-17.151-35.574-30.571-50.12C311.396,132.326,311.38,129.236,313.225,127.234z"
	/>
<path style="fill:#3BBC56;" d="M157.567,90.977c-5.664-1.239-11.223,0.715-14.874,5.219c-16.916,20.873-26.635,48.903-25.475,80.943
	c25.019-1.576,47.973,4.066,68.39,15.349c7.643-24.063,19.989-44.693,36.612-61.593C203.961,109.559,180.937,96.074,157.567,90.977z
	"/>
<path style="fill:#30AA44;" d="M163.253,98.253c1.5-1.851,3.327-3.264,5.347-4.209c-3.658-1.222-7.34-2.261-11.033-3.067
	c-5.664-1.239-11.223,0.715-14.874,5.219c-16.916,20.873-26.635,48.903-25.475,80.943c7.006-0.441,13.845-0.297,20.517,0.359
	C136.973,146.167,146.637,118.756,163.253,98.253z"/>
<g>
	<path style="fill:#3BBC56;" d="M419.652,188.105c-2.636-5.819-7.979-9.872-14.293-10.841c-27.042-4.151-55.106,0.827-79.026,14.022
		l-0.369,0.204l0.128,0.402c18.215,57.315,4.873,126.006-43.137,168.912c5.878,2.26,17.514,2.814,23.642,2.813
		C396.484,363.614,457.007,270.566,419.652,188.105z"/>
	<path style="fill:#3BBC56;" d="M185.925,191.49c-24.644-13.613-52.677-18.328-79.396-14.226
		c-6.314,0.97-11.657,5.023-14.293,10.841c-18.851,41.613-13.438,90.04,14.127,126.382c40.231,53.043,104.966,53.084,122.572,46.316
		C181.712,318.601,167.153,250.613,185.925,191.49z"/>
	<path style="fill:#3BBC56;" d="M419.652,188.105c-2.636-5.819-7.979-9.872-14.293-10.841c-27.042-4.151-55.106,0.827-79.026,14.022
		l-0.369,0.204l0.128,0.402c18.215,57.315,4.873,126.006-43.137,168.912c5.878,2.26,17.514,2.814,23.642,2.813
		C396.484,363.614,457.007,270.566,419.652,188.105z"/>
</g>
<g>
	<path style="fill:#30AA44;" d="M316.657,363.182c-5.501-0.449-8.004-7.053-4.216-11.066
		c40.685-43.104,51.522-105.743,34.491-159.331l0,0c-0.237-0.753,0.091-1.568,0.783-1.947l0.314-0.171
		c15.396-8.493,31.375-12.941,48.827-14.382c-24.358-2.019-49.102,3.185-70.524,15.001l-0.369,0.204l0.128,0.402
		c18.215,57.315,4.873,126.006-43.137,168.912c5.878,2.259,17.514,2.814,23.642,2.813c3.45,0,6.85-0.153,10.209-0.422
		L316.657,363.182z"/>
	<path style="fill:#30AA44;" d="M126.923,314.488c-27.565-36.342-32.978-84.769-14.127-126.382
		c2.636-5.819,7.98-9.872,14.293-10.841c2.828-0.434,5.673-0.748,8.526-0.984c-9.72-0.806-19.487-0.49-29.086,0.984
		c-6.314,0.97-11.657,5.023-14.293,10.841c-18.851,41.613-13.438,90.04,14.127,126.382c33.528,44.205,84.069,51.596,110.172,48.916
		C189.375,360.98,153.002,348.872,126.923,314.488z"/>
</g>
<path style="fill:#3BBC56;" d="M309.92,440.641l-24.047-79.919c-0.326-0.097-0.649-0.192-0.969-0.297
	c0.003-0.002,0.685-0.631,0.688-0.633l-0.351-1.172c-17.848,14.543-41.551,13.887-58.594,0l-0.351,1.172
	c0.023,0.021,0.666,0.613,0.688,0.634c-0.326,0.105-0.641,0.198-0.969,0.296l-23.763,78.975
	c-5.161,17.152-1.992,35.232,8.694,49.608c22.586,30.382,68.282,30.04,90.395,0.295C311.886,475.413,315.014,457.569,309.92,440.641
	z"/>
<path style="fill:#30AA44;" d="M231.506,489.305c-10.686-14.375-13.855-32.456-8.694-49.608l21.643-71.93
	c-6.339-1.681-12.409-4.748-17.808-9.147l-0.351,1.172c0.023,0.021,0.666,0.613,0.688,0.634c-0.326,0.105-0.641,0.198-0.969,0.296
	l-23.763,78.975c-5.161,17.152-1.992,35.232,8.694,49.608c13.577,18.263,35.501,25.409,55.637,21.755
	C253.191,508.63,240.51,501.417,231.506,489.305z"/>
<path style="fill:#3BBC56;" d="M265.515,110.333c-5.814-3.582-13.328-3.582-19.143,0c-81.814,50.414-93.532,178.367-22.865,246.858
	c18.188,17.628,46.684,17.629,64.874,0C359.151,288.601,347.193,160.663,265.515,110.333z"/>
<path style="fill:#30AA44;" d="M244.067,357.191c-70.46-68.29-59.008-195.688,22.157-246.405c-0.238-0.149-0.469-0.306-0.709-0.453
	c-5.814-3.582-13.328-3.582-19.143,0c-81.814,50.414-93.532,178.367-22.865,246.858c11.782,11.419,27.888,15.432,42.717,12.056
	C258.161,367.412,250.474,363.4,244.067,357.191z"/>
<g>
</g>
<g>
</g>
<g>
</g>
<g>
</g>
<g>
</g>
<g>
</g>
<g>
</g>
<g>
</g>
<g>
</g>
<g>
</g>
<g>
</g>
<g>
</g>
<g>
</g>
<g>
</g>
<g>
</g>
</svg>
