<?xml version="1.0" encoding="iso-8859-1"?>
<!-- Generator: Adobe Illustrator 19.0.0, SVG Export Plug-In . SVG Version: 6.00 Build 0)  -->
<svg version="1.1" id="Capa_1" xmlns="http://www.w3.org/2000/svg" xmlns:xlink="http://www.w3.org/1999/xlink" x="0px" y="0px"
	 viewBox="0 0 512.001 512.001" style="enable-background:new 0 0 512.001 512.001;" xml:space="preserve">
<path style="fill:#9AB748;" d="M235.68,96.105c12.441-1.685,25.487-2.061,38.061-0.62c-1.555-8.783-2.202-20.682-0.543-27.13
	c3.687-14.338,19.911-36.009-8.39-67.904c-0.935-1.054-2.673-0.098-2.259,1.249c3.11,10.111,4.099,31-18.511,64.697
	C238.943,73.989,236.413,86.209,235.68,96.105z"/>
<path style="fill:#8CA532;" d="M264.358,66.396c8.524-12.704,13.692-23.586,16.658-32.758c-0.801-9.586-5.029-20.589-16.209-33.188
	c-0.935-1.054-2.673-0.099-2.259,1.249c3.11,10.111,4.099,31-18.511,64.697c-5.095,7.593-7.625,19.812-8.358,29.709
	c6.696-0.907,13.568-1.419,20.446-1.488C256.993,85.008,259.516,73.614,264.358,66.396z"/>
<ellipse style="fill:#3BBC56;" cx="256" cy="301.811" rx="177.21" ry="210.19"/>
<g>
	<path style="fill:#30AA44;" d="M99.394,301.816c0-111.979,73.834-203.493,166.909-209.823c-3.41-0.232-6.843-0.362-10.302-0.362
		c-97.871,0-177.211,94.103-177.211,210.185S158.129,512.001,256,512.001c3.459,0,6.892-0.131,10.302-0.362
		C173.227,505.309,99.394,413.795,99.394,301.816z"/>
	<path style="fill:#30AA44;" d="M190.07,106.671c-20.198,9.609-38.556,23.501-54.279,40.729c-0.507,4.808-0.693,9.999-0.412,15.608
		c2.021,40.421-12.8,49.853-6.737,70.063c6.063,20.211-20.884,47.832-14.147,80.169s-19.986,46.035-1.09,71.411
		c10.847,14.567-3.177,23.354,10.297,46.933c2.384,4.172,3.838,10.022,5.338,16.847c12.254,14.926,26.358,27.701,41.881,37.797
		c-4.439-8.023-7.851-16.383-7.247-22.42c3.032-30.316-16.194-33.205-14.547-49.513c3.095-30.655-14.421-53.224-4.989-80.171
		c9.431-26.947,4.512-63.326,20.445-90.948c15.933-27.621-3.807-51.2,0-68.716C168.236,157.649,165.298,135.248,190.07,106.671z"/>
</g>
<g>
	<path style="fill:#269E35;" d="M163.675,463.779c-19.111-18.764-34.848-42.189-45.965-68.813
		c1.189,9.668-4.062,19.026,5.991,36.618c2.384,4.172,3.838,10.022,5.338,16.847c0.003,0.003,0.005,0.006,0.007,0.009
		c3.033,3.694,6.18,7.255,9.433,10.677c0.055,0.058,0.111,0.117,0.166,0.175c3.18,3.337,6.463,6.539,9.84,9.602
		c0.134,0.121,0.266,0.243,0.4,0.363c0.758,0.683,1.52,1.358,2.288,2.027c0.196,0.171,0.394,0.341,0.591,0.511
		c2.401,2.076,4.848,4.081,7.338,6.014c0.187,0.145,0.373,0.293,0.56,0.437c0.725,0.558,1.456,1.107,2.188,1.653
		c0.32,0.239,0.642,0.477,0.964,0.713c0.716,0.526,1.434,1.049,2.157,1.563c0.293,0.208,0.588,0.412,0.881,0.618
		c1.665,1.169,3.344,2.312,5.043,3.418c0.008,0.005,0.016,0.011,0.024,0.016c-4.439-8.023-7.851-16.383-7.247-22.42
		C163.674,463.798,163.674,463.789,163.675,463.779z"/>
	<path style="fill:#269E35;" d="M113.995,385.493c-2.779-7.585-5.19-15.403-7.209-23.422c-0.903,6.978,0.328,14.132,6.619,22.579
		C113.616,384.934,113.801,385.213,113.995,385.493z"/>
	<path style="fill:#269E35;" d="M190.03,106.691c-12.581,5.99-24.448,13.642-35.408,22.726c-0.035,0.029-0.07,0.057-0.105,0.086
		c-1.047,0.869-2.084,1.752-3.114,2.647c-0.065,0.056-0.13,0.112-0.195,0.169c-1.012,0.882-2.016,1.777-3.012,2.684
		c-0.076,0.069-0.152,0.138-0.229,0.208c-0.989,0.904-1.97,1.82-2.943,2.748c-0.076,0.072-0.151,0.145-0.227,0.217
		c-0.976,0.934-1.944,1.88-2.902,2.838c-0.064,0.064-0.127,0.127-0.19,0.191c-0.971,0.973-1.934,1.958-2.888,2.956
		c-0.041,0.043-0.081,0.085-0.121,0.128c-0.977,1.024-1.945,2.06-2.902,3.108c-0.001,0.001-0.003,0.003-0.004,0.004
		c-0.507,4.808-0.693,9.999-0.412,15.608c0.211,4.217,0.23,8.08,0.117,11.67c11.06-17.239,24.312-32.387,39.267-44.864
		c3.356-7.213,8.181-14.92,15.308-23.142C190.056,106.678,190.043,106.684,190.03,106.691z"/>
</g>
<g>
	<path style="fill:#30AA44;" d="M352.989,477.737c13.899-10.802,26.445-23.85,37.26-38.723c-2.573-39.54,10.855-50.036,4.179-70.486
		c-6.871-21.049,18.946-51.16,10.913-84.951c-8.032-33.791,18.12-49.234-1.782-75.232c-8.411-10.987-3.236-19.197-5.666-32.462
		c-13.097-20.727-29.353-38.479-47.912-52.276c0.147,1.152,0.222,2.267,0.163,3.309c-1.811,32.036,17.517,34.344,16.528,51.579
		c-1.86,32.395,16.551,55.49,8.21,84.223s-1.963,66.85-16.774,96.541c-14.811,29.691,5.863,53.764,2.763,72.352
		C358.798,444.037,360.021,459.197,352.989,477.737z"/>
	<path style="fill:#30AA44;" d="M282.085,125.993c-2.894,34.535,16.344,37.748,14.772,56.326
		c-2.956,34.921,14.662,60.552,5.353,91.276s-4.225,72.132-20.033,103.65c-15.808,31.518,4.039,58.29,0.312,78.251
		c-2.751,14.734-1.593,33.218-12.112,55.814c13.266-1.264,26.123-4.252,38.403-8.79c2.244-9.398,3.604-20.744,2.964-34.098
		c-2.205-46.022,12.574-56.821,6.419-79.813c-6.155-22.991,20.667-54.552,13.784-91.35s19.777-52.503,0.766-81.324
		c-10.913-16.545,3.071-26.608-10.509-53.405c-6.344-12.517-6.256-38.316-17.678-62.921c-10.966-3.695-22.367-6.159-34.088-7.28
		C276.734,103.555,282.837,117.015,282.085,125.993z"/>
	<path style="fill:#30AA44;" d="M239.102,482.97c2.894-34.535-16.344-37.748-14.772-56.326c2.956-34.921-14.662-60.552-5.353-91.276
		s4.225-72.132,20.033-103.65s-4.039-58.29-0.312-78.251c2.991-16.015,1.36-36.461,15.133-61.803
		c-13.335,0.19-26.314,2.12-38.785,5.62c-3.691,10.841-6.467,25.222-5.603,43.258c2.204,46.022-12.574,56.821-6.419,79.813
		s-20.667,54.552-13.783,91.35c6.883,36.797-19.777,52.503-0.766,81.324c10.913,16.545-3.071,26.608,10.51,53.405
		c6.093,12.024,6.253,36.303,16.38,60.007c10.587,2.946,21.539,4.761,32.763,5.343C242.875,501.709,238.455,490.686,239.102,482.97z
		"/>
</g>
<g>
	<path style="fill:#269E35;" d="M215.364,506.441c1.153,0.321,2.313,0.622,3.474,0.916c0.212,0.054,0.423,0.111,0.635,0.164
		c1.093,0.272,2.191,0.526,3.291,0.773c0.276,0.062,0.552,0.128,0.828,0.188c1.086,0.238,2.177,0.46,3.271,0.674
		c0.285,0.056,0.569,0.114,0.854,0.168c1.106,0.21,2.216,0.406,3.328,0.592c0.266,0.044,0.531,0.089,0.798,0.132
		c1.141,0.184,2.286,0.356,3.434,0.514c0.229,0.032,0.457,0.062,0.686,0.093c1.19,0.158,2.383,0.304,3.58,0.435
		c0.174,0.019,0.348,0.037,0.522,0.055c1.252,0.132,2.507,0.251,3.767,0.352c0.098,0.008,0.196,0.015,0.295,0.022
		c1.33,0.104,2.663,0.194,4.001,0.263c-0.481-0.922-0.951-1.854-1.415-2.789c-12.021-2.422-23.631-6.271-34.698-11.41
		C212.997,500.529,214.103,503.489,215.364,506.441z"/>
	<path style="fill:#269E35;" d="M253.82,91.664c-13.329,0.191-26.303,2.12-38.769,5.618c-0.002,0.001-0.004,0.001-0.006,0.002
		c-0.894,2.626-1.732,5.463-2.48,8.506c12.777-5.875,26.272-10.039,40.284-12.266c0.321-0.618,0.643-1.236,0.982-1.859
		C253.828,91.664,253.824,91.664,253.82,91.664z"/>
</g>
<g>
</g>
<g>
</g>
<g>
</g>
<g>
</g>
<g>
</g>
<g>
</g>
<g>
</g>
<g>
</g>
<g>
</g>
<g>
</g>
<g>
</g>
<g>
</g>
<g>
</g>
<g>
</g>
<g>
</g>
</svg>
