<?xml version="1.0" encoding="iso-8859-1"?>
<!-- Generator: Adobe Illustrator 19.0.0, SVG Export Plug-In . SVG Version: 6.00 Build 0)  -->
<svg version="1.1" id="Capa_1" xmlns="http://www.w3.org/2000/svg" xmlns:xlink="http://www.w3.org/1999/xlink" x="0px" y="0px"
	 viewBox="0 0 512 512" style="enable-background:new 0 0 512 512;" xml:space="preserve">
<path style="fill:#93603E;" d="M161.078,1.737c3.179,10.337,4.191,31.693-18.924,66.141c-5.28,7.869-7.876,19.407-8.584,29.685
	c12.394-2.104,25.362-2.603,38.95-1.046c-1.589-8.979-2.251-20.044-0.556-26.637c3.769-14.659,20.355-36.813-8.577-69.42
	C162.43-0.618,160.654,0.36,161.078,1.737z"/>
<path style="fill:#7F573C;" d="M162.759,67.878c8.849-13.188,14.153-24.45,17.163-33.917c-0.909-9.699-5.272-20.808-16.534-33.501
	c-0.956-1.077-2.733-0.101-2.309,1.277c3.179,10.337,4.192,31.693-18.924,66.141c-5.28,7.869-7.876,19.407-8.584,29.685
	c6.745-1.145,13.666-1.794,20.758-1.917C155.215,85.875,157.805,75.261,162.759,67.878z"/>
<path style="fill:#3BBC56;" d="M156.733,93.546c-62.005,0-114.896,41.211-132.549,97.655c-8.111,25.934-6.268,28.626-6.268,181.982
	c0,0.035,0.001,0.07,0.001,0.105l0,0c0.033,44.342,21.362,85.743,57.04,111.877c90.822,66.61,220.506,1.473,220.592-111.877l0,0
	c0-5.843,0.001-132.168,0.001-140.924C295.55,156.062,233.131,93.546,156.733,93.546z"/>
<path style="fill:#30AA44;" d="M95.579,485.165c-35.678-26.134-57.007-67.535-57.04-111.877c0-0.035-0.001-0.07-0.001-0.105
	c0-153.357-1.843-156.049,6.268-181.982c16.667-53.296,64.754-93.003,122.264-97.267c-3.414-0.254-6.861-0.388-10.337-0.388
	c-62.005,0-114.896,41.211-132.549,97.655c-8.111,25.934-6.268,28.626-6.268,181.982c0,0.035,0.001,0.07,0.001,0.105
	c0.033,44.342,21.362,85.743,57.04,111.877c28.365,20.803,60.522,28.755,91.336,26.402
	C142.039,509.747,117.661,501.36,95.579,485.165z"/>
<path style="fill:#BAD362;" d="M452.089,405.145c-4.703-2.249-10.24-2.082-15.171,0.375c-18.91,9.417-73.775,28.736-154.694-9.968
	c-81.575-39.019-100.625-94.433-104.959-114.67c-1.088-5.081-4.265-9.227-8.699-11.348l-40.002-19.134
	c-2.128-1.017-4.749,0.211-5.656,2.632c-50.228,134.193,73.638,204.018,73.638,204.018c24.229,13.278,40.821,22.883,68.734,34.386
	l22.841,9.414c0,0,132.834,52.898,205.653-71.748c0.987-1.689,0.428-3.815-1.184-4.586L452.089,405.145z"/>
<path style="fill:#9AB748;" d="M308.725,500.85l-22.841-9.414c-27.913-11.505-44.505-21.108-68.734-34.387
	c0,0-121.49-68.491-75.033-200.167l-13.554-6.483c-2.128-1.017-4.749,0.211-5.656,2.632
	c-50.229,134.193,73.638,204.018,73.638,204.018c24.229,13.278,40.821,22.883,68.734,34.387l22.841,9.414
	c0,0,33.233,13.234,75.566,10.866C331.657,509.98,308.725,500.85,308.725,500.85z"/>
<path style="fill:#30AA44;" d="M301.222,476.024c-46.297-19.082-45.851-18.603-93.573-44.757c0,0-108.996-61.47-83.643-179.928
	c-0.463,0.464-0.849,1.027-1.097,1.692c-50.229,134.193,73.638,204.018,73.638,204.018c24.228,13.278,40.821,22.883,68.734,34.386
	l22.841,9.414c0,0,132.834,52.898,205.653-71.748c0.267-0.458,0.412-0.946,0.463-1.433
	C417.934,522.477,301.222,476.024,301.222,476.024z"/>
<path style="fill:#269E35;" d="M196.546,457.049c24.229,13.278,40.821,22.883,68.734,34.386l18.938,7.806l3.902,1.608
	c0,0,0.035,0.014,0.086,0.034c0.005,0.002,0.009,0.004,0.015,0.006c0.391,0.152,1.914,0.734,4.417,1.558l0,0
	c2.928,0.964,7.193,2.261,12.542,3.586c0.002,0.001,0.004,0.001,0.006,0.002c1.527,0.379,3.143,0.759,4.842,1.136
	c0.001,0,0.001,0,0.002,0c1.699,0.377,3.481,0.748,5.339,1.108c0.002,0,0.004,0.001,0.006,0.001c0.927,0.179,1.874,0.356,2.838,0.53
	c0.005,0.001,0.009,0.001,0.013,0.002c0.963,0.172,1.944,0.341,2.943,0.506c0.005,0.001,0.011,0.002,0.016,0.003
	c0.998,0.164,2.015,0.323,3.047,0.478c0.005,0.001,0.009,0.001,0.014,0.002c2.072,0.308,4.212,0.595,6.413,0.852
	c0.007,0.001,0.013,0.001,0.02,0.002c1.097,0.128,2.211,0.249,3.339,0.362c0.003,0,0.006,0.001,0.008,0.001
	c1.132,0.113,2.277,0.218,3.437,0.314c0.002,0,0.004,0,0.006,0c1.159,0.096,2.332,0.182,3.518,0.259
	c0.008,0.001,0.016,0.001,0.024,0.002c1.183,0.076,2.378,0.143,3.586,0.199c0.006,0,0.013,0,0.019,0.001
	c1.208,0.056,2.428,0.101,3.66,0.135c0.013,0,0.026,0,0.038,0.001c1.229,0.033,2.469,0.055,3.721,0.065c0.007,0,0.014,0,0.021,0
	c1.256,0.009,2.521,0.006,3.798-0.01c0.01,0,0.021,0,0.031-0.001c1.274-0.017,2.557-0.046,3.85-0.09
	c0.013,0,0.026-0.001,0.039-0.002c1.291-0.044,2.592-0.102,3.9-0.175c0.004,0,0.007,0,0.011-0.001
	c-32.028-1.735-54.959-10.866-54.959-10.866l-22.841-9.414c-27.913-11.505-44.505-21.108-68.734-34.387
	c0,0-60.432-34.073-79.753-100.353c-14.276-27.633-22.496-62.821-13.392-105.358l0,0c-0.221,0.221-0.422,0.47-0.602,0.737
	c-0.01,0.015-0.022,0.026-0.031,0.041c-0.183,0.28-0.341,0.585-0.465,0.914c-1.962,5.242-3.658,10.386-5.107,15.431
	c-0.58,2.018-1.12,4.02-1.62,6.007c-0.25,0.993-0.492,1.983-0.723,2.968c-1.389,5.912-2.436,11.682-3.172,17.309
	c-0.368,2.814-0.659,5.592-0.875,8.333C103.397,404.539,196.546,457.049,196.546,457.049z"/>
<path style="fill:#FCB960;" d="M293.408,372.278c-85.535-40.912-116.143-91.396-116.143-91.396
	c4.334,20.236,23.384,75.651,104.959,114.67c80.919,38.705,135.785,19.385,154.694,9.968c0.126-0.063,0.257-0.107,0.385-0.166
	C434.112,405.741,376.526,412.034,293.408,372.278z"/>
<g>
</g>
<g>
</g>
<g>
</g>
<g>
</g>
<g>
</g>
<g>
</g>
<g>
</g>
<g>
</g>
<g>
</g>
<g>
</g>
<g>
</g>
<g>
</g>
<g>
</g>
<g>
</g>
<g>
</g>
</svg>
