<?xml version="1.0" encoding="iso-8859-1"?>
<!-- Generator: Adobe Illustrator 19.0.0, SVG Export Plug-In . SVG Version: 6.00 Build 0)  -->
<svg version="1.1" id="Capa_1" xmlns="http://www.w3.org/2000/svg" xmlns:xlink="http://www.w3.org/1999/xlink" x="0px" y="0px"
	 viewBox="0 0 512.001 512.001" style="enable-background:new 0 0 512.001 512.001;" xml:space="preserve">
<path style="fill:#3BBC56;" d="M176.018,108.363c-1.645-13.989-12.811-75.749-82.574-91.157c-3.318-0.733-6.48,1.748-6.537,5.146
	c-0.351,21.113,5.161,87.575,88.223,88.823C175.421,110.231,175.718,109.295,176.018,108.363z"/>
<path style="fill:#30AA44;" d="M107.514,22.353c0.007-0.384,0.058-0.754,0.139-1.111c-4.446-1.561-9.17-2.923-14.209-4.035
	c-3.318-0.733-6.48,1.748-6.537,5.146c-0.351,21.113,5.161,87.575,88.223,88.823c0.182-0.591,0.369-1.175,0.555-1.76
	C111.767,98.638,107.193,41.619,107.514,22.353z"/>
<path style="fill:#93603E;" d="M179.84,147.229c13.086-26.616,34.85-71.442,66.881-90.748c3.788-2.284,4.461-7.503,1.392-10.689
	l-18.558-19.274c-4.238-4.402-11.41-3.961-15.059,0.94c-18.542,24.904-43.347,77.715-48.888,119.881
	C171.033,147.078,175.3,147.085,179.84,147.229z"/>
<path style="fill:#7F573C;" d="M231.736,28.783l-2.181-2.265c-4.238-4.402-11.41-3.961-15.059,0.94
	c-18.542,24.904-43.348,77.715-48.888,119.881c5.424-0.262,9.691-0.255,14.232-0.111c1.846-3.755,3.871-7.881,6.067-12.237
	C193.884,96.085,215.1,51.719,231.736,28.783z"/>
<path style="fill:#3BBC56;" d="M143.066,491.908l-0.001,0.002c-48.414-9.031-92.067-38.697-118.436-82.873
	c-0.015-0.026-0.146-0.244-0.162-0.27c-2.757-4.656-5.283-9.403-7.559-14.19l-0.2-0.427c-0.7-1.486-1.35-2.915-1.98-4.354
	l-0.327-0.75c-0.61-1.407-1.221-2.869-1.813-4.343l-0.165-0.408c-2.002-5.026-3.772-10.146-5.286-15.283l-0.221-0.767
	c-0.406-1.397-0.814-2.878-1.205-4.367l-0.232-0.899c-19.295-75.213,14.392-151.149,69.459-187.614l-0.106,0.074
	c6.465-4.537,13.918-9.009,19.245-11.752v-0.002c15.98-8.338,32.436-13.945,48.989-17.032l0.001,0.002
	c1.787-0.333,4.656-0.811,5.186-0.89l-0.001-0.002c13.673-2.125,27.741-2.598,39.272-1.728v0.002
	c85.279,6.38,149.681,70.228,161.578,147.561l0,0c6.631,41.868-1.812,85.176-25.383,122.156c-3.602,5.652-7.684,11.329-12.392,17.05
	c-0.043,0.053-0.17,0.205-0.213,0.257c-11.475,13.906-25.624,26.094-34.779,32.129l0.12-0.083
	c-18.949,13.284-37.313,21.053-57.71,26.482l-0.002-0.009c-0.07,0.02-0.14,0.039-0.209,0.059l0.001,0.003
	c-11.209,2.873-23.405,4.645-36.5,5.166l0,0C168.63,495.293,155.647,494.256,143.066,491.908z M218.642,489.209L218.642,489.209
	L218.642,489.209z M188.008,452.398c-0.068,0.008-0.136,0.015-0.203,0.023C187.872,452.413,187.941,452.405,188.008,452.398z
	 M223.376,444.181l-0.005,0.002C223.373,444.182,223.374,444.182,223.376,444.181L223.376,444.181z M142.788,189.669
	L142.788,189.669L142.788,189.669z M142.789,189.667v0.002V189.667z M257.727,163.981c0.007,0.003,0.014,0.008,0.021,0.011
	C257.741,163.989,257.734,163.984,257.727,163.981z M257.184,163.688c0.036,0.018,0.072,0.036,0.108,0.056
	c-0.036-0.02-0.071-0.038-0.108-0.058V163.688z"/>
<path style="fill:#30AA44;" d="M163.672,491.908l-0.001,0.001c-48.414-9.031-92.067-38.697-118.436-82.873
	c-0.015-0.026-0.146-0.244-0.161-0.27c-2.757-4.656-5.283-9.402-7.559-14.19l-0.2-0.427c-0.7-1.486-1.35-2.915-1.98-4.354
	l-0.327-0.75c-0.61-1.407-1.221-2.869-1.813-4.343l-0.165-0.408c-2.002-5.026-3.772-10.146-5.286-15.283l-0.221-0.767
	c-0.406-1.397-0.814-2.878-1.204-4.367l-0.232-0.899C6.79,287.766,40.477,211.83,95.544,175.365l-0.106,0.074
	c6.465-4.537,13.918-9.009,19.245-11.752v-0.002c15.98-8.338,32.436-13.945,48.989-17.032l0.001,0.002
	c1.787-0.333,4.656-0.811,5.186-0.89l-0.001-0.002c5.749-0.894,11.566-1.491,17.236-1.824c-11.254-0.729-24.727-0.215-37.843,1.824
	l0.001,0.002c-0.53,0.078-3.399,0.556-5.186,0.89l-0.001-0.002c-16.553,3.088-33.008,8.695-48.989,17.032v0.002
	c-5.328,2.743-12.78,7.216-19.245,11.752l0.106-0.074C19.871,211.83-13.817,287.766,5.478,362.979l0.232,0.899
	c0.39,1.489,0.798,2.971,1.204,4.367l0.221,0.767c1.514,5.137,3.284,10.257,5.286,15.283l0.165,0.408
	c0.592,1.474,1.203,2.936,1.813,4.343l0.327,0.75c0.631,1.439,1.281,2.867,1.98,4.354l0.2,0.427
	c2.275,4.788,4.801,9.535,7.559,14.19c0.015,0.026,0.146,0.245,0.161,0.27c26.37,44.176,70.022,73.842,118.436,82.873l0.001-0.001
	c12.581,2.348,25.564,3.385,38.967,2.899c1.292-0.051,2.568-0.125,3.843-0.2C178.34,494.167,170.937,493.264,163.672,491.908z"/>
<circle style="fill:#BAD362;" cx="335.82" cy="321.461" r="140.64"/>
<path style="fill:#9AB748;" d="M224.582,321.457c0-72.708,55.176-132.526,125.94-139.875c-4.831-0.502-9.734-0.762-14.698-0.762
	c-77.672,0-140.638,62.966-140.638,140.638s62.966,140.638,140.638,140.638c4.964,0,9.867-0.261,14.698-0.762
	C279.758,453.983,224.582,394.165,224.582,321.457z"/>
<path style="fill:#D6EA7F;" d="M469.929,311.491H354.968l81.29-81.29c3.018-3.019,3.018-7.91,0-10.929
	c-3.017-3.016-7.91-3.016-10.928,0l-81.291,81.291V185.601c0-4.268-3.46-7.727-7.727-7.727c-4.268,0-7.727,3.459-7.727,7.727
	v114.962c-9.923-9.923-61.051-61.051-81.291-81.291c-3.017-3.016-7.91-3.016-10.928,0c-3.018,3.019-3.018,7.91,0,10.929
	c17.585,17.585,63.293,63.293,81.29,81.29c-5.115,0-110.886,0.001-114.962,0.001c-4.268,0-7.727,3.459-7.727,7.727
	s3.46,7.727,7.727,7.727c13.497,0,111.597-0.001,114.963-0.001c-7.736,7.736-71.111,71.112-81.291,81.291
	c-3.018,3.018-3.018,7.91,0,10.929c3.019,3.018,7.91,3.017,10.928,0l78.074-78.074l0,0l3.216-3.216c0,1.376,0,112.462,0,114.962
	c0,4.268,3.46,7.727,7.727,7.727c4.268,0,7.727-3.459,7.727-7.727c0-19.602,0-90.58,0-114.961
	c88.339,88.339,82.298,83.554,86.755,83.554c6.824,0,10.347-8.308,5.464-13.192l-81.291-81.291h114.962
	c4.268,0,7.727-3.459,7.727-7.727S474.197,311.491,469.929,311.491z"/>
<g>
	<path style="fill:#BAD362;" d="M236.366,230.2c3.276,3.276,7.53,7.53,12.398,12.398c2.925-4.311,6.083-8.45,9.456-12.401
		c-4.172-4.172-7.897-7.897-10.926-10.926c-1.557-1.557-3.613-2.303-5.654-2.253c-2.595,2.341-5.104,4.776-7.518,7.302
		C234.009,226.434,234.751,228.585,236.366,230.2z"/>
	<path style="fill:#BAD362;" d="M335.823,180.819c-1.899,0-3.786,0.049-5.666,0.123c-0.983,1.296-1.573,2.907-1.573,4.659v0.047
		c4.838-1.302,9.779-2.353,14.808-3.137c-0.239-0.546-0.543-1.056-0.895-1.528C340.285,180.879,338.061,180.819,335.823,180.819z"/>
	<path style="fill:#BAD362;" d="M339.7,459.773c-3.162-0.58-6.288-1.264-9.373-2.051c1.417,1.734,3.571,2.842,5.985,2.842
		C337.529,460.563,338.676,460.274,339.7,459.773z"/>
	<path style="fill:#BAD362;" d="M247.294,419.165l8.89-8.89c-3.294-4.038-6.367-8.262-9.203-12.654
		c-4.93,4.93-8.707,8.707-10.615,10.615c-3.018,3.018-3.018,7.91,0,10.929C239.384,422.183,244.276,422.182,247.294,419.165z"/>
	<path style="fill:#BAD362;" d="M202.694,326.946c3.253,0,11.43,0,22.002,0c-0.07-1.822-0.115-3.65-0.115-5.49
		c0-3.351,0.119-6.673,0.35-9.965c-12.296,0-21.116,0-22.237,0c-3.547,0-6.528,2.392-7.437,5.65
		c-0.039,1.295-0.063,2.593-0.067,3.896C196.01,324.426,199.054,326.946,202.694,326.946z"/>
</g>
<circle style="fill:#9AB748;" cx="336.31" cy="319.281" r="21.04"/>
<path style="fill:#8EA53A;" d="M336.312,319.281c0-7.784,4.238-14.565,10.521-18.205c-3.098-1.794-6.684-2.838-10.521-2.838
	c-11.621,0-21.043,9.421-21.043,21.043s9.421,21.043,21.043,21.043c3.838,0,7.424-1.044,10.521-2.838
	C340.549,333.846,336.312,327.066,336.312,319.281z"/>
<path style="fill:#3BBC56;" d="M303.8,491.908l-0.001,0.002c-90.051-16.797-150.736-99.746-142.318-189.05
	c0.085-0.922,0.346-3.385,0.558-5.119c0.253-2.074,0.519-4.015,0.851-6.116c0.172-1.03,0.806-5.189,2.079-10.875l0.12-0.521
	c10.274-45.02,38.694-83.747,70.583-104.864l-0.106,0.074c6.465-4.537,13.917-9.009,19.245-11.752v-0.002
	c15.816-8.252,32.178-13.896,48.989-17.032l0.001,0.002c1.787-0.333,4.656-0.811,5.186-0.89l-0.001-0.002
	c13.846-2.152,28.077-2.572,39.272-1.728v0.002c85.01,6.36,149.621,69.843,161.578,147.561l0,0
	c11.344,71.626-23.211,138.927-72.767,171.592l0.12-0.083c-18.57,13.018-36.887,20.939-57.71,26.482l-0.002-0.009
	c-0.07,0.02-0.14,0.039-0.209,0.059l0.001,0.003c-10.9,2.794-23.208,4.637-36.5,5.166l0,0
	C329.364,495.293,316.381,494.256,303.8,491.908z M379.375,489.209L379.375,489.209L379.375,489.209z M345.147,452.672
	c1.763-0.069,7.248-0.577,12.1-1.337c3.284-0.515,6.523-1.167,8.27-1.57c4.925-1.09,8.672-2.175,13.135-3.636
	c2.975-0.987,6.121-2.169,8.958-3.349c1.03-0.435,2.1-0.883,3.578-1.55c1.145-0.522,2.31-1.058,3.527-1.65
	c15.548-7.64,28.79-17.697,39.517-29.249l0,0c55.764-59.905,48.632-162.732-35.994-209.578l-0.001,0.002
	c-9.253-4.896-20.938-9.251-29.557-11.221l0,0c-8.673-2.139-15.685-3.051-23.532-3.643l0,0c-25.643-1.629-50.24,4.058-70.758,14.921
	l0,0c-98.47,51.059-96.424,199.181,14.275,243.386c0.002,0,0.003,0.001,0.005,0.001c8.724,3.24,11.987,3.913,15.388,4.832
	c0,0,3.521,0.963,11.173,2.263l-0.001,0.002C324.82,452.727,333.934,453.384,345.147,452.672z M348.742,452.398
	c-0.068,0.008-0.136,0.015-0.203,0.023C348.606,452.413,348.674,452.405,348.742,452.398z M384.109,444.181l-0.005,0.002
	C384.106,444.182,384.108,444.182,384.109,444.181L384.109,444.181z M303.522,189.669L303.522,189.669L303.522,189.669z
	 M303.523,189.667v0.002V189.667z M418.461,163.981c0.007,0.003,0.014,0.008,0.021,0.011
	C418.475,163.989,418.468,163.984,418.461,163.981z M417.918,163.688c0.036,0.018,0.072,0.036,0.108,0.056
	c-0.036-0.02-0.071-0.038-0.108-0.058V163.688z"/>
<path style="fill:#30AA44;" d="M324.803,491.908l-0.001,0.001c-90.051-16.797-150.736-99.746-142.318-189.05
	c0.085-0.922,0.346-3.384,0.558-5.119c0.253-2.074,0.519-4.015,0.851-6.116c0.172-1.03,0.806-5.189,2.079-10.875l0.12-0.521
	c10.274-45.02,38.694-83.747,70.583-104.864l-0.106,0.074c6.465-4.537,13.918-9.009,19.245-11.752v-0.002
	c15.816-8.252,32.178-13.896,48.988-17.032l0.001,0.002c1.787-0.333,4.657-0.811,5.186-0.89l-0.001-0.002
	c5.71-0.887,11.482-1.476,17.082-1.807c-11.006-0.73-24.721-0.27-38.086,1.807l0.001,0.002c-0.53,0.078-3.399,0.556-5.186,0.89
	l-0.001-0.002c-16.81,3.136-33.172,8.78-48.988,17.032v0.002c-5.328,2.743-12.78,7.216-19.245,11.752l0.106-0.074
	c-31.889,21.117-60.309,59.844-70.583,104.864l-0.12,0.521c-1.273,5.686-1.907,9.845-2.079,10.875
	c-0.332,2.101-0.597,4.042-0.851,6.116c-0.212,1.734-0.473,4.197-0.558,5.119c-8.418,89.304,52.267,172.253,142.318,189.05
	l0.001-0.001c12.582,2.348,25.565,3.385,38.967,2.899c1.361-0.054,2.704-0.131,4.044-0.212
	C339.343,494.15,332.005,493.252,324.803,491.908z"/>
<g>
	<path style="fill:#1B8923;" d="M75.426,332.437c-1.724,1.071-3.857,1.425-5.835,0.956c-0.368-0.08-0.731-0.198-1.088-0.338
		c-0.685-0.271-1.333-0.637-1.911-1.093c-0.313-0.248-0.614-0.519-0.878-0.806c-0.354-0.374-0.664-0.776-0.93-1.205
		c-0.267-0.429-0.489-0.885-0.668-1.368c-0.14-0.365-0.251-0.756-0.334-1.147c-0.153-0.719-0.194-1.462-0.133-2.194
		c0.032-0.381,0.088-0.759,0.179-1.125c0.456-1.981,1.719-3.736,3.443-4.807s3.857-1.426,5.834-0.956
		c0.368,0.081,0.732,0.198,1.088,0.338c0.69,0.273,1.343,0.643,1.924,1.105c0.308,0.245,0.604,0.512,0.864,0.795
		c0.354,0.375,0.664,0.776,0.931,1.205c0.266,0.429,0.489,0.885,0.667,1.368c0.138,0.358,0.246,0.74,0.329,1.124
		c0.156,0.726,0.199,1.477,0.138,2.217c-0.032,0.382-0.088,0.76-0.179,1.126C78.413,329.611,77.15,331.366,75.426,332.437z"/>
	<path style="fill:#1B8923;" d="M101.037,371.715c-1.724,1.071-3.857,1.425-5.835,0.956c-0.368-0.08-0.731-0.198-1.088-0.338
		c-0.685-0.271-1.333-0.637-1.911-1.093c-0.313-0.248-0.614-0.519-0.878-0.806c-0.354-0.374-0.664-0.776-0.93-1.205
		c-0.267-0.429-0.489-0.885-0.668-1.368c-0.14-0.365-0.251-0.756-0.334-1.147c-0.153-0.719-0.194-1.462-0.133-2.194
		c0.032-0.381,0.088-0.759,0.179-1.125c0.456-1.981,1.719-3.736,3.443-4.807s3.857-1.426,5.834-0.956
		c0.368,0.081,0.732,0.198,1.088,0.338c0.69,0.273,1.343,0.643,1.924,1.105c0.308,0.245,0.604,0.512,0.864,0.795
		c0.354,0.375,0.664,0.776,0.931,1.205c0.266,0.429,0.489,0.885,0.667,1.368c0.138,0.358,0.246,0.74,0.329,1.124
		c0.156,0.726,0.199,1.477,0.138,2.217c-0.032,0.382-0.088,0.76-0.179,1.126C104.024,368.889,102.761,370.644,101.037,371.715z"/>
	<path style="fill:#1B8923;" d="M125.336,411.809c-1.724,1.071-3.857,1.425-5.835,0.956c-0.368-0.08-0.731-0.198-1.088-0.338
		c-0.685-0.271-1.333-0.637-1.911-1.093c-0.313-0.248-0.614-0.519-0.878-0.806c-0.354-0.374-0.664-0.776-0.93-1.205
		c-0.267-0.429-0.489-0.885-0.668-1.368c-0.14-0.365-0.251-0.756-0.334-1.147c-0.153-0.719-0.194-1.462-0.133-2.194
		c0.032-0.381,0.088-0.759,0.179-1.125c0.456-1.981,1.719-3.736,3.443-4.807s3.857-1.426,5.834-0.956
		c0.368,0.081,0.732,0.198,1.088,0.338c0.69,0.273,1.343,0.643,1.924,1.105c0.308,0.245,0.604,0.512,0.864,0.795
		c0.354,0.375,0.664,0.776,0.931,1.205c0.266,0.429,0.489,0.885,0.667,1.368c0.137,0.358,0.246,0.74,0.329,1.124
		c0.156,0.726,0.199,1.477,0.138,2.217c-0.032,0.382-0.088,0.76-0.179,1.125C128.323,408.983,127.06,410.738,125.336,411.809z"/>
	<path style="fill:#1B8923;" d="M59.247,370.418c-1.772,0.99-3.92,1.244-5.873,0.683c-0.364-0.097-0.721-0.231-1.071-0.389
		c-0.671-0.302-1.302-0.698-1.858-1.181c-0.301-0.262-0.589-0.547-0.84-0.846c-0.336-0.39-0.627-0.806-0.873-1.247
		c-0.246-0.441-0.447-0.907-0.604-1.398c-0.123-0.371-0.215-0.767-0.28-1.162c-0.119-0.726-0.126-1.469-0.031-2.198
		c0.049-0.379,0.123-0.754,0.231-1.115c0.547-1.958,1.891-3.651,3.663-4.641c1.772-0.989,3.919-1.244,5.873-0.683
		c0.364,0.098,0.722,0.232,1.071,0.389c0.677,0.305,1.312,0.705,1.871,1.193c0.296,0.259,0.579,0.54,0.826,0.834
		c0.336,0.391,0.628,0.806,0.874,1.247c0.246,0.441,0.447,0.907,0.603,1.398c0.121,0.364,0.212,0.751,0.276,1.138
		c0.122,0.733,0.13,1.484,0.035,2.221c-0.049,0.38-0.123,0.755-0.231,1.116C62.362,367.734,61.019,369.428,59.247,370.418z"/>
	<path style="fill:#1B8923;" d="M81.651,411.6c-1.772,0.99-3.92,1.244-5.873,0.683c-0.364-0.097-0.721-0.231-1.071-0.389
		c-0.671-0.302-1.302-0.698-1.858-1.181c-0.301-0.262-0.589-0.547-0.84-0.846c-0.336-0.39-0.627-0.806-0.873-1.247
		s-0.447-0.907-0.604-1.398c-0.123-0.371-0.215-0.767-0.28-1.162c-0.119-0.726-0.126-1.469-0.031-2.198
		c0.049-0.379,0.123-0.754,0.231-1.115c0.547-1.958,1.891-3.651,3.663-4.641c1.772-0.989,3.919-1.244,5.873-0.683
		c0.364,0.098,0.722,0.232,1.071,0.389c0.677,0.305,1.312,0.705,1.871,1.193c0.296,0.259,0.579,0.54,0.826,0.834
		c0.336,0.391,0.628,0.806,0.874,1.247s0.447,0.907,0.603,1.398c0.121,0.364,0.212,0.751,0.276,1.138
		c0.122,0.733,0.13,1.484,0.035,2.221c-0.049,0.38-0.123,0.755-0.231,1.116C84.767,408.916,83.423,410.611,81.651,411.6z"/>
</g>
<g>
</g>
<g>
</g>
<g>
</g>
<g>
</g>
<g>
</g>
<g>
</g>
<g>
</g>
<g>
</g>
<g>
</g>
<g>
</g>
<g>
</g>
<g>
</g>
<g>
</g>
<g>
</g>
<g>
</g>
</svg>
