<?xml version="1.0" encoding="iso-8859-1"?>
<!-- Generator: Adobe Illustrator 19.0.0, SVG Export Plug-In . SVG Version: 6.00 Build 0)  -->
<svg version="1.1" id="Capa_1" xmlns="http://www.w3.org/2000/svg" xmlns:xlink="http://www.w3.org/1999/xlink" x="0px" y="0px"
	 viewBox="0 0 512 512" style="enable-background:new 0 0 512 512;" xml:space="preserve">
<path style="fill:#CC9A5E;" d="M211.998,314.77c0-76.363,57.459-139.552,131.411-148.621c-6.291-23.517-18.262-45.47-35.208-63.574
	c-4.142-4.425-3.04-11.561,2.222-14.569l4.021-2.298c8.236-4.708,11.122-15.298,6.414-23.533l-1.391-2.434
	c-4.706-8.231-15.684-11.841-23.901-7.112c-5.341,3.074-11.996-0.799-11.97-6.955c0-9.486-7.761-17.281-17.246-17.322l-3.517-0.015
	c-9.486-0.041-17.281,7.686-17.322,17.172l-0.027,6.272c-0.024,5.484-5.173,9.436-10.504,8.15
	c-64.805-15.627-134.796,14.134-166.919,75.752l-51.312,98.428c-32.694,62.713-15.874,138.69,36.165,182.547
	c3.28,2.764,2.796,7.951-0.928,10.079l-7.164,4.095c-7.583,4.335-10.242,14.086-5.907,21.67l1.642,2.872
	c4.294,7.514,14.111,10.413,21.544,5.981c4.912-2.929,11.094,0.6,11.128,6.262c0.052,8.784,6.567,15.991,15.352,16.029l3.77,0.016
	c8.735,0.038,15.913-7.078,15.951-15.813l0.067-15.515c0.014-3.183,2.986-5.501,6.085-4.775
	c47.759,11.199,98.208-2.201,134.182-34.765C225.82,386.51,211.998,352.224,211.998,314.77z"/>
<g>
	<path style="fill:#B78855;" d="M61.137,455.375l-1.642-2.872c-4.334-7.584-1.676-17.335,5.907-21.67l7.164-4.095
		c3.724-2.129,4.208-7.315,0.928-10.079C21.456,372.801,4.636,296.823,37.33,234.111l51.312-98.428
		c24.756-47.486,72.003-76.046,122.034-79.498c-57.303-3.996-114.484,25.532-142.618,79.498l-51.312,98.428
		c-32.694,62.713-15.873,138.69,36.165,182.547c3.28,2.764,2.796,7.951-0.928,10.079l-7.164,4.095
		c-7.583,4.335-10.242,14.086-5.907,21.67l1.642,2.872c4.294,7.514,14.111,10.413,21.544,5.981c1.126-0.671,2.318-0.989,3.488-1.034
		C63.814,459.028,62.277,457.37,61.137,455.375z"/>
	<path style="fill:#B78855;" d="M93.809,467.617c-0.034-5.662-6.216-9.191-11.128-6.262c-3.445,2.054-7.398,2.517-11.08,1.692
		c0.995,1.224,1.613,2.791,1.624,4.57c0.053,8.784,6.567,15.991,15.352,16.029l3.77,0.016c3.147,0.014,6.085-0.912,8.567-2.497
		C96.598,478.319,93.843,473.306,93.809,467.617z"/>
	<path style="fill:#B78855;" d="M361.742,164.511c-82.853,0-150.259,67.406-150.259,150.26c0,82.852,67.406,150.258,150.259,150.258
		c82.852,0,150.258-67.405,150.258-150.258C512,231.917,444.594,164.511,361.742,164.511z"/>
</g>
<path style="fill:#A3764A;" d="M231.793,314.771c0-79.44,61.969-144.669,140.104-149.909c-3.357-0.225-6.742-0.351-10.155-0.351
	c-82.853,0-150.259,67.406-150.259,150.26c0,82.852,67.406,150.258,150.259,150.258c3.413,0,6.797-0.125,10.155-0.351
	C293.762,459.437,231.793,394.21,231.793,314.771z"/>
<path style="fill:#9AB748;" d="M361.742,191.119c-68.181,0-123.65,55.469-123.65,123.651c0,68.181,55.469,123.65,123.65,123.65
	s123.65-55.469,123.65-123.65C485.392,246.588,429.923,191.119,361.742,191.119z"/>
<path style="fill:#8CA532;" d="M259.43,314.77c0-64.587,49.777-117.758,112.981-123.186c-3.518-0.302-7.075-0.465-10.669-0.465
	c-68.181,0-123.651,55.469-123.651,123.651c0,68.181,55.469,123.65,123.651,123.65c3.595,0,7.151-0.163,10.669-0.465
	C309.207,432.527,259.43,379.356,259.43,314.77z"/>
<g>
	<path style="fill:#93603E;" d="M361.742,280.993c-4.263,0-7.719-3.456-7.719-7.719v-45.895c0-4.264,3.456-7.719,7.719-7.719
		s7.719,3.456,7.719,7.719v45.895C369.461,277.537,366.005,280.993,361.742,280.993z"/>
	<path style="fill:#93603E;" d="M361.742,408.285c-4.263,0-7.719-3.455-7.719-7.719v-35.297c0-4.264,3.456-7.719,7.719-7.719
		s7.719,3.456,7.719,7.719v35.297C369.461,404.83,366.005,408.285,361.742,408.285z"/>
	<path style="fill:#93603E;" d="M425.793,324.006h-29.887c-4.263,0-7.719-3.456-7.719-7.719s3.456-7.719,7.719-7.719h29.887
		c4.263,0,7.719,3.456,7.719,7.719S430.056,324.006,425.793,324.006z"/>
	<path style="fill:#93603E;" d="M390.8,302.381c-7.844,0-10.701-10.459-3.867-14.405l38.62-22.297
		c3.691-2.131,8.413-0.867,10.544,2.825c2.132,3.692,0.867,8.413-2.825,10.544l-38.62,22.297
		C393.437,302.047,392.11,302.381,390.8,302.381z"/>
	<path style="fill:#93603E;" d="M377.739,279.958c-3.692-2.132-4.957-6.853-2.825-10.544l16.875-29.229
		c2.132-3.693,6.852-4.956,10.544-2.825c3.692,2.132,4.957,6.853,2.825,10.544l-16.875,29.229
		C386.152,280.825,381.432,282.09,377.739,279.958z"/>
	<path style="fill:#93603E;" d="M409.172,357.439l-24.024-13.87c-3.692-2.132-4.957-6.853-2.825-10.544
		c2.131-3.693,6.852-4.957,10.544-2.825l24.024,13.87c3.692,2.132,4.957,6.853,2.825,10.544
		C417.586,358.305,412.865,359.57,409.172,357.439z"/>
	<path style="fill:#93603E;" d="M392.699,393.965l-19.36-33.532c-2.132-3.692-0.867-8.413,2.825-10.544
		c3.692-2.13,8.413-0.867,10.544,2.825l19.36,33.532c2.132,3.692,0.867,8.413-2.825,10.544
		C399.55,398.921,394.83,397.656,392.699,393.965z"/>
	<path style="fill:#93603E;" d="M333.581,324.006h-45.764c-4.263,0-7.719-3.456-7.719-7.719s3.456-7.719,7.719-7.719h45.764
		c4.263,0,7.719,3.456,7.719,7.719S337.844,324.006,333.581,324.006z"/>
	<path style="fill:#93603E;" d="M328.485,301.502l-22.511-12.997c-3.692-2.132-4.957-6.853-2.825-10.544
		c2.131-3.693,6.852-4.957,10.544-2.825l22.511,12.997c3.692,2.132,4.957,6.853,2.825,10.544
		C336.899,302.369,332.178,303.634,328.485,301.502z"/>
	<path style="fill:#93603E;" d="M337.359,281.942l-20.925-36.243c-2.132-3.692-0.867-8.413,2.825-10.544
		c3.692-2.13,8.413-0.867,10.544,2.825l20.925,36.243c2.132,3.692,0.867,8.413-2.825,10.544
		C344.21,286.899,339.49,285.634,337.359,281.942z"/>
	<path style="fill:#93603E;" d="M304.39,361.621c-2.668,0-5.262-1.384-6.692-3.861c-2.132-3.692-0.867-8.413,2.825-10.544
		l27.769-16.032c3.692-2.13,8.413-0.867,10.544,2.825c2.132,3.692,0.867,8.413-2.825,10.544l-27.769,16.032
		C307.027,361.287,305.7,361.621,304.39,361.621z"/>
	<path style="fill:#93603E;" d="M323.385,397.983c-1.31,0-2.637-0.334-3.853-1.035c-3.692-2.132-4.957-6.853-2.825-10.544
		l20.908-36.214c2.131-3.693,6.852-4.957,10.544-2.825c3.692,2.132,4.957,6.853,2.825,10.544l-20.908,36.214
		C328.647,396.599,326.052,397.983,323.385,397.983z"/>
</g>
<ellipse style="fill:#CAD88F;" cx="361.74" cy="314.77" rx="37.847" ry="54.14"/>
<path style="fill:#BAD362;" d="M345.499,314.77c0-24.528,11.407-45.234,27.045-51.886c-3.424-1.456-7.047-2.25-10.802-2.25
	c-20.903,0-37.847,24.238-37.847,54.136c0,29.899,16.945,54.136,37.847,54.136c3.755,0,7.378-0.794,10.802-2.25
	C356.906,360.004,345.499,339.298,345.499,314.77z"/>
<path style="fill:#9AB748;" d="M361.324,344.741c-4.263,0-7.719-3.456-7.719-7.719V290.45c0-4.264,3.456-7.719,7.719-7.719
	s7.719,3.455,7.719,7.719v46.572C369.043,341.286,365.587,344.741,361.324,344.741z"/>
<g>
</g>
<g>
</g>
<g>
</g>
<g>
</g>
<g>
</g>
<g>
</g>
<g>
</g>
<g>
</g>
<g>
</g>
<g>
</g>
<g>
</g>
<g>
</g>
<g>
</g>
<g>
</g>
<g>
</g>
</svg>
