<?xml version="1.0" encoding="iso-8859-1"?>
<!-- Generator: Adobe Illustrator 19.0.0, SVG Export Plug-In . SVG Version: 6.00 Build 0)  -->
<svg version="1.1" id="Capa_1" xmlns="http://www.w3.org/2000/svg" xmlns:xlink="http://www.w3.org/1999/xlink" x="0px" y="0px"
	 viewBox="0 0 512 512" style="enable-background:new 0 0 512 512;" xml:space="preserve">
<path style="fill:#93603E;" d="M275.479,135.204c13.725-31.61,34.692-65.077,66.739-88.295c4.413-3.197,4.731-9.661,0.679-13.307
	L313.276,6.943c-4.738-4.265-12.158-3.366-15.708,1.929c-12.441,18.56-38.136,64.714-49.417,126.11
	C271.791,134.982,271.131,134.924,275.479,135.204z"/>
<path style="fill:#7F573C;" d="M276.575,132.716c12.177-55.622,35.444-97.193,47.093-114.571c0.26-0.389,0.547-0.746,0.847-1.087
	L313.276,6.943c-4.738-4.265-12.158-3.366-15.708,1.929c-12.441,18.56-38.136,64.714-49.418,126.11
	c23.641,0,22.98-0.059,27.328,0.221C275.838,134.376,276.206,133.546,276.575,132.716z"/>
<path style="fill:#F7991E;" d="M402.941,153.85c22.058,17.597,36.271,44.665,36.271,74.908v183.122
	c0,30.243-14.213,57.31-36.271,74.908C467.181,492.603,512,444.722,512,391.363V249.275C512,196.159,467.453,148.009,402.941,153.85
	z"/>
<path style="fill:#EA8B18;" d="M461.923,413.757V226.881c0-28.578-12.443-54.372-32.157-72.293
	c-8.469-1.287-17.434-1.588-26.825-0.738c22.058,17.597,36.271,44.665,36.271,74.908v183.122c0,30.243-14.213,57.31-36.271,74.908
	c9.388,0.85,18.357,0.545,26.837-0.748C449.486,468.119,461.923,442.329,461.923,413.757z"/>
<path style="fill:#F7991E;" d="M75.878,411.88V228.758c0-30.242,14.213-57.31,36.271-74.908c-5.376-0.487-8.162-0.412-13.797-0.412
	h-2.516C43.126,153.439,0,196.565,0,249.275v142.089c0,52.71,43.126,95.836,95.835,95.836h2.516c5.633,0,8.422,0.075,13.797-0.412
	C90.091,469.191,75.878,442.123,75.878,411.88z"/>
<path style="fill:#EA8B18;" d="M20.605,391.363V249.275c0-50.509,39.602-92.212,89.289-95.606c-4.015-0.283-6.751-0.23-11.542-0.23
	h-2.516C43.126,153.439,0,196.565,0,249.275v142.089c0,52.71,43.126,95.836,95.835,95.836h2.516c4.789,0,7.527,0.053,11.542-0.23
	C60.207,483.575,20.605,441.873,20.605,391.363z"/>
<path style="fill:#F7991E;" d="M343.377,132.922c-28.857,0-33.902-0.412-45.312,1.907c37.058,8.101,65.028,41.266,65.028,80.662
	v13.258c0,0.003,0,0.006,0,0.009c0,7.926,0,188.477,0,196.389c0,39.396-27.969,72.561-65.027,80.662
	c11.505,2.339,16.333,1.907,47.372,1.907c52.71,0,95.836-43.126,95.836-95.836V228.758
	C441.273,178.669,401.538,132.922,343.377,132.922z"/>
<path style="fill:#EA8B18;" d="M298.065,505.809c9.487,1.929,14.448,1.973,33.294,1.929c32.9-11.648,56.64-43.113,56.64-79.874
	c0-8.117,0-193.349,0-201.481c0-0.003,0-0.006,0-0.009v-13.602c0-36.756-23.734-68.219-56.628-79.87
	c-18.6-0.044-23.698-0.028-33.306,1.926c37.058,8.101,65.028,41.266,65.028,80.662v13.258c0,0.003,0,0.006,0,0.009
	c0,7.926,0,188.477,0,196.389C363.093,464.543,335.123,497.708,298.065,505.809z"/>
<path style="fill:#F7991E;" d="M163.575,425.147v-6.708c-0.613-8.943,0-201.902,0-202.948c0-39.354,27.91-72.488,64.909-80.635
	c-12.128-2.483-15.565-1.935-61.922-1.935c-52.71,0-95.836,43.126-95.836,95.836v183.122c0,52.71,43.126,95.836,95.836,95.836
	c46.545,0,50.074,0.491,61.921-1.935C191.485,497.635,163.575,464.501,163.575,425.147z"/>
<path style="fill:#EA8B18;" d="M187.167,507.716c-52.71,0-95.836-43.126-95.836-95.836V228.758c0-52.71,43.126-95.836,95.836-95.836
	c7.22,0,13.397-0.013,18.73-0.026c-8.146-0.069-20.009,0.026-39.335,0.026c-52.71,0-95.836,43.126-95.836,95.836V411.88
	c0,52.71,43.126,95.836,95.836,95.836c18.326,0,29.981,0.076,38.103,0.02C199.613,507.726,193.833,507.716,187.167,507.716z"/>
<path style="fill:#F7991E;" d="M282.584,132.922H229.66c-45.413,0-82.569,37.156-82.569,82.569v209.656
	c0,45.413,37.156,82.569,82.569,82.569h52.924c45.413,0,82.569-37.156,82.569-82.569V215.491
	C365.153,170.078,327.997,132.922,282.584,132.922z"/>
<path style="fill:#EA8B18;" d="M167.696,425.147V215.491c0-45.413,37.156-82.569,82.569-82.569H229.66
	c-45.413,0-82.569,37.156-82.569,82.569v209.656c0,45.413,37.156,82.569,82.569,82.569h20.605
	C204.852,507.716,167.696,470.56,167.696,425.147z"/>
<path style="fill:#7F573C;" d="M225.208,110.279c-4.688-0.743-9.301-2.144-13.725-4.2c-10.363-4.815-18.23-13.377-22.153-24.109
	c-3.923-10.733-3.431-22.35,1.384-32.713c4.026-8.664,11.185-15.243,20.159-18.523s18.688-2.868,27.352,1.157
	c3.87,1.798,5.55,6.394,3.751,10.263c-1.798,3.87-6.393,5.546-10.263,3.751c-4.921-2.286-10.439-2.52-15.535-0.657
	c-5.096,1.862-9.163,5.599-11.449,10.52c-3.076,6.619-3.39,14.04-0.884,20.895c2.506,6.856,7.531,12.324,14.15,15.4
	c8.742,4.062,18.543,4.477,27.596,1.168c9.054-3.309,16.277-9.946,20.339-18.688c1.798-3.87,6.393-5.55,10.263-3.751
	c3.87,1.798,5.55,6.393,3.751,10.263c-5.802,12.485-16.118,21.964-29.049,26.69C242.547,110.799,233.752,111.633,225.208,110.279z"
	/>
<g>
</g>
<g>
</g>
<g>
</g>
<g>
</g>
<g>
</g>
<g>
</g>
<g>
</g>
<g>
</g>
<g>
</g>
<g>
</g>
<g>
</g>
<g>
</g>
<g>
</g>
<g>
</g>
<g>
</g>
</svg>
