<?xml version="1.0" encoding="iso-8859-1"?>
<!-- Generator: Adobe Illustrator 19.0.0, SVG Export Plug-In . SVG Version: 6.00 Build 0)  -->
<svg version="1.1" id="Capa_1" xmlns="http://www.w3.org/2000/svg" xmlns:xlink="http://www.w3.org/1999/xlink" x="0px" y="0px"
	 viewBox="0 0 512 512" style="enable-background:new 0 0 512 512;" xml:space="preserve">
<path style="fill:#EFC797;" d="M339.341,141.686c-42.115-41.239-37.716-97.753-30.009-131.067c1.875-8.104-7.63-13.918-13.965-8.528
	l-36.798,31.312H256L219.202,2.091c-6.335-5.39-15.84,0.424-13.965,8.528c7.707,33.314,12.106,89.828-30.009,131.067H339.341z"/>
<path style="fill:#E0B586;" d="M225.874,10.619c-0.243-1.048-0.291-2.056-0.185-3.008l-6.487-5.52
	c-6.335-5.39-15.84,0.424-13.965,8.528c7.707,33.314,12.106,89.828-30.009,131.067h20.637
	C237.98,100.448,233.581,43.933,225.874,10.619z"/>
<path style="fill:#F7E9A9;" d="M323.866,135.14L323.866,135.14c-50.107-38.11-63.404-89.342-66.776-109.12
	c-0.21-1.234-1.969-1.234-2.179,0c-3.372,19.778-16.669,71.01-66.776,109.12l0,0C231.242,116.189,280.658,116.145,323.866,135.14z"
	/>
<path style="fill:#EAD992;" d="M263.55,51.144c-3.529-10.401-5.448-19.186-6.46-25.124c-0.21-1.234-1.968-1.234-2.179,0
	c-3.372,19.778-16.669,71.01-66.776,109.12c8.425-3.704,17.092-6.675,25.905-8.933C241.881,101.358,256.221,72.747,263.55,51.144z"
	/>
<path style="fill:#CC9A5E;" d="M203.528,466.945c-15.174,9.739-23.532,23.037-23.532,37.443c0,4.204,3.408,7.612,7.612,7.612
	s7.612-3.408,7.612-7.612c0-13.394,12.918-25.367,31.562-31.645c-4.765,8.677-7.577,19.614-7.577,31.645
	c0,4.204,3.408,7.612,7.612,7.612s7.612-3.408,7.612-7.612c0-19.666,9.878-36.281,21.571-36.281s21.571,16.615,21.571,36.281
	c0,4.204,3.408,7.612,7.612,7.612s7.612-3.408,7.612-7.612c0-12.032-2.812-22.969-7.577-31.645
	c18.644,6.278,31.562,18.251,31.562,31.645c0,4.204,3.408,7.612,7.612,7.612s7.612-3.408,7.612-7.612
	C332.004,458.068,250.746,436.644,203.528,466.945z"/>
<circle style="fill:#F7E9A9;" cx="256" cy="290.21" r="170.29"/>
<path style="fill:#EAD992;" d="M106.011,290.207c0-90.639,70.818-164.726,160.139-169.978c-3.359-0.197-6.741-0.309-10.149-0.309
	c-94.047,0-170.288,76.24-170.288,170.288S161.953,460.495,256,460.495c3.409,0,6.79-0.112,10.149-0.309
	C176.828,454.934,106.011,380.846,106.011,290.207z"/>
<ellipse style="fill:#EFC797;" cx="256" cy="290.21" rx="116.53" ry="170.29"/>
<g>
	<path style="fill:#E0B586;" d="M159.771,290.207c0-89.049,46.776-162.121,106.379-169.638c-3.346-0.422-6.729-0.65-10.149-0.65
		c-64.357,0-116.528,76.24-116.528,170.288S191.643,460.495,256,460.495c3.42,0,6.804-0.228,10.149-0.65
		C206.546,452.328,159.771,379.256,159.771,290.207z"/>
	<ellipse style="fill:#E0B586;" cx="256" cy="290.21" rx="52.766" ry="170.29"/>
</g>
<path style="fill:#CCA279;" d="M223.533,290.207c0-82.842,18.331-151.856,42.617-167.128c-3.285-2.066-6.677-3.16-10.149-3.16
	c-29.142,0-52.766,76.24-52.766,170.288S226.858,460.495,256,460.495c3.472,0,6.864-1.094,10.149-3.16
	C241.864,442.063,223.533,373.049,223.533,290.207z"/>
<g>
</g>
<g>
</g>
<g>
</g>
<g>
</g>
<g>
</g>
<g>
</g>
<g>
</g>
<g>
</g>
<g>
</g>
<g>
</g>
<g>
</g>
<g>
</g>
<g>
</g>
<g>
</g>
<g>
</g>
</svg>
