<?xml version="1.0" encoding="iso-8859-1"?>
<!-- Generator: Adobe Illustrator 19.0.0, SVG Export Plug-In . SVG Version: 6.00 Build 0)  -->
<svg version="1.1" id="Capa_1" xmlns="http://www.w3.org/2000/svg" xmlns:xlink="http://www.w3.org/1999/xlink" x="0px" y="0px"
	 viewBox="0 0 512 512" style="enable-background:new 0 0 512 512;" xml:space="preserve">
<path style="fill:#30AA44;" d="M386.515,91.927c-16.488-55.363-60.828-49.528-75.373-45.964c-3.023,0.741-6.212,0.521-9.064-0.725
	c-33.007-14.413-53.693,6.714-61.329,16.948c-2.144,2.873-5.55,4.568-9.133,4.422c-26.253-1.068-31.062,22.746-31.062,22.746v76.792
	h185.961L386.515,91.927L386.515,91.927z"/>
<path style="fill:#269E35;" d="M222.33,96.239c0,0,4.81-23.814,31.062-22.746c3.582,0.146,6.989-1.549,9.133-4.422
	c7.636-10.235,28.322-31.361,61.329-16.948c2.852,1.246,6.041,1.465,9.064,0.725c5.236-1.283,14.332-2.86,24.601-1.771
	c-17.853-10.254-37.573-7.27-46.377-5.112c-3.023,0.741-6.212,0.521-9.064-0.725c-33.007-14.413-53.693,6.714-61.329,16.948
	c-2.144,2.873-5.551,4.568-9.133,4.422c-26.252-1.068-31.062,22.746-31.062,22.746v76.792h21.776L222.33,96.239L222.33,96.239z"/>
<path style="fill:#3BBC56;" d="M237.416,124.588c-44.106-65.304-97.288-40.182-113.209-30.447
	c-3.076,1.881-6.674,2.781-10.255,2.366c-55.826-6.476-70.004,38.828-70.004,38.828v83.187h193.468L237.416,124.588L237.416,124.588
	z"/>
<path style="fill:#30AA44;" d="M67.017,143.501c0,0,14.178-45.304,70.004-38.828c3.581,0.415,7.18-0.485,10.255-2.366
	c9.07-5.546,30.237-16.079,54.926-12.047c-33.891-19.009-66.189-3.339-77.996,3.88c-3.076,1.881-6.674,2.781-10.255,2.366
	c-55.826-6.476-70.004,38.828-70.004,38.828v83.187h23.07V143.501z"/>
<path style="fill:#83CC8E;" d="M445.339,137.098c-53.684-75.279-115.653-42.056-133.708-29.836
	c-3.342,2.262-7.522,2.948-11.421,1.906c-48.484-12.967-71.947,23.514-79.553,39.087c-1.95,3.992-5.639,6.862-9.979,7.808
	c-39.611,8.635-33.415,49.19-33.415,49.19v91.737h138.854L445.339,137.098z"/>
<g>
	<path style="fill:#78C181;" d="M320.239,111.418c3.899,1.043,8.079,0.356,11.421-1.906c9.041-6.119,29.096-17.504,53.607-17.894
		c-33.297-8.167-62.23,7.924-73.636,15.644c-1.2,0.812-2.51,1.413-3.874,1.812C311.72,109.49,315.877,110.251,320.239,111.418z"/>
	<path style="fill:#78C181;" d="M197.292,296.989v-89.487c0,0-6.196-40.555,33.415-49.19c4.34-0.946,8.03-3.816,9.979-7.808
		c6.364-13.03,23.833-40.69,57.767-41.783c-47.293-11.63-70.283,24.149-77.797,39.532c-1.95,3.992-5.639,6.862-9.979,7.808
		c-39.611,8.635-33.415,49.19-33.415,49.19v91.737h20.03V296.989z"/>
</g>
<path style="fill:#9BE0A3;" d="M352.63,150.871c-1.675-3.924-6.213-5.75-10.139-4.075c-0.55,0.235-9.257,4.015-21.236,12.656
	c-3.331-10.411-8.591-16.766-8.894-17.126c-2.737-3.249-7.565-3.661-10.833-0.946c-3.267,2.715-3.714,7.578-1.02,10.862
	c0.063,0.077,5.677,7.062,7.453,17.879c-11.281,10.029-21.429,21.694-30.233,35.241c-4.676-24.358-15.39-36.589-15.98-37.246
	c-2.853-3.174-7.758-3.455-10.931-0.603c-3.174,2.852-3.453,7.716-0.601,10.891c0.147,0.168,14.471,17.027,14.202,51.367
	c-7.425,16.48-13.359,36.052-16.09,59.042c-0.503,4.238,2.524,8.081,6.762,8.584c4.202,0.506,8.077-2.496,8.584-6.761
	c4.112-34.624,15.212-55.064,15.82-56.968c7.744-16.539,18.039-31.406,30.847-44.482c19.476-19.883,37.837-28.012,38.226-28.181
	C352.484,159.327,354.303,154.793,352.63,150.871z"/>
<path style="fill:#30AA44;" d="M101.293,261.959c0,0-49.217,14.09-69.671-30.929c-1.056-2.324-2.652-4.36-4.699-5.886
	c-9.082-6.77-34.158-28.725-24.907-59.001c10.861-35.544,72.858-51.017,120.758,10.952c2.941,3.805,7.195,6.414,11.931,7.25
	c15.286,2.697,50.802,13.752,67.339,58.833c2.378,6.483,7.569,11.52,14.137,13.652c11.143,3.617,30.618,13.378,41.879,33.927
	c-4.89,8.922-9.656,19.028-11.204,32.963c-4.47,40.234,3.527,54.859,3.045,67.125v27.713c0,0-47.485,7.212-72.991-42.24
	S101.293,261.959,101.293,261.959z"/>
<path style="fill:#269E35;" d="M52.227,231.029c-1.056-2.324-2.652-4.359-4.699-5.886c-9.082-6.77-34.158-28.725-24.907-59.001
	c4.73-15.481,19.163-27.151,37.905-30.277c-28.297-4.433-52.156,9.482-58.509,30.277c-9.251,30.276,15.825,52.231,24.907,59.001
	c2.047,1.526,3.643,3.561,4.699,5.886c15.717,34.594,48.415,34.285,62.718,32.287C79.566,261.131,62.365,253.342,52.227,231.029z"/>
<path style="fill:#83CC8E;" d="M176.421,348.197c-24.154-45.466-51.058-100.295-116.302-142.569
	c-2.228-1.443-4.629,1.607-2.698,3.428c24.723,23.322,65.274,71.72,93.279,156.735C183.941,466.7,234.857,473.413,256,471.357
	v-58.706C239.482,411.409,204.945,401.888,176.421,348.197z"/>
<path style="fill:#78C181;" d="M175.72,365.791c-10.141-30.784-21.928-56.743-34.011-78.473
	c-18.969-28.603-43.863-57.245-81.59-81.69c-2.228-1.443-4.629,1.607-2.698,3.428c24.723,23.322,65.274,71.72,93.279,156.735
	C183.941,466.7,234.857,473.413,256,471.357v-2.592C231.592,461.415,199.235,437.174,175.72,365.791z"/>
<path style="fill:#30AA44;" d="M410.707,261.959c0,0,49.218,14.09,69.671-30.929c1.056-2.324,2.652-4.36,4.699-5.886
	c9.082-6.771,34.158-28.725,24.907-59.001c-10.861-35.545-72.858-51.017-120.758,10.952c-2.941,3.805-7.195,6.414-11.931,7.25
	c-15.286,2.697-50.803,13.752-67.339,58.833c-2.378,6.483-7.569,11.52-14.137,13.652c-15.981,5.188-44.878,20.861-49.992,66.89
	c-7.139,64.255,20.15,63.196-11.853,91.518c0,0,0.796,17.573,38.185,10.018C309.548,417.699,410.707,261.959,410.707,261.959z"/>
<path style="fill:#269E35;" d="M256,415.237c32.003-28.322,4.714-27.263,11.853-91.518c5.114-46.029,34.011-61.702,49.992-66.89
	c6.568-2.132,11.759-7.169,14.137-13.652c16.537-45.081,52.053-56.137,67.339-58.833c4.736-0.836,8.99-3.445,11.931-7.25
	c19.627-25.392,41.619-37.775,61.492-41.109c-24.377-4.354-56.233,5.809-83.519,41.109c-2.941,3.805-7.195,6.414-11.931,7.25
	c-15.286,2.697-50.802,13.752-67.339,58.833c-2.378,6.483-7.569,11.52-14.137,13.652c-15.982,5.188-44.878,20.861-49.992,66.89
	c-7.139,64.255,20.15,63.196-11.853,91.518c0,0,0.754,16.161,33.834,10.802C256.374,423.095,256,415.237,256,415.237z"/>
<path style="fill:#83CC8E;" d="M335.579,348.197c-32.23,60.669-72.159,64.949-85.067,64.604c-1.387-0.207-2.795-0.349-4.239-0.349
	c-15.737,0-28.494,12.757-28.494,28.494c0,14.441,10.742,26.372,24.671,28.24c2.662,0.357,5.315,0.797,7.946,1.337
	c15.903,3.265,74.187,6.73,110.903-104.731c28.005-85.015,68.556-133.412,93.279-156.735c1.931-1.821-0.471-4.871-2.698-3.428
	C386.637,247.902,359.733,302.731,335.579,348.197z"/>
<g>
	<path style="fill:#78C181;" d="M238.766,454.215c0-15.737,12.757-28.494,28.494-28.494c1.445,0,2.852,0.142,4.239,0.349
		c12.909,0.345,52.837-3.935,85.067-64.604c6.757-12.719,13.731-26.172,21.698-39.877c25.75-58.147,56.247-93.602,76.315-112.534
		c1.93-1.821-0.471-4.871-2.698-3.428c-65.244,42.274-92.148,97.103-116.302,142.569c-32.23,60.669-72.159,64.949-85.067,64.604
		c-1.387-0.207-2.794-0.349-4.239-0.349c-15.737,0-28.494,12.757-28.494,28.494c0,14.441,10.742,26.372,24.671,28.24
		c0.209,0.028,0.417,0.065,0.625,0.094C240.347,464.908,238.766,459.747,238.766,454.215z"/>
	<path style="fill:#78C181;" d="M337.326,361.745c-3.667,0-6.92-2.62-7.595-6.356c-4.058-22.477-18.826-36.745-18.974-36.886
		c-3.092-2.942-3.213-7.832-0.271-10.924c2.941-3.091,7.832-3.212,10.924-0.272c0.757,0.72,18.584,17.945,23.53,45.336
		c0.758,4.2-2.032,8.219-6.231,8.977C338.244,361.704,337.782,361.745,337.326,361.745z"/>
</g>
<path style="fill:#83CC8E;" d="M184.272,373.726c-0.181,0-0.363-0.006-0.547-0.019c-4.257-0.297-7.467-3.989-7.169-8.246
	c1.941-27.767,17.791-46.827,18.465-47.625c2.754-3.26,7.629-3.67,10.889-0.917c3.254,2.749,3.669,7.611,0.932,10.871
	c-0.155,0.186-13.294,16.198-14.87,38.747C191.688,370.611,188.294,373.726,184.272,373.726z"/>
<g>
</g>
<g>
</g>
<g>
</g>
<g>
</g>
<g>
</g>
<g>
</g>
<g>
</g>
<g>
</g>
<g>
</g>
<g>
</g>
<g>
</g>
<g>
</g>
<g>
</g>
<g>
</g>
<g>
</g>
</svg>
