<?xml version="1.0" encoding="iso-8859-1"?>
<!-- Generator: Adobe Illustrator 19.0.0, SVG Export Plug-In . SVG Version: 6.00 Build 0)  -->
<svg version="1.1" id="Capa_1" xmlns="http://www.w3.org/2000/svg" xmlns:xlink="http://www.w3.org/1999/xlink" x="0px" y="0px"
	 viewBox="0 0 512 512" style="enable-background:new 0 0 512 512;" xml:space="preserve">
<path style="fill:#30AA44;" d="M264.032,3.619C262.007,1.319,259.078,0,255.999,0c-3.079,0-6.007,1.32-8.032,3.62
	c-18.714,21.254-30.586,43.623-35.287,66.483l-0.057,0.276l0.203,0.196c21.089,20.429,35.837,48.425,41.135,82.857
	c2.445-0.012,1.573-0.012,4.074,0c4.887-31.766,18.24-60.699,41.338-83.054C294.164,45.022,280.912,22.794,264.032,3.619z"/>
<path style="fill:#269E35;" d="M234.973,72.115L234.973,72.115c-1.098-1.08-1.564-2.649-1.232-4.153l0.289-1.311
	c4.507-21.92,14.86-39.932,32.264-60.398c-0.749-0.881-1.498-1.764-2.263-2.632C262.007,1.319,259.078,0,255.999,0
	c-3.079,0-6.007,1.32-8.032,3.62c-18.714,21.254-30.586,43.623-35.287,66.483l-0.057,0.276l0.203,0.196
	c21.089,20.429,35.837,48.425,41.135,82.857c2.445-0.012,1.573-0.012,4.074,0c1.7-11.054,4.451-21.753,8.257-31.963
	C258.791,101.345,249.095,85.794,234.973,72.115z"/>
<path style="fill:#30AA44;" d="M153.761,35.545c-2.268-0.695-4.699-0.339-6.67,0.975c-1.962,1.31-3.219,3.407-3.446,5.755
	c-2.57,26.534,1.477,55.211,15.443,78.778c18.047,6.185,35.603,18.076,49.494,35.019c14.058-1.643,29.042-2.584,46.419-2.643
	C246.294,96.855,212.431,53.523,153.761,35.545z"/>
<path style="fill:#269E35;" d="M186.121,123.517c-4.591-1.937-8.304-5.484-10.484-9.966c-10.7-22-13.711-47.498-11.408-71.276
	c0.097-1.003,0.393-1.956,0.841-2.826c-3.587-1.378-7.272-2.66-11.067-3.829c-1.953-0.602-4.096-0.543-5.937,0.344
	c-2.517,1.214-4.158,3.595-4.421,6.312c-2.57,26.534,1.477,55.211,15.443,78.778c18.048,6.185,35.603,18.076,49.494,35.019
	c6.149-0.719,12.491-1.294,19.117-1.729C215.739,140.31,201.244,129.896,186.121,123.517z"/>
<path style="fill:#30AA44;" d="M368.354,42.275c-0.227-2.348-1.483-4.445-3.446-5.754c-1.971-1.316-4.401-1.669-6.67-0.975
	c-58.599,17.957-92.522,61.232-101.241,117.885c17.37,0.058,32.355,0.999,46.419,2.643c13.108-15.988,30.323-28.449,49.494-35.019
	C366.679,97.82,370.974,69.304,368.354,42.275z"/>
<path style="fill:#269E35;" d="M368.089,40.918c-0.499-1.786-1.607-3.347-3.181-4.397c-1.971-1.316-4.401-1.669-6.67-0.975
	c-58.599,17.957-92.522,61.232-101.241,117.885c6.976,0.023,13.553,0.195,19.855,0.492
	C285.432,101.247,315.984,60.338,368.089,40.918z"/>
<path style="fill:#30AA44;" d="M419.146,120.55c-46.559-14.957-88.579,0.724-116.944,35.381c24.33,2.84,41.944,6.122,62.379,19.359
	c25.236-5.157,45.463-23.998,57.93-46.205C424.342,125.823,422.72,121.698,419.146,120.55z"/>
<path style="fill:#269E35;" d="M422.918,124.212c-0.593-1.664-1.916-3.065-3.772-3.661c-46.559-14.957-88.579,0.724-116.944,35.381
	c8.797,1.027,16.707,2.119,24.199,3.71C351.05,131.934,384.999,117.841,422.918,124.212z"/>
<path style="fill:#30AA44;" d="M92.852,120.55c-1.705,0.548-3.058,1.816-3.711,3.48c-0.651,1.658-0.525,3.5,0.347,5.053
	c12.357,22.013,32.531,41.015,57.929,46.205c20.471-13.26,38.334-16.552,62.38-19.359
	C179.015,118.323,135.924,106.715,92.852,120.55z"/>
<g>
	<path style="fill:#269E35;" d="M110.071,129.084c-0.872-1.553-0.998-3.395-0.347-5.053c0.654-1.664,2.006-2.933,3.711-3.48
		c8.151-2.618,16.301-4.321,24.369-5.113c-14.629-1.46-29.792,0.243-44.953,5.113c-1.705,0.548-3.058,1.816-3.711,3.48
		c-0.651,1.658-0.525,3.5,0.347,5.053c12.357,22.013,32.531,41.015,57.929,46.205c2.383-1.544,4.728-2.939,7.055-4.228
		C135.414,162.969,120.145,147.029,110.071,129.084z"/>
	<path style="fill:#269E35;" d="M256.997,127.875c-4.263,0-7.719-3.456-7.719-7.719V51.885c0-4.263,3.455-7.719,7.719-7.719
		s7.719,3.456,7.719,7.719v68.271C264.716,124.42,261.26,127.875,256.997,127.875z"/>
	<path style="fill:#269E35;" d="M236.749,173.538c-3.124,0-6.065-1.911-7.228-5.007c-12.493-33.275-51.626-80.211-52.02-80.681
		c-2.737-3.268-2.307-8.137,0.96-10.874c3.269-2.738,8.137-2.307,10.874,0.959c1.676,2.001,41.217,49.417,54.64,85.169
		c1.498,3.991-0.523,8.441-4.512,9.94C238.568,173.379,237.65,173.538,236.749,173.538z"/>
	<path style="fill:#269E35;" d="M284.047,173.538c-0.901,0-1.818-0.159-2.711-0.494c-3.991-1.498-6.013-5.949-4.513-9.939
		c7.638-20.345,23.907-44.633,36.211-61.425c2.52-3.439,7.353-4.183,10.789-1.664c3.439,2.52,4.184,7.35,1.664,10.789
		c-11.731,16.012-27.19,39.024-34.211,57.726C290.112,171.627,287.172,173.538,284.047,173.538z"/>
</g>
<path style="fill:#EA473B;" d="M324.014,158.622c-41.787-7.637-94.179-7.648-136.03,0c-65.712,12.009-106.038,78.629-86.373,142.468
	c30.078,97.641,73.235,156.949,106.279,190.704c26.373,26.94,69.847,26.94,96.22,0c33.043-33.754,76.202-93.063,106.278-190.703
	C430.053,237.25,389.725,170.631,324.014,158.622z"/>
<path style="fill:#DD332F;" d="M228.474,491.794c-33.043-33.754-76.202-93.063-106.278-190.704
	c-19.665-63.839,20.662-130.459,86.373-142.468c17.868-3.265,37.657-5.129,57.722-5.604c-26.911-0.638-54.338,1.225-78.306,5.604
	c-65.712,12.009-106.038,78.629-86.373,142.468c30.077,97.641,73.234,156.949,106.278,190.704
	c15.786,16.125,37.697,22.589,58.402,19.41C252.406,509.073,239.061,502.609,228.474,491.794z"/>
<path style="fill:#FFA92C;" d="M188.425,254.182c0,9.563-7.752,17.314-17.314,17.314s-17.314-7.752-17.314-17.314
	s7.752-26.913,17.314-26.913S188.425,244.619,188.425,254.182z"/>
<path style="fill:#F7991E;" d="M174.379,254.182c0-5.708,2.763-14.188,7.023-20.1c-2.877-3.992-6.438-6.815-10.292-6.815
	c-9.563,0-17.315,17.352-17.315,26.913c0,9.563,7.753,17.314,17.315,17.314c3.86,0,7.413-1.279,10.292-3.414
	C177.148,264.928,174.379,259.885,174.379,254.182z"/>
<path style="fill:#FFA92C;" d="M273.314,254.182c0,9.563-7.752,17.314-17.314,17.314s-17.314-7.752-17.314-17.314
	s7.752-26.913,17.314-26.913C265.562,227.269,273.314,244.619,273.314,254.182z"/>
<path style="fill:#F7991E;" d="M259.268,254.182c0-5.708,2.763-14.188,7.023-20.1c-2.877-3.992-6.438-6.815-10.292-6.815
	c-9.563,0-17.315,17.352-17.315,26.913c0,9.563,7.753,17.314,17.315,17.314c3.86,0,7.413-1.279,10.292-3.414
	C262.038,264.928,259.268,259.885,259.268,254.182z"/>
<path style="fill:#FFA92C;" d="M358.204,254.182c0,9.563-7.752,17.314-17.314,17.314c-9.563,0-17.314-7.752-17.314-17.314
	s7.752-26.913,17.314-26.913S358.204,244.619,358.204,254.182z"/>
<path style="fill:#F7991E;" d="M344.158,254.182c0-5.708,2.763-14.188,7.023-20.1c-2.877-3.992-6.438-6.815-10.292-6.815
	c-9.563,0-17.315,17.352-17.315,26.913c0,9.563,7.753,17.314,17.315,17.314c3.86,0,7.413-1.279,10.292-3.414
	C346.927,264.928,344.158,259.885,344.158,254.182z"/>
<path style="fill:#FFA92C;" d="M315.759,338.185c0,9.563-7.752,17.314-17.314,17.314c-9.563,0-17.314-7.752-17.314-17.314
	c0-9.563,7.752-26.913,17.314-26.913C308.006,311.271,315.759,328.622,315.759,338.185z"/>
<path style="fill:#F7991E;" d="M301.713,338.185c0-5.707,2.763-14.188,7.023-20.1c-2.877-3.992-6.438-6.815-10.292-6.815
	c-9.563,0-17.315,17.351-17.315,26.913c0,9.563,7.753,17.314,17.315,17.314c3.86,0,7.413-1.279,10.292-3.414
	C304.482,348.931,301.713,343.888,301.713,338.185z"/>
<path style="fill:#FFA92C;" d="M230.87,338.185c0,9.563-7.752,17.314-17.314,17.314s-17.314-7.752-17.314-17.314
	c0-9.563,7.752-26.913,17.314-26.913S230.87,328.622,230.87,338.185z"/>
<path style="fill:#F7991E;" d="M216.824,338.185c0-5.707,2.763-14.188,7.023-20.1c-2.877-3.992-6.438-6.815-10.292-6.815
	c-9.563,0-17.315,17.351-17.315,26.913c0,9.563,7.753,17.314,17.315,17.314c3.86,0,7.413-1.279,10.292-3.414
	C219.593,348.931,216.824,343.888,216.824,338.185z"/>
<path style="fill:#FFA92C;" d="M273.314,422.187c0,9.563-7.752,17.314-17.314,17.314s-17.314-7.752-17.314-17.314
	c0-9.563,7.752-26.913,17.314-26.913C265.562,395.274,273.314,412.624,273.314,422.187z"/>
<path style="fill:#F7991E;" d="M259.268,422.187c0-5.707,2.763-14.188,7.023-20.1c-2.877-3.992-6.438-6.815-10.292-6.815
	c-9.563,0-17.315,17.352-17.315,26.913c0,9.563,7.753,17.314,17.315,17.314c3.86,0,7.413-1.279,10.292-3.414
	C262.038,432.933,259.268,427.89,259.268,422.187z"/>
<g>
</g>
<g>
</g>
<g>
</g>
<g>
</g>
<g>
</g>
<g>
</g>
<g>
</g>
<g>
</g>
<g>
</g>
<g>
</g>
<g>
</g>
<g>
</g>
<g>
</g>
<g>
</g>
<g>
</g>
</svg>
