<?xml version="1.0" encoding="iso-8859-1"?>
<!-- Generator: Adobe Illustrator 19.0.0, SVG Export Plug-In . SVG Version: 6.00 Build 0)  -->
<svg version="1.1" id="Capa_1" xmlns="http://www.w3.org/2000/svg" xmlns:xlink="http://www.w3.org/1999/xlink" x="0px" y="0px"
	 viewBox="0 0 511.999 511.999" style="enable-background:new 0 0 511.999 511.999;" xml:space="preserve">
<path style="fill:#E0B377;" d="M255.955,0C134.153,0,34.2,93.522,23.973,212.675c-0.429,5.001,2.967,9.555,7.9,10.481
	c47.709,8.96,99.122,15.139,153.025,18.053c19.389,1.048,33.662,18.554,30.644,37.736l-22.964,145.983
	c-13.603,42.118,16.873,84.541,59.492,86.959c46.855,2.659,81.615-42.487,67.261-86.959l-22.286-141.676
	c-3.375-21.459,12.561-41.037,34.247-42.281c52.757-3.029,103.086-9.188,149.84-18.021c4.29-0.81,7.254-4.757,6.902-9.108
	C478.362,94.133,378.155,0,255.955,0z"/>
<g>
	<path style="fill:#CC9A5E;" d="M44.965,216.796C55.193,97.643,155.146,4.121,276.947,4.121c11.769,0,23.33,0.882,34.63,2.567
		C293.754,2.319,275.126,0,255.955,0C134.153,0,34.201,93.522,23.973,212.675c-0.429,5.001,2.967,9.555,7.9,10.481
		c6.124,1.15,12.311,2.253,18.554,3.31C46.862,224.733,44.611,220.919,44.965,216.796z"/>
	<path style="fill:#CC9A5E;" d="M213.572,429.049l22.964-145.983c3.018-19.182-11.255-36.688-30.644-37.736
		c-2.514-0.136-5.017-0.286-7.521-0.436c12.005,6.283,19.431,19.697,17.173,34.052L192.58,424.929
		c-13.603,42.118,16.873,84.541,59.492,86.959c0.553,0.031,1.102,0.05,1.652,0.068C221.844,500.057,202.139,464.447,213.572,429.049
		z"/>
	<path style="fill:#CC9A5E;" d="M392.97,235.882c-1.853-45.121-16.974-76.401-36.176-98.042
		c-29.515-33.261-84.22-7.094-77.11,36.802l16.961,104.727l0,0c-1.016-19.885,14.278-37.23,34.649-38.4
		C352.267,239.767,372.836,238.047,392.97,235.882L392.97,235.882z"/>
	<path style="fill:#CC9A5E;" d="M155.248,137.841c-19.203,21.641-34.323,52.921-36.176,98.042l0,0
		c20.017,2.152,40.466,3.862,61.313,5.065c1.505,0.087,3.005,0.18,4.514,0.262c18.707,1.011,32.645,17.343,30.894,35.718
		l16.565-102.284C239.467,130.747,184.763,104.579,155.248,137.841z"/>
</g>
<g>
	<path style="fill:#B78855;" d="M179.39,139.312c6.473-7.294,14.05-11.978,21.968-14.43c-15.314-4.793-33.143-1.655-46.11,12.959
		c-19.203,21.641-34.323,52.921-36.176,98.042l0,0c6.99,0.752,14.052,1.428,21.146,2.069
		C143.775,193.214,159.61,161.604,179.39,139.312z"/>
	<path style="fill:#B78855;" d="M351.27,187.53c-27.817-21.472-67.638,1.798-62.613,36.577l7.987,55.262
		c-1.016-19.885,14.278-37.23,34.649-38.4c20.974-1.204,41.544-2.923,61.677-5.088C380.352,214.265,365.74,198.699,351.27,187.53z"
		/>
	<path style="fill:#B78855;" d="M160.773,187.53c-14.47,11.169-29.083,26.735-41.701,48.354c21.464,2.306,43.415,4.113,65.827,5.325
		c18.717,1.012,32.617,17.366,30.847,35.754l7.639-52.855C228.412,189.329,188.59,166.058,160.773,187.53z"/>
</g>
<g>
	<path style="fill:#A3764A;" d="M200.691,246.239c0.549,0.348,1.082,0.716,1.607,1.095c0.255,0.183,0.504,0.371,0.753,0.561
		c0.327,0.251,0.648,0.51,0.965,0.772c0.438,0.361,0.863,0.734,1.281,1.117c0.217,0.199,0.435,0.398,0.646,0.603
		c0.315,0.305,0.624,0.614,0.927,0.931c0.09,0.094,0.176,0.192,0.264,0.287c0.644,0.691,1.257,1.408,1.839,2.151
		c0.025,0.031,0.05,0.062,0.074,0.093c4.795,6.163,7.417,14.019,6.809,22.349l3.897-26.967c-4.135-2.237-8.823-3.629-13.863-3.901
		c-2.514-0.136-5.017-0.286-7.521-0.436c0.117,0.061,0.226,0.133,0.341,0.196c0.501,0.27,0.993,0.552,1.476,0.847
		C200.355,246.038,200.526,246.134,200.691,246.239z"/>
	<path style="fill:#A3764A;" d="M146.922,199.651c-9.757,9.626-19.265,21.525-27.849,36.232c0.455,0.049,0.917,0.092,1.373,0.14
		c3.531,0.376,7.086,0.727,10.644,1.075c3.036,0.292,6.077,0.579,9.129,0.854C141.332,223.935,143.653,211.208,146.922,199.651z"/>
</g>
<g>
</g>
<g>
</g>
<g>
</g>
<g>
</g>
<g>
</g>
<g>
</g>
<g>
</g>
<g>
</g>
<g>
</g>
<g>
</g>
<g>
</g>
<g>
</g>
<g>
</g>
<g>
</g>
<g>
</g>
</svg>
