<?xml version="1.0" encoding="iso-8859-1"?>
<!-- Generator: Adobe Illustrator 19.0.0, SVG Export Plug-In . SVG Version: 6.00 Build 0)  -->
<svg version="1.1" id="Capa_1" xmlns="http://www.w3.org/2000/svg" xmlns:xlink="http://www.w3.org/1999/xlink" x="0px" y="0px"
	 viewBox="0 0 512.001 512.001" style="enable-background:new 0 0 512.001 512.001;" xml:space="preserve">
<path style="fill:#3BBC56;" d="M210.682,151.049c10.316,8.965,21.349,19.879,30.104,33.139c2.406-12.818,6.761-31.043,14.383-50.982
	C243.915,92.724,217.518,32.063,161.595,0.28c-1.88-1.069-3.914,1.143-2.648,2.897C171.74,20.887,202.378,72.574,210.682,151.049z"
	/>
<path style="fill:#30AA44;" d="M228.199,142.252c-5.881-52.4-21.673-92.647-35.171-118.581c-9.27-8.763-19.693-16.719-31.433-23.391
	c-1.88-1.069-3.914,1.143-2.648,2.897c12.793,17.71,43.431,69.397,51.736,147.873c10.316,8.965,21.349,19.879,30.104,33.139
	c1.191-6.346,2.862-14.019,5.168-22.567c-5.132-5.687-10.5-10.841-15.737-15.479C229.086,145.14,228.367,143.755,228.199,142.252z"
	/>
<path style="fill:#3BBC56;" d="M256,215.723c8.917-22.904,21.445-40.881,35.127-54.991c10.49-68.997,37.741-115.01,49.617-131.451
	c1.267-1.754-0.768-3.966-2.648-2.897c-69.021,39.228-91.501,121.364-98.34,157.805C245.903,193.498,251.423,203.966,256,215.723z"
	/>
<path style="fill:#30AA44;" d="M260.603,181.57c6.202-31.499,23.348-92.17,68.324-133.573c4.6-8.154,8.73-14.443,11.817-18.716
	c1.266-1.754-0.768-3.966-2.648-2.897c-69.021,39.228-91.501,121.364-98.34,157.805c6.146,9.309,11.667,19.778,16.244,31.534
	c3.01-7.732,6.44-14.89,10.179-21.539c-1.499-2.67-3.045-5.263-4.639-7.771C260.623,184.97,260.273,183.247,260.603,181.57z"/>
<path style="fill:#FCB960;" d="M290.158,232.581v-2.414h-68.316v2.414c0,12.977-7.137,25.064-18.757,30.841
	c-42.027,20.893-71.112,65.881-71.112,118.044c0,72.089,55.529,130.529,124.027,130.529s124.027-58.44,124.027-130.529
	c0-52.163-29.085-97.151-71.112-118.044C297.295,257.645,290.158,245.558,290.158,232.581z"/>
<path style="fill:#FFA92C;" d="M152.875,381.466c0-52.163,29.085-97.151,71.112-118.044c11.62-5.777,18.757-17.864,18.757-30.841
	v-2.414h-20.901v2.414c0,12.977-7.136,25.064-18.757,30.841c-42.027,20.893-71.112,65.881-71.112,118.044
	c0,72.089,55.529,130.529,124.027,130.529c3.521,0,7.004-0.163,10.451-0.465C202.844,505.943,152.875,449.85,152.875,381.466z"/>
<path style="fill:#F7991E;" d="M304.685,501.543l-32.538-32.538c-8.881-8.881-23.413-8.881-32.294,0l-32.538,32.538
	C237.877,515.286,273.236,515.685,304.685,501.543z"/>
<path style="fill:#EA8B18;" d="M266.451,511.529c-18.808-1.652-36.422-7.721-51.905-17.217l-7.231,7.231
	c12.329,5.544,25.438,8.913,38.757,10.035c0.1,0.008,0.2,0.02,0.3,0.028c0.38,0.031,0.761,0.051,1.142,0.078
	c0.699,0.05,1.397,0.102,2.099,0.14c0.019,0.001,0.037,0.001,0.056,0.002c2.097,0.111,4.208,0.168,6.331,0.168
	C259.521,511.995,263.004,511.832,266.451,511.529z"/>
<path style="fill:#FFA92C;" d="M235.099,473.759l-23.783-23.782c-8.88-8.881-23.413-8.881-32.293,0l-16.827,16.827
	c12.259,14.911,27.684,26.839,45.155,34.703L235.099,473.759z"/>
<path style="fill:#F7991E;" d="M214.545,494.312c-16.08-9.861-29.856-23.422-40.287-39.571l-12.063,12.063
	c12.259,14.911,27.685,26.839,45.155,34.703L214.545,494.312z"/>
<path style="fill:#FFA92C;" d="M332.977,449.977c-8.88-8.881-23.413-8.881-32.293,0l-23.783,23.782l27.748,27.748
	c17.471-7.864,32.896-19.791,45.155-34.703L332.977,449.977z"/>
<path style="fill:#F7991E;" d="M235.099,473.759l4.754-4.755c8.881-8.881,23.413-8.881,32.294,0l4.754,4.755
	c25.965-25.964,24.885-25.231,28.279-27.24l-33.034-33.034c-8.881-8.881-23.413-8.881-32.294,0l-33.034,33.034
	C210.213,448.528,209.146,447.807,235.099,473.759z"/>
<g>
	<path style="fill:#FCB960;" d="M305.181,446.519c8.756-5.184,20.29-4.049,27.796,3.458l16.827,16.827
		c9.913-12.052,17.772-26.027,22.981-41.338l-29.454-29.454c-8.88-8.881-23.412-8.881-32.293,0l-28.182,28.182L305.181,446.519z"/>
	<path style="fill:#FCB960;" d="M179.023,449.977c7.506-7.507,19.041-8.642,27.796-3.458l22.325-22.326l-28.182-28.182
		c-8.881-8.881-23.413-8.881-32.293,0l-29.454,29.454c5.209,15.311,13.068,29.286,22.981,41.338L179.023,449.977z"/>
</g>
<g>
	<path style="fill:#FFA92C;" d="M155.65,409.031l-16.435,16.434c5.209,15.311,13.068,29.286,22.981,41.338l12.063-12.063
		C165.464,441.124,159.049,425.669,155.65,409.031z"/>
	<path style="fill:#FFA92C;" d="M272.147,413.485l10.708,10.708l0,0c30.672-30.672,28.541-28.607,29.809-29.651l-40.517-40.517
		c-8.881-8.881-23.413-8.881-32.294,0l-40.517,40.517c1.276,1.052-0.805-0.963,29.809,29.651l0,0l10.708-10.708
		C248.734,404.605,263.266,404.605,272.147,413.485z"/>
</g>
<path style="fill:#F7991E;" d="M168.67,396.012c8.358-8.358,21.719-8.844,30.666-1.469l32.794-32.794l-31.803-31.803
	c-8.88-8.881-23.413-8.881-32.293,0l-35.042,35.042c-0.647,5.401-1.018,10.893-1.018,16.478c0,15.442,2.567,30.247,7.25,43.992
	L168.67,396.012z"/>
<path style="fill:#EA8B18;" d="M152.875,381.466c0-15.223,2.493-29.827,7.046-43.408l-26.929,26.929
	c-0.48,4.003-0.805,8.056-0.943,12.16c-0.044,1.415-0.074,2.834-0.074,4.26c0,0.019-0.001,0.038-0.001,0.058
	c0,0.013,0.001,0.026,0.001,0.038c0,1.034,0.014,2.065,0.037,3.093c0.009,0.384,0.024,0.766,0.036,1.149
	c0.02,0.65,0.041,1.299,0.07,1.947c0.021,0.478,0.048,0.954,0.074,1.43c0.029,0.532,0.061,1.063,0.096,1.592
	c0.037,0.551,0.076,1.1,0.12,1.649c0.033,0.423,0.07,0.844,0.107,1.266c0.056,0.635,0.113,1.269,0.178,1.901
	c0.026,0.255,0.056,0.51,0.083,0.765c1.094,10.117,3.287,19.882,6.449,29.163l16.427-16.426
	C153.835,400.145,152.875,390.924,152.875,381.466z"/>
<path style="fill:#F7991E;" d="M312.664,394.542c8.947-7.375,22.308-6.889,30.666,1.469l29.446,29.446
	c4.684-13.745,7.25-28.55,7.25-43.992c0-5.586-0.371-11.077-1.018-16.478l-35.042-35.042c-8.88-8.881-23.413-8.881-32.293,0
	l-31.803,31.803L312.664,394.542z"/>
<path style="fill:#EA8B18;" d="M232.13,361.748l7.723-7.723c8.881-8.881,23.413-8.881,32.294,0l7.723,7.723l30.048-30.047
	l-37.771-37.771c-8.881-8.881-23.413-8.881-32.294,0l-37.771,37.771L232.13,361.748z"/>
<g>
	<path style="fill:#FFA92C;" d="M309.918,331.701l1.756-1.756c8.88-8.881,23.413-8.881,32.293,0l31.433,31.433l2.704-2.704
		c-7.096-42.382-33.596-77.704-69.524-95.433l-33.561,33.56L309.918,331.701z"/>
	<path style="fill:#FFA92C;" d="M168.034,329.946c8.88-8.881,23.413-8.881,32.293,0l1.756,1.756l34.899-34.899l-33.561-33.56
		c-35.928,17.729-62.428,53.051-69.524,95.433l2.704,2.704L168.034,329.946z"/>
</g>
<path style="fill:#F7991E;" d="M159.921,338.059c9.392-28.013,27.61-51.628,51.145-67.171l-7.646-7.646
	c-0.031,0.015-0.062,0.032-0.093,0.048c-0.082,0.042-0.159,0.09-0.242,0.132c-1.308,0.65-2.604,1.324-3.886,2.021
	c-0.017,0.009-0.034,0.019-0.051,0.028c-1.213,0.66-2.414,1.342-3.603,2.042c-0.137,0.081-0.274,0.162-0.41,0.244
	c-1.088,0.646-2.165,1.31-3.233,1.989c-0.158,0.101-0.317,0.2-0.474,0.301c-1.099,0.707-2.187,1.431-3.263,2.172
	c-0.09,0.062-0.182,0.122-0.272,0.185c-2.359,1.634-4.663,3.351-6.906,5.146c-0.134,0.107-0.264,0.219-0.398,0.326
	c-0.922,0.744-1.834,1.501-2.735,2.271c-0.333,0.285-0.66,0.575-0.99,0.863c-0.691,0.603-1.377,1.213-2.055,1.831
	c-0.401,0.366-0.799,0.735-1.196,1.107c-0.589,0.551-1.171,1.11-1.75,1.673c-0.437,0.425-0.874,0.85-1.305,1.281
	c-0.511,0.511-1.012,1.031-1.515,1.551c-0.47,0.487-0.944,0.97-1.407,1.465c-0.38,0.406-0.749,0.822-1.124,1.233
	c-2.071,2.273-4.069,4.621-5.981,7.047c-0.168,0.213-0.339,0.423-0.505,0.637c-0.647,0.832-1.283,1.675-1.911,2.524
	c-0.147,0.199-0.296,0.398-0.442,0.598c-0.655,0.896-1.3,1.8-1.933,2.714c-0.078,0.113-0.156,0.227-0.234,0.34
	c-10.755,15.636-18.298,33.88-21.611,53.665l2.704,2.704L159.921,338.059z"/>
<path style="fill:#3BBC56;" d="M290.158,230.167c0,0,24.935-80.391,80.235-115.143c1.516-0.953,0.509-3.289-1.212-2.796
	c-26.721,7.667-95.253,35.024-118.736,117.939L290.158,230.167L290.158,230.167z"/>
<path style="fill:#30AA44;" d="M353.986,127.331c5.141-4.506,10.605-8.661,16.408-12.307c1.516-0.953,0.509-3.289-1.212-2.796
	c-26.72,7.667-95.253,35.024-118.736,117.939h21.411C287.658,174.376,323.854,143.741,353.986,127.331z"/>
<path style="fill:#3BBC56;" d="M221.842,230.167c0,0-24.935-80.391-80.235-115.143c-1.516-0.953-0.509-3.289,1.212-2.796
	c26.721,7.667,95.253,35.024,118.736,117.939L221.842,230.167L221.842,230.167z"/>
<path style="fill:#30AA44;" d="M177.318,126.201c-13.805-7.288-26.179-11.586-34.5-13.973c-1.721-0.494-2.728,1.843-1.212,2.796
	c55.3,34.753,80.235,115.143,80.235,115.143h20.605C242.447,230.167,222.072,164.491,177.318,126.201z"/>
<g>
</g>
<g>
</g>
<g>
</g>
<g>
</g>
<g>
</g>
<g>
</g>
<g>
</g>
<g>
</g>
<g>
</g>
<g>
</g>
<g>
</g>
<g>
</g>
<g>
</g>
<g>
</g>
<g>
</g>
</svg>
