<?xml version="1.0" encoding="iso-8859-1"?>
<!-- Generator: Adobe Illustrator 19.0.0, SVG Export Plug-In . SVG Version: 6.00 Build 0)  -->
<svg version="1.1" id="Capa_1" xmlns="http://www.w3.org/2000/svg" xmlns:xlink="http://www.w3.org/1999/xlink" x="0px" y="0px"
	 viewBox="0 0 512 512" style="enable-background:new 0 0 512 512;" xml:space="preserve">
<path id="SVGCleanerId_0" style="fill:#3BBC56;" d="M122.725,303.25c-8.325-11.749-22.079-18.712-36.932-17.99
	c-15.376,0.748-30.664-3.225-42.95-12.502c-17.967-13.566-36.894-34.812-40.278-65.373c-0.142-1.285-2.008-1.287-2.125,0
	c-1.718,19.035-0.15,61.22,37.754,102.497c7.942,8.649,7.01,19.038,7.01,18.008c0,21.055,15.25,38.537,35.304,42.033
	c-6.389-14.003-4.179-28.562,1.949-41.002C89.917,313.778,103.097,304.946,122.725,303.25z"/>
<path id="SVGCleanerId_1" style="fill:#30AA44;" d="M67.317,327.89c0,1.03,0.932-9.359-7.01-18.008
	c-14.97-16.302-24.256-32.739-29.926-47.842c-13.454-13.222-25.217-31.19-27.815-54.655c-0.142-1.285-2.008-1.287-2.125,0
	c-1.718,19.035-0.15,61.22,37.754,102.497c7.942,8.649,7.01,19.038,7.01,18.008c0,21.055,15.25,38.536,35.304,42.033
	c-2.313-5.07-3.486-10.212-3.767-15.301C70.851,347.308,67.317,338.015,67.317,327.89z"/>
<path id="SVGCleanerId_2" style="fill:#EA473B;" d="M380.055,412.522c58.565-26.17,98.762-66.566,119.053-93.065
	c2.981-3.893-2.049-8.803-5.882-5.745c-56.846,45.365-115.461,58.219-164.102,56.48
	C343.029,385.458,359.842,400.114,380.055,412.522z"/>
<path id="SVGCleanerId_3" style="fill:#EA473B;" d="M182.784,317.131c-1.954-1.116-3.945-2.198-6.006-3.213
	c-39.093-19.257-83.843-12.54-97.411,15.003c-15.069,30.592,12.162,73.226,57.792,89.651l0,0c2.687,1.008,7.283,2.43,11.667,3.462
	c63.258,17.955,119.563,19.536,165.455,11.661C269.796,411.941,224.145,375.71,182.784,317.131z"/>
<path id="SVGCleanerId_4" style="fill:#DD332F;" d="M180.249,422.034c-4.384-1.032-8.98-2.455-11.667-3.462l0,0
	c-45.631-16.425-72.862-59.059-57.792-89.651c6.447-13.089,19.943-21.463,36.521-24.593c-29.842-5.068-57.729,3.858-67.943,24.593
	c-15.07,30.592,12.162,73.226,57.792,89.651l0,0c2.687,1.008,7.283,2.43,11.667,3.462c46.321,13.148,88.907,17.508,126.413,15.812
	C245.916,436.551,214.078,431.636,180.249,422.034z"/>
<g>
	<path id="SVGCleanerId_0_1_" style="fill:#3BBC56;" d="M122.725,303.25c-8.325-11.749-22.079-18.712-36.932-17.99
		c-15.376,0.748-30.664-3.225-42.95-12.502c-17.967-13.566-36.894-34.812-40.278-65.373c-0.142-1.285-2.008-1.287-2.125,0
		c-1.718,19.035-0.15,61.22,37.754,102.497c7.942,8.649,7.01,19.038,7.01,18.008c0,21.055,15.25,38.537,35.304,42.033
		c-6.389-14.003-4.179-28.562,1.949-41.002C89.917,313.778,103.097,304.946,122.725,303.25z"/>
</g>
<g>
	<path id="SVGCleanerId_1_1_" style="fill:#30AA44;" d="M67.317,327.89c0,1.03,0.932-9.359-7.01-18.008
		c-14.97-16.302-24.256-32.739-29.926-47.842c-13.454-13.222-25.217-31.19-27.815-54.655c-0.142-1.285-2.008-1.287-2.125,0
		c-1.718,19.035-0.15,61.22,37.754,102.497c7.942,8.649,7.01,19.038,7.01,18.008c0,21.055,15.25,38.536,35.304,42.033
		c-2.313-5.07-3.486-10.212-3.767-15.301C70.851,347.308,67.317,338.015,67.317,327.89z"/>
</g>
<g>
	<path id="SVGCleanerId_2_1_" style="fill:#EA473B;" d="M380.055,412.522c58.565-26.17,98.762-66.566,119.053-93.065
		c2.981-3.893-2.049-8.803-5.882-5.745c-56.846,45.365-115.461,58.219-164.102,56.48
		C343.029,385.458,359.842,400.114,380.055,412.522z"/>
</g>
<g>
	<path id="SVGCleanerId_3_1_" style="fill:#EA473B;" d="M182.784,317.131c-1.954-1.116-3.945-2.198-6.006-3.213
		c-39.093-19.257-83.843-12.54-97.411,15.003c-15.069,30.592,12.162,73.226,57.792,89.651l0,0c2.687,1.008,7.283,2.43,11.667,3.462
		c63.258,17.955,119.563,19.536,165.455,11.661C269.796,411.941,224.145,375.71,182.784,317.131z"/>
</g>
<g>
	<path id="SVGCleanerId_4_1_" style="fill:#DD332F;" d="M180.249,422.034c-4.384-1.032-8.98-2.455-11.667-3.462l0,0
		c-45.631-16.425-72.862-59.059-57.792-89.651c6.447-13.089,19.943-21.463,36.521-24.593c-29.842-5.068-57.729,3.858-67.943,24.593
		c-15.07,30.592,12.162,73.226,57.792,89.651l0,0c2.687,1.008,7.283,2.43,11.667,3.462c46.321,13.148,88.907,17.508,126.413,15.812
		C245.916,436.551,214.078,431.636,180.249,422.034z"/>
</g>
<path style="fill:#CC2727;" d="M278.266,412.672c-0.161,0-0.323-0.005-0.486-0.015c-80.647-5.002-118.837-22.696-136.674-36.659
	c-3.36-2.631-3.952-7.487-1.322-10.847c2.632-3.361,7.488-3.951,10.847-1.322c16.112,12.613,51.416,28.648,128.105,33.404
	c4.259,0.264,7.498,3.931,7.234,8.191C285.716,409.52,282.314,412.672,278.266,412.672z"/>
<path id="SVGCleanerId_5" style="fill:#3BBC56;" d="M231.538,201.06c1.215-14.348-4.806-28.54-16.624-37.566
	c-12.234-9.345-21.355-22.24-24.762-37.253c-4.983-21.955-5.747-50.399,11.377-75.938c0.72-1.074-0.705-2.279-1.624-1.37
	c-13.589,13.44-39.596,46.691-37.247,102.682c0.278,6.632-1.904,13.139-6.191,18.207c-13.671,16.163-13.255,39.372-0.19,54.968
	c4.148-14.822,12.864-23.427,25.57-28.982C197.313,189.046,215.443,189.698,231.538,201.06z"/>
<path id="SVGCleanerId_6" style="fill:#30AA44;" d="M177.071,169.822c4.287-5.068,6.469-11.575,6.191-18.207
	c-0.682-16.266,1.039-30.6,4.143-43.1c-1.48-18.412,1.324-39.123,14.123-58.213c0.72-1.074-0.705-2.279-1.624-1.37
	c-13.589,13.44-39.596,46.691-37.247,102.683c0.278,6.632-1.904,13.139-6.191,18.207c-13.671,16.163-13.255,39.372-0.19,54.968
	c2.352-8.403,6.175-14.805,11.358-19.789C165.455,192.917,168.479,179.979,177.071,169.822z"/>
<path id="SVGCleanerId_7" style="fill:#EA473B;" d="M270.655,261.377c-0.263-1.102-0.672-2.621-0.672-2.621l0,0
	c-12.836-48.354-55.745-80.202-88.138-66.039c-31.246,13.662-37.929,63.807-13.648,105.787c-0.24,0.284,6.462,9.871,6.684,10.17
	c116.301,172.454,269.341,161.688,333.86,147.504c4.789-1.053,4.111-8.05-0.791-8.184
	C326.098,443.018,276.713,283.794,270.655,261.377z"/>
<path id="SVGCleanerId_8" style="fill:#DD332F;" d="M195.486,308.675c-0.222-0.299-6.924-9.886-6.684-10.17
	c-24.281-41.98-17.598-92.126,13.648-105.787c2.083-0.911,4.21-1.628,6.369-2.166c-9.226-2.096-18.463-1.555-26.974,2.166
	c-31.246,13.662-37.929,63.807-13.648,105.787c-0.24,0.284,6.462,9.872,6.684,10.17c89.758,133.094,201.396,157.057,277.338,154.543
	C377.612,460.733,277.431,430.184,195.486,308.675z"/>
<g>
	<path id="SVGCleanerId_5_1_" style="fill:#3BBC56;" d="M231.538,201.06c1.215-14.348-4.806-28.54-16.624-37.566
		c-12.234-9.345-21.355-22.24-24.762-37.253c-4.983-21.955-5.747-50.399,11.377-75.938c0.72-1.074-0.705-2.279-1.624-1.37
		c-13.589,13.44-39.596,46.691-37.247,102.682c0.278,6.632-1.904,13.139-6.191,18.207c-13.671,16.163-13.255,39.372-0.19,54.968
		c4.148-14.822,12.864-23.427,25.57-28.982C197.313,189.046,215.443,189.698,231.538,201.06z"/>
</g>
<g>
	<path id="SVGCleanerId_6_1_" style="fill:#30AA44;" d="M177.071,169.822c4.287-5.068,6.469-11.575,6.191-18.207
		c-0.682-16.266,1.039-30.6,4.143-43.1c-1.48-18.412,1.324-39.123,14.123-58.213c0.72-1.074-0.705-2.279-1.624-1.37
		c-13.589,13.44-39.596,46.691-37.247,102.683c0.278,6.632-1.904,13.139-6.191,18.207c-13.671,16.163-13.255,39.372-0.19,54.968
		c2.352-8.403,6.175-14.805,11.358-19.789C165.455,192.917,168.479,179.979,177.071,169.822z"/>
</g>
<g>
	<path id="SVGCleanerId_7_1_" style="fill:#EA473B;" d="M270.655,261.377c-0.263-1.102-0.672-2.621-0.672-2.621l0,0
		c-12.836-48.354-55.745-80.202-88.138-66.039c-31.246,13.662-37.929,63.807-13.648,105.787c-0.24,0.284,6.462,9.871,6.684,10.17
		c116.301,172.454,269.341,161.688,333.86,147.504c4.789-1.053,4.111-8.05-0.791-8.184
		C326.098,443.018,276.713,283.794,270.655,261.377z"/>
</g>
<g>
	<path id="SVGCleanerId_8_1_" style="fill:#DD332F;" d="M195.486,308.675c-0.222-0.299-6.924-9.886-6.684-10.17
		c-24.281-41.98-17.598-92.126,13.648-105.787c2.083-0.911,4.21-1.628,6.369-2.166c-9.226-2.096-18.463-1.555-26.974,2.166
		c-31.246,13.662-37.929,63.807-13.648,105.787c-0.24,0.284,6.462,9.872,6.684,10.17
		c89.758,133.094,201.396,157.057,277.338,154.543C377.612,460.733,277.431,430.184,195.486,308.675z"/>
</g>
<path style="fill:#CC2727;" d="M293.584,377.648c-1.824,0-3.654-0.642-5.126-1.947c-74.81-66.387-85.383-120.268-85.797-122.529
	c-0.768-4.198,2.013-8.223,6.211-8.991c4.185-0.769,8.207,2.002,8.986,6.187c0.153,0.78,10.669,51.488,80.857,113.774
	c3.192,2.833,3.483,7.716,0.651,10.908C297.839,376.77,295.716,377.648,293.584,377.648z"/>
<g>
</g>
<g>
</g>
<g>
</g>
<g>
</g>
<g>
</g>
<g>
</g>
<g>
</g>
<g>
</g>
<g>
</g>
<g>
</g>
<g>
</g>
<g>
</g>
<g>
</g>
<g>
</g>
<g>
</g>
</svg>
