<?xml version="1.0" encoding="iso-8859-1"?>
<!-- Generator: Adobe Illustrator 19.0.0, SVG Export Plug-In . SVG Version: 6.00 Build 0)  -->
<svg version="1.1" id="Capa_1" xmlns="http://www.w3.org/2000/svg" xmlns:xlink="http://www.w3.org/1999/xlink" x="0px" y="0px"
	 viewBox="0 0 512 512" style="enable-background:new 0 0 512 512;" xml:space="preserve">
<path style="fill:#3BBC56;" d="M89.861,157.593c-3.927,0.346-7.635-1.858-9.352-5.407c-15.287-31.583-58.4-35.847-74.574-9.54
	c-13.192,21.458-1.183,38.178,5.194,44.855c2.095,2.194,3.482,4.973,3.953,7.97c0.341,2.17,0.795,4.187,1.33,6.088
	c12.966-4.081,32.066-2.853,43.038,11.743c1.716,2.283,4.659,3.332,7.401,2.538c6.847-1.981,22.379-4.108,35.174,11.102l1.921-4.414
	c6.535-15.016,18.221-25.58,33.275-27.501C134.544,189.353,122.788,154.693,89.861,157.593z"/>
<g>
	<path style="fill:#30AA44;" d="M36.724,195.472c-0.471-2.998-1.858-5.776-3.953-7.97c-6.377-6.677-18.386-23.398-5.194-44.855
		c5.12-8.327,12.942-13.582,21.723-15.886c-16.468-4.081-34.221,1.013-43.364,15.886c-13.192,21.457-1.183,38.178,5.194,44.855
		c2.096,2.194,3.482,4.973,3.953,7.97c0.341,2.17,0.795,4.187,1.33,6.088c6.218-1.957,13.846-2.687,21.312-1.314
		C37.338,198.728,36.988,197.158,36.724,195.472z"/>
	<path style="fill:#30AA44;" d="M100.848,230.986l2.208-5.072c-12.795-15.211-29.357-14.114-36.205-12.133
		c-2.743,0.794-5.686-0.256-7.401-2.538c-15.271-20.315-46.508-17.332-54.334,3.622c-6.383,17.091,4.485,27.3,9.949,31.156
		c1.795,1.267,3.169,3.049,3.922,5.113c7.84,21.496,26.837,19.604,35.541,17.442c2.257-0.561,4.534,0.572,5.634,2.621
		c2.645,4.93,14.523,11.369,43.613,0.533C96.506,259.954,94.803,244.876,100.848,230.986z"/>
</g>
<path style="fill:#269E35;" d="M42.244,251.637c-0.781-2.141-2.205-3.989-4.067-5.303c-5.667-3.999-16.937-14.586-10.318-32.31
	c2.629-7.039,7.813-12.109,14.149-15.049c-14.805-4.513-31.47,1.368-36.894,15.89c-6.383,17.091,4.485,27.3,9.949,31.156
	c1.795,1.267,3.169,3.049,3.922,5.114c7.84,21.496,26.837,19.604,35.541,17.442c0.764-0.19,1.526-0.171,2.248-0.004
	C50.998,265.965,45.622,260.898,42.244,251.637z"/>
<path style="fill:#F7991E;" d="M496.078,364.107L162.605,199.291c-22.868-11.302-50.54-1.181-60.719,22.209l-4.128,9.486
	c-10.776,24.762,3.063,53.302,29.178,60.175l360.891,94.988C501.613,389.778,508.858,370.423,496.078,364.107z"/>
<path style="fill:#EA8B18;" d="M143.471,272.677c-26.116-6.874-39.954-35.414-29.178-60.175l4.128-9.486
	c0.228-0.524,0.475-1.033,0.72-1.543c-7.38,4.607-13.506,11.414-17.255,20.028l-4.128,9.486
	c-10.776,24.762,3.062,53.302,29.178,60.175l360.891,94.988c12.425,3.27,19.53-12.124,11.457-19.821L143.471,272.677z"/>
<path style="fill:#3BBC56;" d="M376.44,191.297c13.292-31.997,34.847-34.659,45.698-33.703c3.927,0.346,7.635-1.858,9.352-5.407
	c15.287-31.583,58.4-35.847,74.574-9.54c13.192,21.458,1.183,38.178-5.194,44.855c-4.211,4.409-3.517,7.789-5.283,14.058
	c-12.966-4.081-32.066-2.853-43.038,11.743c-1.716,2.283-4.659,3.332-7.401,2.538c-6.847-1.981-22.379-4.108-35.174,11.102
	l-1.921-4.414c-6.535-15.016-18.221-25.58-33.275-27.501C375.341,193.834,375.898,192.603,376.44,191.297z"/>
<g>
	<path style="fill:#30AA44;" d="M410.822,197.232c-4.427-1.71-6.619-6.661-4.756-11.025c0.031-0.072,0.057-0.135,0.08-0.19
		c13.293-32.001,32.456-29.378,43.306-28.423c3.943,0.347,7.622-1.842,9.346-5.405c6.133-12.671,16.746-20.934,28.3-24.601
		c-19.415-6.652-44.727,1.982-55.66,24.706c-1.703,3.541-5.476,5.628-9.391,5.293c-10.879-0.933-32.353,1.802-45.608,33.711
		c-0.542,1.306-1.099,2.537-1.662,3.732c15.054,1.921,26.741,12.486,33.275,27.502l1.921,4.414
		c6.892-8.192,14.575-11.351,21.269-12.217C426.112,206.611,419.169,200.456,410.822,197.232z"/>
	<path style="fill:#30AA44;" d="M411.151,230.986l-2.208-5.072c12.795-15.211,29.357-14.114,36.205-12.133
		c2.743,0.794,5.686-0.256,7.401-2.538c15.271-20.315,46.508-17.332,54.334,3.622c6.383,17.091-4.485,27.3-9.949,31.156
		c-1.795,1.267-3.169,3.049-3.922,5.113c-7.84,21.496-26.837,19.604-35.541,17.442c-2.257-0.561-4.534,0.572-5.634,2.621
		c-2.645,4.93-14.523,11.369-43.613,0.533C415.493,259.954,417.196,244.876,411.151,230.986z"/>
</g>
<path style="fill:#269E35;" d="M430.752,277.406c7.472-10.238,10.568-23.643,7.063-37.08l0,0c-0.893-3.426,0.467-7.085,3.45-8.992
	c13.506-8.635,27.033-5.44,32.8-2.746c2.587,1.208,5.657,0.627,7.705-1.363c7.487-7.272,17.024-10.238,25.978-9.699
	c-0.245-0.869-0.526-1.754-0.865-2.662c-7.826-20.954-39.063-23.937-54.334-3.622c-1.716,2.283-4.659,3.332-7.401,2.538
	c-6.847-1.981-23.409-3.078-36.204,12.133l2.208,5.072c6.045,13.891,4.342,28.968-2.926,40.745
	C417.343,275.127,424.77,276.826,430.752,277.406z"/>
<path style="fill:#FFA92C;" d="M15.92,364.107l333.473-164.816c22.868-11.302,50.54-1.181,60.719,22.209l4.128,9.486
	c10.776,24.762-3.063,53.302-29.178,60.175l-360.89,94.988C10.386,389.778,3.14,370.423,15.92,364.107z"/>
<path style="fill:#F7991E;" d="M368.528,272.677c26.116-6.874,39.954-35.414,29.178-60.175l-4.128-9.486
	c-0.228-0.524-0.475-1.033-0.72-1.543c7.38,4.607,13.506,11.414,17.255,20.028l4.128,9.486
	c10.776,24.762-3.062,53.302-29.178,60.175L24.172,386.149c-12.425,3.27-19.53-12.124-11.457-19.821L368.528,272.677z"/>
<g>
	<path style="fill:#FCB960;" d="M312.66,220.303c18.8,18.388,16.198,24.993,23.906,24.993c5.906,0,9.666-6.428,6.689-11.592
		c-5.213-9.04-14.022-18.552-17.889-22.538l-14.226,7.031C311.516,218.96,312.017,219.675,312.66,220.303z"/>
	<path style="fill:#FCB960;" d="M299.927,272.305c-2.238-3.635-6.997-4.767-10.634-2.529c-3.635,2.238-4.767,6.999-2.529,10.634
		c0.105,0.17,10.486,17.158,13.053,32.46c0.039,0.234,0.089,0.463,0.148,0.689l14.971-3.94
		C311.704,291.589,300.413,273.094,299.927,272.305z"/>
	<path style="fill:#FCB960;" d="M179.708,300.646c1.29,2.861,4.105,4.554,7.051,4.554c1.062,0,2.141-0.22,3.172-0.685
		c3.892-1.755,5.624-6.332,3.87-10.223l-6.561-14.553c-0.038-0.084-0.085-0.162-0.125-0.244l-13.855,6.848L179.708,300.646z"/>
	<path style="fill:#FCB960;" d="M160.268,349.301l-7.838-19.275c-1.608-3.955-6.118-5.856-10.072-4.249
		c-3.954,1.608-5.856,6.117-4.249,10.072l7.461,18.347l15.005-3.949C160.492,349.93,160.395,349.614,160.268,349.301z"/>
</g>
<g>
	<path style="fill:#FFA92C;" d="M366.625,330.053c-4.019-1.432-8.442,0.668-9.873,4.69l-5.295,14.879
		c-0.069,0.195-0.124,0.392-0.177,0.588l14.973,3.941l5.062-14.225C372.746,335.904,370.646,331.484,366.625,330.053z"/>
	<path style="fill:#FFA92C;" d="M173.383,204.617c-4.743,5.412-10.891,14.39-16.436,28.618c-2.245,5.76,1.788,12.061,7.652,12.061
		c3.256,0,6.344-2.041,7.659-5.415c7.656-19.642,16.15-26.422,17.297-27.271L173.383,204.617z"/>
</g>
<g>
</g>
<g>
</g>
<g>
</g>
<g>
</g>
<g>
</g>
<g>
</g>
<g>
</g>
<g>
</g>
<g>
</g>
<g>
</g>
<g>
</g>
<g>
</g>
<g>
</g>
<g>
</g>
<g>
</g>
</svg>
