<?xml version="1.0" encoding="iso-8859-1"?>
<!-- Generator: Adobe Illustrator 19.0.0, SVG Export Plug-In . SVG Version: 6.00 Build 0)  -->
<svg version="1.1" id="Capa_1" xmlns="http://www.w3.org/2000/svg" xmlns:xlink="http://www.w3.org/1999/xlink" x="0px" y="0px"
	 viewBox="0 0 512 512" style="enable-background:new 0 0 512 512;" xml:space="preserve">
<path style="fill:#30AA44;" d="M437.81,273.306c-21.87-14.149-54.538-39.719-106.689-30.875
	c-24.615,4.174-48.036,11.26-68.354,18.867c-16.7,19.907-32.684,32.803-50.425,45.074c-11.161,16.434-21.032,26.98-32.12,38.067
	c54.465-54.465,217.142-64.228,255.932-65.798C438.943,278.528,440.039,274.983,437.81,273.306z"/>
<path style="fill:#269E35;" d="M272.742,289.482c10.283-10.39,22.911-18.175,36.881-22.479c14.051-4.329,29.048-8.102,44.516-10.725
	c32.14-5.45,56.872,2.173,76.245,12.136c-21.681-14.348-52.703-33.877-99.263-25.981c-24.615,4.174-48.036,11.26-68.354,18.867
	c-16.7,19.907-32.684,32.803-50.424,45.074c-11.161,16.434-21.032,26.979-32.12,38.067c16.83-16.83,43.997-29.387,74.643-38.758
	C260.893,300.773,266.813,295.472,272.742,289.482z"/>
<path style="fill:#30AA44;" d="M262.768,262.317c4.842-1.813,9.872-3.592,15.041-5.314c70.198-62.417,161.611-140.1,233.137-188.402
	c2.267-1.531,0.549-5.046-2.054-4.204c-29.587,9.568-99.894,36.426-187.246,97.758C307.858,193.638,284.366,236.57,262.768,262.317z
	"/>
<path style="fill:#269E35;" d="M352.772,167.476c39.478-26.604,75.026-46.039,104.307-60.01
	c18.709-14.212,36.854-27.376,53.866-38.865c2.267-1.531,0.549-5.046-2.054-4.204c-29.587,9.568-99.894,36.426-187.246,97.758
	c-13.788,31.483-37.28,74.415-58.878,100.162c4.842-1.813,9.872-3.593,15.041-5.314c11.756-10.453,24.116-21.339,36.869-32.438
	c6.191-11.03,11.965-22.202,16.986-32.69C336.388,182.004,343.697,173.591,352.772,167.476z"/>
<path style="fill:#30AA44;" d="M213.362,306.372c26.459-18.303,48.065-38.433,66.934-67.304
	c31.115-47.608,74.607-129.986,75.517-219.564c0.038-3.731-4.974-5.004-6.741-1.718l-84.386,156.926
	C255.881,214.513,237.616,270.661,213.362,306.372z"/>
<path style="fill:#269E35;" d="M258.983,266.893c12.228-28.904,21.561-60.546,27.119-85.674l66.967-124.531
	c1.651-12.202,2.616-24.622,2.743-37.184c0.038-3.731-4.974-5.004-6.741-1.718l-84.386,156.926
	c-8.804,39.801-27.069,95.949-51.324,131.66C230.395,294.59,245.408,282.035,258.983,266.893z"/>
<path style="fill:#30AA44;" d="M124.042,402.659l61.886-61.886c21.489-21.489,38.679-46.894,50.476-74.901
	c21.566-51.199,48.803-137.152,35.925-223.401c-0.787-5.27-8.173-5.861-9.815-0.791l-55.503,171.396
	c-14.874,45.932-40.43,87.681-74.569,121.821c-37.152,37.152-56.268,58.478-87.4,77.422c-19.279,11.731-25.253,37.132-11.595,50.79
	c13.559,13.559,38.713,7.79,50.575-11.244C95.234,433.875,109.053,417.648,124.042,402.659z"/>
<path style="fill:#269E35;" d="M63.558,424.247c31.132-18.944,50.248-40.27,87.4-77.422c34.139-34.139,59.695-75.888,74.569-121.82
	l49.688-153.44c-0.498-9.662-1.436-19.375-2.887-29.094c-0.787-5.27-8.173-5.861-9.815-0.791L207.01,213.076
	c-14.874,45.932-40.43,87.681-74.569,121.821c-37.152,37.152-56.268,58.478-87.4,77.422c-19.279,11.731-25.253,37.132-11.595,50.79
	c4.103,4.103,9.27,6.425,14.807,7.156C39.752,456.084,46.346,434.721,63.558,424.247z"/>
<g>
	<path style="fill:#93603E;" d="M77.119,484.754l-10.437-17.447c-2.167-3.622-0.987-8.315,2.635-10.481
		c3.623-2.167,8.315-0.987,10.481,2.635l10.437,17.447c2.167,3.622,0.987,8.315-2.635,10.481
		C83.986,489.553,79.289,488.382,77.119,484.754z"/>
	<path style="fill:#93603E;" d="M48.912,496.103c-0.135,0-0.272-0.004-0.408-0.01c-4.215-0.222-7.452-3.819-7.23-8.034l0.95-18.039
		c0.222-4.215,3.813-7.45,8.034-7.23c4.215,0.222,7.452,3.819,7.23,8.034l-0.95,18.039
		C56.323,492.941,52.949,496.103,48.912,496.103z"/>
	<path style="fill:#93603E;" d="M32.712,430.507c-2.787,0-2.56-0.274-21.362-11.522c-3.622-2.167-4.802-6.86-2.635-10.482
		c2.166-3.622,6.858-4.803,10.482-2.634l17.446,10.437C43.303,420.29,40.41,430.507,32.712,430.507z"/>
	<path style="fill:#93603E;" d="M0.011,447.6c-0.222-4.215,3.015-7.812,7.23-8.034l18.04-0.95c4.223-0.218,7.812,3.015,8.034,7.23
		s-3.015,7.812-7.23,8.034l-18.04,0.95C3.793,455.047,0.231,451.787,0.011,447.6z"/>
</g>
<path style="fill:#83CC8E;" d="M119.189,348.149c-24.854,24.854-44.258,45.982-74.147,64.169
	c-19.305,11.746-25.237,37.148-11.595,50.79c13.557,13.557,38.712,7.794,50.575-11.244c18.109-29.057,38.758-47.944,64.848-74.034
	L119.189,348.149z"/>
<path style="fill:#78C181;" d="M134.462,363.422l-15.237-15.237c-9.689,9.775-18.154,18.332-26.153,26.021
	c-6.178,5.966-12.392,11.682-18.942,17.167c-0.022,0.018-0.043,0.036-0.065,0.054c-0.658,0.55-1.319,1.099-1.984,1.645
	c-0.363,0.299-0.728,0.596-1.092,0.892c-0.309,0.251-0.618,0.501-0.929,0.751c-0.623,0.502-1.249,1.001-1.876,1.497
	c-0.041,0.033-0.083,0.065-0.124,0.098c-6.387,5.04-12.997,9.745-20.237,14.289c-0.917,0.576-1.844,1.15-2.782,1.72
	c-0.603,0.367-1.192,0.747-1.769,1.139c-9.783,6.664-15.765,16.95-17.003,27.067c-0.002,0.014-0.004,0.029-0.006,0.043
	c-0.045,0.374-0.072,0.747-0.104,1.12c-0.019,0.224-0.048,0.448-0.062,0.671c-0.011,0.169-0.011,0.337-0.019,0.506
	c-0.343,6.948,1.598,13.675,6.147,18.93c0.388,0.449,0.796,0.886,1.222,1.313l0,0c0.475,0.475,0.968,0.921,1.471,1.349
	c0.151,0.129,0.308,0.247,0.461,0.372c0.365,0.296,0.735,0.584,1.114,0.856c0.17,0.123,0.343,0.241,0.516,0.359
	c0.391,0.266,0.787,0.521,1.19,0.762c0.152,0.091,0.303,0.184,0.456,0.271c0.504,0.288,1.015,0.559,1.536,0.809
	c0.052,0.025,0.102,0.053,0.154,0.078c1.232,0.582,2.507,1.063,3.815,1.443c0.022,0.006,0.045,0.012,0.067,0.018
	c0.628,0.181,1.263,0.338,1.905,0.473c0.045,0.009,0.089,0.018,0.133,0.028c0.657,0.135,1.319,0.249,1.987,0.337l0,0
	c-8.501-14.181-1.908-35.544,15.304-46.017C89.732,408.32,107.416,390.706,134.462,363.422z"/>
<g>
</g>
<g>
</g>
<g>
</g>
<g>
</g>
<g>
</g>
<g>
</g>
<g>
</g>
<g>
</g>
<g>
</g>
<g>
</g>
<g>
</g>
<g>
</g>
<g>
</g>
<g>
</g>
<g>
</g>
</svg>
