<?xml version="1.0" encoding="iso-8859-1"?>
<!-- Generator: Adobe Illustrator 19.0.0, SVG Export Plug-In . SVG Version: 6.00 Build 0)  -->
<svg version="1.1" id="Capa_1" xmlns="http://www.w3.org/2000/svg" xmlns:xlink="http://www.w3.org/1999/xlink" x="0px" y="0px"
	 viewBox="0 0 512 512" style="enable-background:new 0 0 512 512;" xml:space="preserve">
<path style="fill:#744EAA;" d="M318.183,195.617c-0.529-3.659-2.889-6.772-6.241-8.332c-8.085-3.763-13.439-9.667-16.994-15.978
	c-51.539,40.005-113.475,115.908-173.051,125.602c-58.041,9.444-138.13,32.858-119.016,104.762
	c19.115,71.904,145.559,82.459,271.601-42.724c34.266-34.032,73.677-78.658,93.749-122.433
	C328.476,234.559,319.965,207.942,318.183,195.617z"/>
<path style="fill:#67449E;" d="M36.924,389.738c-11.575-43.545,13.235-69.302,47.494-84.947
	c-49.261,13.219-96.727,39.735-81.536,96.88c13.415,50.462,79.693,70.702,161.594,35.02
	C98.759,454.023,48.421,432.989,36.924,389.738z"/>
<path style="fill:#9266CC;" d="M331.414,227.517c-17.667,26.127-45.825,58.098-90.089,96.416
	c-98.105,84.928-191.46,97.578-240.182,69.765c13.961,81.061,145.059,92.654,273.338-34.75
	c51.74-51.387,79.241-91.25,93.221-121.279C350.605,237.912,339.129,233.551,331.414,227.517z"/>
<path style="fill:#7B54BA;" d="M43.875,406.329c-16.485-1.534-30.922-5.89-42.731-12.631c5.634,32.711,30.349,54.099,66.25,59.617
	c0.44,0.067,0.878,0.135,1.322,0.197c0.643,0.091,1.295,0.169,1.944,0.25c1.346,0.165,2.703,0.315,4.079,0.437
	c0.073,0.007,0.145,0.013,0.218,0.02c18.548,1.612,39.755-0.714,62.671-7.62c0.37-0.112,0.741-0.224,1.113-0.338
	c0.994-0.305,1.99-0.616,2.99-0.938c0.829-0.268,1.663-0.548,2.496-0.828c1.108-0.371,2.22-0.754,3.336-1.147
	c0.97-0.342,1.942-0.689,2.917-1.047c0.596-0.219,1.193-0.438,1.791-0.663c1.566-0.589,3.135-1.19,4.714-1.821
	c0.108-0.043,0.218-0.09,0.326-0.133c1.632-0.655,3.271-1.333,4.915-2.033c0.25-0.106,0.501-0.213,0.752-0.32
	c0.46-0.197,0.924-0.41,1.385-0.611C107.776,451.609,62.634,438.029,43.875,406.329z"/>
<g>
	<path style="fill:#3BBC56;" d="M510.734,106.031c-64.406-26.702-119.747,6.789-151.456,34.645c-4.162,3.656-9.369,6.019-14.9,6.326
		c-15.488,0.86-32.975,11.238-51.832,26.18c3.103,7.39,8.48,14.833,17.808,19.174c3.078,1.432,5.244,4.29,5.73,7.65
		c1.718,11.881,10.221,38.25,51.619,37.663c12.724-27.333,14.245-46.519,12.626-58.818c-0.461-3.507,0.566-7.052,2.899-9.711
		c44.395-50.569,102.584-60.2,126.662-59.205C512.162,110.03,512.834,106.902,510.734,106.031z"/>
	<path style="fill:#3BBC56;" d="M360.993,145.374c-3.134,0-6.29-0.286-9.438-0.866c-13.54-2.492-25.299-10.107-33.111-21.444
		c-13.385-19.423-8.472-46.115,10.95-59.5c16.239-11.191,38.557-7.084,49.75,9.157c2.421,3.514,1.536,8.325-1.978,10.747
		c-3.514,2.42-8.325,1.535-10.747-1.978c-6.357-9.224-19.032-11.557-28.255-5.201c-12.407,8.55-15.544,25.599-6.994,38.006
		c5.47,7.938,13.703,13.269,23.183,15.015c9.482,1.744,19.073-0.307,27.01-5.777c3.514-2.422,8.326-1.536,10.747,1.978
		c2.421,3.514,1.536,8.325-1.978,10.747C381.431,142.253,371.337,145.374,360.993,145.374z"/>
</g>
<g>
</g>
<g>
</g>
<g>
</g>
<g>
</g>
<g>
</g>
<g>
</g>
<g>
</g>
<g>
</g>
<g>
</g>
<g>
</g>
<g>
</g>
<g>
</g>
<g>
</g>
<g>
</g>
<g>
</g>
</svg>
