<?xml version="1.0" encoding="iso-8859-1"?>
<!-- Generator: Adobe Illustrator 19.0.0, SVG Export Plug-In . SVG Version: 6.00 Build 0)  -->
<svg version="1.1" id="Capa_1" xmlns="http://www.w3.org/2000/svg" xmlns:xlink="http://www.w3.org/1999/xlink" x="0px" y="0px"
	 viewBox="0 0 512.001 512.001" style="enable-background:new 0 0 512.001 512.001;" xml:space="preserve">
<path style="fill:#EFC797;" d="M187.785,339.224c11.467-35.543,21.597-32.446,29.571-62.459c4.506-16.96,9.632-44.121,6.073-71.187
	l-0.748-0.753c-4.035,29.29-23.992,72.265-48.553,88.639c-30.339,18.701-50.931,55.138-50.931,97.027
	c0,61.596,44.538,111.5,99.274,110.331C181.92,472.179,170.487,392.857,187.785,339.224z"/>
<path style="fill:#E0B586;" d="M143.885,390.491c0-41.888,20.592-78.325,50.931-97.027c9.239-6.159,17.826-16.084,25.16-27.628
	c3.546-16.55,6.324-38.433,3.453-60.258l-0.749-0.753c-4.035,29.29-23.992,72.265-48.553,88.638
	c-30.339,18.701-50.931,55.139-50.931,97.027c0,61.596,44.538,111.5,99.274,110.331c-1.335-0.943-2.638-1.945-3.91-2.996
	C175.682,486.231,143.885,442.536,143.885,390.491z"/>
<path style="fill:#EFC797;" d="M337.874,293.464c-24.566-16.377-44.517-59.34-48.553-88.639l-1.193,1.199
	c-3.445,26.918,2.689,53.873,7.17,70.74c2.766,10.411,5.573,20.131,12.251,28.584c0.201,0,4.546,7.208,4.647,7.382
	c0.973,1.687,1.903,3.396,2.742,5.014c31.343,60.763,16.781,152.992-25.774,183.068c54.808,1.405,99.641-48.488,99.641-110.321
	C388.806,353.703,359.938,307.064,337.874,293.464z"/>
<path style="fill:#E0B586;" d="M339.059,317.745c-0.838-1.618-1.769-3.327-2.742-5.014c-0.101-0.174-4.446-7.382-4.647-7.382
	c-6.678-8.453-9.484-18.172-12.251-28.583c-0.174-0.657-0.352-1.334-0.531-2.021c-15.348-20.267-26.641-48.679-29.566-69.918
	l-1.193,1.199c-3.445,26.918,2.689,53.873,7.17,70.741c2.766,10.411,5.573,20.131,12.251,28.583c0.201,0,4.546,7.208,4.647,7.382
	c0.973,1.687,1.903,3.396,2.742,5.014c31.343,60.763,16.781,152.992-25.774,183.067c10.312,0.264,20.271-1.288,29.645-4.394
	C357.046,462.564,369.003,375.796,339.059,317.745z"/>
<path style="fill:#3BBC56;" d="M234.533,96.31c6.382,11.472,12.24,23.792,17.015,35.641c2.639-10.678,6.061-22.066,10.477-33.603
	c-3.178-29.86-11.354-65.741-30.66-96.939c-1.649-2.665-5.777-1.269-5.487,1.852L234.533,96.31z"/>
<path style="fill:#30AA44;" d="M252.128,93.511l-5.752-61.844c-4.044-10.325-8.985-20.519-15.011-30.257
	c-1.649-2.665-5.777-1.269-5.487,1.852l8.655,93.049c6.382,11.472,12.24,23.792,17.015,35.641
	c1.809-7.318,3.996-14.974,6.608-22.778c-1.037-2.042-2.091-4.073-3.164-6.083C253.407,100.121,252.44,96.863,252.128,93.511z"/>
<path style="fill:#3BBC56;" d="M294.095,38.987c-23.389,28.301-36.373,62.766-43.582,91.929c3.42,8.496,5.964,17.293,7.625,26.259
	h14.633c1.386-8.67,0.383-3.651,26.508-115.607C299.991,38.516,296.091,36.572,294.095,38.987z"/>
<path style="fill:#30AA44;" d="M268.558,122.583c5.566-20.073,13.906-42.03,26.389-62.459c1.355-5.801,2.794-11.965,4.33-18.548
	c0.714-3.058-3.19-4.999-5.19-2.578c-23.384,28.299-36.366,62.759-43.574,91.919c3.42,8.496,5.964,17.293,7.625,26.259h14.632
	c0.206-1.288,0.36-2.275,0.557-3.387c-1.125-5.326-2.564-10.587-4.316-15.753C267.318,133.042,267.149,127.663,268.558,122.583z"/>
<path style="fill:#3BBC56;" d="M173.39,22.576c-2.519-1.864-5.836,0.961-4.411,3.752c51.922,101.655,55.635,106.186,62.047,130.847
	h28.146C252.217,119.635,218.733,56.137,173.39,22.576z"/>
<path style="fill:#30AA44;" d="M173.39,22.576c-2.519-1.865-5.836,0.961-4.41,3.752c51.922,101.655,55.635,106.186,62.047,130.847
	h20.688c-5.936-22.83-9.565-28.421-51.266-109.778C192.051,38.139,182.99,29.682,173.39,22.576z"/>
<path style="fill:#EFC797;" d="M310.653,305.349c-6.466-8.184-11.467-17.847-14.32-28.584
	c-7.133-26.848-15.848-79.256,10.858-116.389c1.273-1.77,0.051-4.235-2.13-4.235c-2.357,0-100.156,0-98.503,0
	c-2.181,0-3.403,2.464-2.13,4.235c26.706,37.133,17.992,89.541,10.858,116.389c-2.672,10.055-7.416,19.845-14.32,28.584l0,0
	c-51.598,75.34-15.623,206.652,54.844,206.652c39.607,0,72.417-44.165,78.221-101.82
	C340.646,344.458,310.653,305.349,310.653,305.349z"/>
<path style="fill:#E0B586;" d="M222.142,305.349c6.904-8.738,11.648-18.529,14.32-28.584c7.133-26.848,15.848-79.257-10.858-116.389
	c-1.273-1.77-0.051-4.234,2.13-4.234c-0.002,0-0.004,0-0.005,0c-12.04,0-20.723,0-21.169,0c-2.181,0-3.403,2.464-2.13,4.234
	c26.706,37.133,17.991,89.541,10.858,116.389c-2.672,10.055-7.416,19.845-14.32,28.584c-51.6,75.34-15.625,206.652,54.842,206.652
	c3.56,0,7.063-0.362,10.498-1.054C203.026,498.507,173.219,376.78,222.142,305.349z"/>
<g>
</g>
<g>
</g>
<g>
</g>
<g>
</g>
<g>
</g>
<g>
</g>
<g>
</g>
<g>
</g>
<g>
</g>
<g>
</g>
<g>
</g>
<g>
</g>
<g>
</g>
<g>
</g>
<g>
</g>
</svg>
