<?xml version="1.0" encoding="iso-8859-1"?>
<!-- Generator: Adobe Illustrator 19.0.0, SVG Export Plug-In . SVG Version: 6.00 Build 0)  -->
<svg version="1.1" id="Capa_1" xmlns="http://www.w3.org/2000/svg" xmlns:xlink="http://www.w3.org/1999/xlink" x="0px" y="0px"
	 viewBox="0 0 512 512" style="enable-background:new 0 0 512 512;" xml:space="preserve">
<path style="fill:#3BBC56;" d="M254.187,106.696c-4.874-18.41-31.613-98.947-127.937-106.25c-4.582-0.347-8.34,3.578-7.767,8.137
	c3.561,28.328,23.631,116.238,135.054,102.048C253.744,109.31,253.964,108.001,254.187,106.696z"/>
<path style="fill:#30AA44;" d="M139.088,8.583c-0.312-2.482,0.666-4.769,2.355-6.288c-4.865-0.817-9.918-1.448-15.193-1.848
	c-4.582-0.347-8.34,3.578-7.767,8.137c3.42,27.204,22.08,109.338,122.232,103.248C158.52,106.275,142.259,33.808,139.088,8.583z"/>
<path style="fill:#93603E;" d="M260.17,167.065c10.189-38.046,37.819-99.303,70.549-133.099c3.563-3.679,3.886-9.328-0.152-12.479
	L306.145,2.43c-5.577-4.352-13.721-2.671-17.107,3.54c-11.272,20.678-40.693,99.039-46.243,159.765
	C248.452,167.439,254.381,167.876,260.17,167.065z"/>
<path style="fill:#7F573C;" d="M307.583,5.971c0.312-0.573,0.677-1.093,1.064-1.588l-2.502-1.952
	c-5.577-4.352-13.721-2.671-17.107,3.54c-11.272,20.678-40.693,99.039-46.243,159.765c5.658,1.704,11.585,2.141,17.375,1.329
	c0.492-1.837,1.037-3.743,1.608-5.682C268.28,101.322,296.578,26.159,307.583,5.971z"/>
<path style="fill:#EA473B;" d="M271.905,161.505c-19.48,9.211-37.265-0.981-35.549-0.271
	c-77.753-32.179-164.53,23.348-166.239,107.479c-0.02,0.981-0.03,1.967-0.03,2.957c0,84.755,73.269,240.33,158.024,240.33
	c9.525,0,18.845-0.875,27.889-2.536c9.045,1.661,18.364,2.536,27.889,2.536c84.755,0,158.024-155.574,158.024-240.33
	C441.913,176.533,348.234,125.414,271.905,161.505z"/>
<path style="fill:#DD332F;" d="M90.692,271.671c0-0.991,0.01-1.977,0.03-2.957c1.297-63.863,51.616-111.231,109.793-116.278
	c-66.383-5.781-128.949,44.968-130.398,116.278c-0.02,0.981-0.03,1.967-0.03,2.957C70.087,356.426,143.356,512,228.111,512
	c4.15,0,8.259-0.176,12.326-0.501C159.246,501.887,90.692,353.653,90.692,271.671z"/>
<path style="fill:#CC2727;" d="M319.869,432.005c3.006,0,5.864-1.764,7.114-4.705c25.355-59.616,46.376-136.211,21.785-195.774
	c-15.507-37.56-42.015-50.036-43.136-50.549c-3.88-1.774-8.465-0.068-10.241,3.813c-1.775,3.881-0.068,8.465,3.813,10.241
	c0.219,0.1,22.07,10.396,35.28,42.393c12.688,30.732,19.219,87.571-21.722,183.828C310.595,426.349,314.35,432.005,319.869,432.005z
	"/>
<g>
</g>
<g>
</g>
<g>
</g>
<g>
</g>
<g>
</g>
<g>
</g>
<g>
</g>
<g>
</g>
<g>
</g>
<g>
</g>
<g>
</g>
<g>
</g>
<g>
</g>
<g>
</g>
<g>
</g>
</svg>
